<svg xmlns="http://www.w3.org/2000/svg" viewBox="0 0 668.92456 363.34582"><defs><style>.cls-1{fill:#232323;}.cls-2{fill:#5b4d9e;}</style></defs><g id="Layer_2" data-name="Layer 2"><g id="Layer_1-2" data-name="Layer 1"><path class="cls-1" d="M10.85,122.01333a18.22935,18.22935,0,0,1,23.00491,8.94658c3.8348,7.92576,12.5252,16.61616,28.37286,16.61616,15.083,0,25.56274-7.15725,25.81891-18.66165.25617-7.92189-3.32246-14.82686-21.2156-19.93863l-21.2156-5.88028C6.759,91.08265.11406,68.84237.11406,52.99471c0-31.443,26.83972-52.65863,60.58052-52.65863,25.30657,0,44.22439,10.99206,53.68331,29.39754,4.34326,8.43423.76463,16.61617-5.62412,20.70326-9.20274,5.88029-17.38468,3.32634-23.51725-4.34326a31.11811,31.11811,0,0,0-25.0504-12.269c-13.03754,0-22.75263,7.66571-22.75263,18.14931,0,4.59943,1.78932,13.03366,18.91783,17.89314l20.95943,6.13257c42.69125,12.27291,48.82382,36.29863,48.31536,53.171-.51234,35.02165-32.21153,51.63782-63.39839,51.63782-31.183,0-53.67943-15.083-61.349-37.83177C-1.93142,134.02619,2.15955,125.33579,10.85,122.01333Z"/><path class="cls-1" d="M167.10149,178.50676c-9.455,0-14.823-7.41343-14.823-15.84766V18.22923c.25229-8.6904,5.36794-15.84766,14.823-15.84766h55.72879c31.69532,0,52.14629,18.91394,52.14629,49.08,0,11.50439-5.88029,26.07508-24.0296,32.97617,23.265,5.88028,33.23234,25.81891,33.23234,40.13342,0,29.14137-21.2156,53.9356-56.23725,53.9356ZM219.25165,72.67717c9.71121,0,16.36-8.17806,16.36-18.66166,0-10.98817-5.62411-18.65777-16.61617-18.65777H189.85411V72.67717Zm-29.39754,29.65371v43.19971h36.04246c12.5252,0,18.91783-11.5044,18.91783-21.98411,0-9.96738-6.39263-21.2156-19.68246-21.2156Z"/><path class="cls-1" d="M602.71994,145.78676h50.86931c8.43423,0,15.33531,7.41343,15.33531,16.36,0,8.43423-7.15725,16.10383-15.33531,16.36H580.22348c-9.45891,0-14.82685-7.15726-14.82685-15.84766V18.4854c.25617-9.20274,8.94657-17.3808,18.66165-17.3808,10.22355,0,18.66166,7.92189,18.66166,17.3808Z"/><path class="cls-1" d="M1.60946,237.4768l.9936-1.95194a11.77675,11.77675,0,0,0,7.91276,2.91189c4.48723,0,6.44-1.88464,6.44-4.24845,0-6.577-14.7638-2.53528-14.7638-11.40719,0-3.52728,2.74042-6.577,8.83825-6.577a13.54219,13.54219,0,0,1,7.43278,2.12342L17.60725,220.35a12.34347,12.34347,0,0,0-6.577-1.98721c-4.38467,0-6.33742,1.952-6.33742,4.34941,0,6.577,14.7638,2.6042,14.7638,11.33988,0,3.52729-2.80933,6.54175-8.94081,6.54175C6.91962,240.59383,3.39073,239.32618,1.60946,237.4768Z"/><path class="cls-1" d="M41.81668,222.37085l-9.00893,20.17653c-1.508,3.52728-3.42632,4.65871-5.99526,4.65871a6.16689,6.16689,0,0,1-4.38467-1.64425l1.13062-1.81573a4.50287,4.50287,0,0,0,3.2885,1.37021c1.6098,0,2.706-.75322,3.734-3.01446l.78767-1.74682-8.04977-17.98419h2.53448l6.78294,15.31108,6.78213-15.31108Z"/><path class="cls-1" d="M64.38265,229.94146V240.3887H61.95073V230.18024c0-3.80133-1.9872-5.75488-5.41192-5.75488-3.871,0-6.303,2.39907-6.303,6.5081v9.45524H47.80312V222.37085h2.32936V225.693c1.3021-2.19234,3.734-3.46,6.851-3.46C61.36819,222.233,64.38265,224.76832,64.38265,229.94146Z"/><path class="cls-1" d="M83.04233,239.29253a5.79425,5.79425,0,0,1-3.80213,1.26764c-3.39187,0-5.2757-1.91829-5.2757-5.24205V224.42536H70.74491v-2.05451H73.9645V218.4317h2.43192v3.93915h5.48083v2.05451H76.39642V235.1819c0,2.12343,1.09616,3.2885,3.11782,3.2885a4.0226,4.0226,0,0,0,2.67151-.92469Z"/><path class="cls-1" d="M106.60351,229.94146V240.3887h-2.43192V230.18024c0-3.80133-1.9864-5.75488-5.41273-5.75488-3.87024,0-6.303,2.39907-6.303,6.5081v9.45524H90.024v-25.417H92.4559v10.5498a7.61593,7.61593,0,0,1,6.74848-3.2885C103.58905,222.233,106.60351,224.76832,106.60351,229.94146Z"/><path class="cls-1" d="M131.53169,232.13379H116.4594c.274,3.76767,3.15148,6.2677,7.09063,6.2677a7.099,7.099,0,0,0,5.51529-2.36381l1.3702,1.57694a8.86984,8.86984,0,0,1-6.9536,2.94555c-5.61866,0-9.45525-3.83658-9.45525-9.1812,0-5.343,3.734-9.14594,8.8038-9.14594s8.73488,3.734,8.73488,9.14594C131.56535,231.58571,131.53169,231.85975,131.53169,232.13379Zm-15.07229-1.81573h12.77739a6.4016,6.4016,0,0,0-12.77739,0Z"/><path class="cls-1" d="M148.58238,239.29253a5.79574,5.79574,0,0,1-3.80213,1.26764c-3.39107,0-5.27571-1.91829-5.27571-5.24205V224.42536H136.285v-2.05451h3.21959V218.4317h2.43273v3.93915h5.48083v2.05451h-5.48083V235.1819c0,2.12343,1.09616,3.2885,3.117,3.2885a4.02112,4.02112,0,0,0,2.67151-.92469Z"/><path class="cls-1" d="M155.016,216.68328a1.755,1.755,0,0,1,1.78127-1.71155,1.727,1.727,0,0,1,1.78127,1.6779,1.78142,1.78142,0,0,1-3.56254.03365Zm.54808,5.68757h2.43272V240.3887H155.564Z"/><path class="cls-1" d="M165.52729,231.379a8.86932,8.86932,0,0,1,9.28377-9.14594,7.86852,7.86852,0,0,1,7.05617,3.56254l-1.81573,1.234a6.12374,6.12374,0,0,0-5.24044-2.67311,6.621,6.621,0,0,0-6.81739,7.02252c0,4.24845,2.87824,7.02252,6.81739,7.02252a6.09192,6.09192,0,0,0,5.24044-2.63785l1.81573,1.234a7.94425,7.94425,0,0,1-7.05617,3.56254A8.89759,8.89759,0,0,1,165.52729,231.379Z"/><path class="cls-1" d="M221.282,233.98317c0,4.07537-3.01446,6.40553-9.00893,6.40553H201.24246V216.41085h10.34548c5.34381,0,8.42718,2.25964,8.42718,6.16513a5.56927,5.56927,0,0,1-3.66591,5.44718C219.43258,228.70747,221.282,230.72832,221.282,233.98317ZM203.77775,218.499v8.702h7.63871c3.83659,0,6.06338-1.47278,6.06338-4.351s-2.22679-4.351-6.06338-4.351Zm14.96973,15.279c0-3.117-2.2949-4.48884-6.50889-4.48884h-8.46084v9.00973h8.46084C216.45258,238.29893,218.74748,236.92872,218.74748,233.778Z"/><path class="cls-1" d="M228.56811,216.68328a1.755,1.755,0,0,1,1.78127-1.71155,1.727,1.727,0,0,1,1.78127,1.6779,1.78142,1.78142,0,0,1-3.56254.03365Zm.54808,5.68757h2.43273V240.3887h-2.43273Z"/><path class="cls-1" d="M239.07945,231.379a9.16359,9.16359,0,1,1,9.1812,9.1812A8.86338,8.86338,0,0,1,239.07945,231.379Zm15.86077,0c0-4.21319-2.843-7.02252-6.67957-7.02252s-6.71482,2.80933-6.71482,7.02252c0,4.2148,2.87824,7.02252,6.71482,7.02252S254.94022,235.59377,254.94022,231.379Z"/><path class="cls-1" d="M264.93393,214.97173h2.43272v25.417h-2.43272Z"/><path class="cls-1" d="M274.89719,231.379a9.16359,9.16359,0,1,1,9.1812,9.1812A8.86338,8.86338,0,0,1,274.89719,231.379Zm15.86077,0c0-4.21319-2.843-7.02252-6.67957-7.02252s-6.71482,2.80933-6.71482,7.02252c0,4.2148,2.87824,7.02252,6.71482,7.02252S290.758,235.59377,290.758,231.379Z"/><path class="cls-1" d="M317.43456,222.37085v15.82551c0,6.2004-3.04892,9.00973-9.00972,9.00973-3.2885,0-6.50809-.99361-8.39273-2.77568l1.234-1.84938a10.7215,10.7215,0,0,0,7.09063,2.46638c4.55534,0,6.64511-2.08977,6.64511-6.54335v-2.2949a8.1085,8.1085,0,0,1-7.02252,3.49363c-5.13788,0-9.04338-3.5962-9.04338-8.76933,0-5.17154,3.9055-8.70043,9.04338-8.70043a8.13083,8.13083,0,0,1,7.12508,3.5978v-3.46Zm-2.36381,8.56261c0-3.9039-2.87744-6.577-6.851-6.577s-6.81739,2.67311-6.81739,6.577a6.44187,6.44187,0,0,0,6.81739,6.61225C312.19331,237.54571,315.07075,234.839,315.07075,230.93346Z"/><path class="cls-1" d="M341.95088,222.37085l-9.00812,20.17653c-1.508,3.52728-3.42632,4.65871-5.99527,4.65871a6.16687,6.16687,0,0,1-4.38466-1.64425l1.13062-1.81573a4.50283,4.50283,0,0,0,3.2885,1.37021c1.60979,0,2.706-.75322,3.734-3.01446l.78767-1.74682-8.04978-17.98419h2.53449l6.78293,15.31108,6.78213-15.31108Z"/><path class="cls-1" d="M357.86613,228.39977c0-6.98886,5.34462-12.19566,12.60592-12.19566,7.194,0,12.57227,5.17314,12.57227,12.19566s-5.37827,12.19406-12.57227,12.19406C363.21075,240.59383,357.86613,235.387,357.86613,228.39977Zm22.6429,0a10.07156,10.07156,0,1,0-10.037,9.93441A9.71287,9.71287,0,0,0,380.509,228.39977Z"/><path class="cls-1" d="M409.03181,231.379c0,5.48084-3.83658,9.1812-8.97447,9.1812a7.86956,7.86956,0,0,1-6.851-3.56254v10.037h-2.43272V222.37085h2.33016v3.56255a7.84852,7.84852,0,0,1,6.9536-3.70037A8.71692,8.71692,0,0,1,409.03181,231.379Zm-2.43272,0a6.63639,6.63639,0,0,0-6.71322-7.02252c-3.83659,0-6.71483,2.84459-6.71483,7.02252,0,4.2148,2.87824,7.02252,6.71483,7.02252C403.6872,238.40149,406.59909,235.59377,406.59909,231.379Z"/><path class="cls-1" d="M432.24843,232.13379H417.17614c.274,3.76767,3.15068,6.2677,7.09143,6.2677a7.0973,7.0973,0,0,0,5.51449-2.36381l1.37021,1.57694a8.86987,8.86987,0,0,1-6.95361,2.94555c-5.61866,0-9.45524-3.83658-9.45524-9.1812,0-5.343,3.734-9.14594,8.80459-9.14594,5.069,0,8.73408,3.734,8.73408,9.14594C432.28209,231.58571,432.24843,231.85975,432.24843,232.13379Zm-15.07229-1.81573h12.7774a6.40161,6.40161,0,0,0-12.7774,0Z"/><path class="cls-1" d="M456.39135,229.94146V240.3887h-2.43272V230.18024c0-3.80133-1.9872-5.75488-5.41192-5.75488-3.87184,0-6.303,2.39907-6.303,6.5081v9.45524H439.811V222.37085h2.33015V225.693c1.3013-2.19234,3.73242-3.46,6.851-3.46C453.37689,222.233,456.39135,224.76832,456.39135,229.94146Z"/><path class="cls-1" d="M477.61436,216.41085h2.53529v21.78551h13.42644v2.19234H477.61436Z"/><path class="cls-1" d="M513.50422,229.2219v11.1668h-2.32856v-2.80933c-1.09616,1.851-3.22119,2.9808-6.20039,2.9808-4.077,0-6.577-2.12342-6.577-5.24205,0-2.77407,1.78047-5.10262,6.9536-5.10262h5.71962v-1.09617c0-3.08337-1.74681-4.76288-5.10422-4.76288a9.18,9.18,0,0,0-5.99366,2.125l-1.09617-1.81573a11.43945,11.43945,0,0,1,7.33021-2.43272C510.86636,222.233,513.50422,224.56319,513.50422,229.2219Zm-2.43273,5.75487v-2.94715h-5.65231c-3.49363,0-4.62345,1.37181-4.62345,3.22119,0,2.08977,1.67791,3.39107,4.55614,3.39107A5.76215,5.76215,0,0,0,511.07149,234.97677Z"/><path class="cls-1" d="M539.25773,229.94146V240.3887H536.825V230.18024c0-3.80133-1.98721-5.75488-5.41193-5.75488-3.87184,0-6.303,2.39907-6.303,6.5081v9.45524H522.6774V222.37085h2.33016V225.693c1.3013-2.19234,3.73242-3.46,6.851-3.46C536.24327,222.233,539.25773,224.76832,539.25773,229.94146Z"/><path class="cls-1" d="M565.17791,222.37085v15.82551c0,6.2004-3.04971,9.00973-9.00972,9.00973-3.2885,0-6.50809-.99361-8.39273-2.77568l1.234-1.84938a10.71933,10.71933,0,0,0,7.08983,2.46638c4.55614,0,6.64591-2.08977,6.64591-6.54335v-2.2949a8.10657,8.10657,0,0,1-7.02252,3.49363c-5.13788,0-9.04338-3.5962-9.04338-8.76933,0-5.17154,3.9055-8.70043,9.04338-8.70043a8.13086,8.13086,0,0,1,7.12509,3.5978v-3.46Zm-2.36381,8.56261c0-3.9039-2.87824-6.577-6.851-6.577-3.97441,0-6.81739,2.67311-6.81739,6.577a6.44143,6.44143,0,0,0,6.81739,6.61225C559.93586,237.54571,562.8141,234.839,562.8141,230.93346Z"/><path class="cls-1" d="M590.792,222.37085V240.3887h-2.33016v-3.2885a7.16529,7.16529,0,0,1-6.47443,3.46c-4.5898,0-7.60426-2.56894-7.60426-7.74208V222.37085h2.43272v10.20686c0,3.83658,1.9872,5.79013,5.41193,5.79013,3.76767,0,6.13148-2.43272,6.13148-6.54335v-9.45364Z"/><path class="cls-1" d="M613.76663,229.2219v11.1668h-2.33015v-2.80933c-1.09617,1.851-3.21959,2.9808-6.19879,2.9808-4.077,0-6.577-2.12342-6.577-5.24205,0-2.77407,1.78047-5.10262,6.95361-5.10262h5.71962v-1.09617c0-3.08337-1.74681-4.76288-5.10262-4.76288a9.1813,9.1813,0,0,0-5.99527,2.125l-1.09616-1.81573a11.43945,11.43945,0,0,1,7.33021-2.43272C611.12878,222.233,613.76663,224.56319,613.76663,229.2219Zm-2.43272,5.75487v-2.94715H605.6832c-3.49523,0-4.62505,1.37181-4.62505,3.22119,0,2.08977,1.6779,3.39107,4.55614,3.39107A5.76215,5.76215,0,0,0,611.33391,234.97677Z"/><path class="cls-1" d="M639.69,222.37085v15.82551c0,6.2004-3.04971,9.00973-9.00972,9.00973-3.2885,0-6.50809-.99361-8.39273-2.77568l1.234-1.84938a10.7224,10.7224,0,0,0,7.08983,2.46638c4.55614,0,6.64591-2.08977,6.64591-6.54335v-2.2949a8.1085,8.1085,0,0,1-7.02252,3.49363c-5.13788,0-9.04338-3.5962-9.04338-8.76933,0-5.17154,3.9055-8.70043,9.04338-8.70043a8.13086,8.13086,0,0,1,7.12509,3.5978v-3.46Zm-2.36381,8.56261c0-3.9039-2.87824-6.577-6.851-6.577-3.97441,0-6.81739,2.67311-6.81739,6.577a6.44143,6.44143,0,0,0,6.81739,6.61225C634.448,237.54571,637.32621,234.839,637.32621,230.93346Z"/><path class="cls-1" d="M664.756,232.13379h-15.0723c.274,3.76767,3.15068,6.2677,7.08983,6.2677a7.10066,7.10066,0,0,0,5.51609-2.36381l1.37021,1.57694a8.86987,8.86987,0,0,1-6.95361,2.94555c-5.61866,0-9.45524-3.83658-9.45524-9.1812,0-5.343,3.734-9.14594,8.80459-9.14594,5.069,0,8.73408,3.734,8.73408,9.14594C664.78968,231.58571,664.756,231.85975,664.756,232.13379Zm-15.0723-1.81573h12.7774a6.40161,6.40161,0,0,0-12.7774,0Z"/><path class="cls-2" d="M535.89634,134.638a51.73919,51.73919,0,0,1-19.39353-19.87986,99.2483,99.2483,0,0,1-19.17564,37.85135,89.54724,89.54724,0,0,0,19.39412,15.1654A19.14247,19.14247,0,1,0,535.89634,134.638Z"/><polygon class="cls-2" points="510.073 89.905 510.073 89.91 510.073 89.915 510.074 89.91 510.073 89.905"/><path class="cls-2" d="M323.60851,12.04682A19.14245,19.14245,0,0,0,304.4334,45.18363a51.736,51.736,0,0,1,19.38916,19.87845,99.252,99.252,0,0,1,19.17681-37.852A89.54073,89.54073,0,0,0,323.60851,12.04682Z"/><polygon class="cls-2" points="471.789 89.913 471.789 89.91 471.789 89.906 471.789 89.91 471.789 89.913"/><path class="cls-2" d="M420.16375,0a90.012,90.012,0,0,0-89.912,89.90953,51.98977,51.98977,0,0,1-25.81832,44.7271,19.14245,19.14245,0,1,0,19.17511,33.13681A89.54411,89.54411,0,0,0,342.99967,152.61a86.25722,86.25722,0,0,0,6.48005-7.23787,89.41247,89.41247,0,0,0,19.05691-55.33459,51.61568,51.61568,0,0,1,96.86244-24.97466A99.214,99.214,0,0,1,484.53993,27.2343,89.62876,89.62876,0,0,0,420.16375,0Z"/><path class="cls-2" d="M510.07349,89.90472a51.99,51.99,0,0,1,25.82042-44.72189,19.14248,19.14248,0,0,0-19.17491-33.137,90.42329,90.42329,0,0,0-25.78737,22.50507l.01382.01843A89.35819,89.35819,0,0,0,471.789,89.90472h-.0004v.00481a51.6142,51.6142,0,0,1-96.81686,24.92678,99.20583,99.20583,0,0,1-19.06814,37.85963A89.842,89.842,0,0,0,510.07349,89.90953"/><path class="cls-2" d="M419.2595,131.22553a6.81825,6.81825,0,0,1-6.81739-6.81739V56.73586a6.81739,6.81739,0,1,1,13.63478,0v67.67228A6.81825,6.81825,0,0,1,419.2595,131.22553Z"/><path class="cls-2" d="M394.732,113.34871a6.81825,6.81825,0,0,1-6.81739-6.81739V74.61267a6.81739,6.81739,0,0,1,13.63478,0v31.91865A6.81825,6.81825,0,0,1,394.732,113.34871Z"/><path class="cls-2" d="M445.59475,113.34871a6.81825,6.81825,0,0,1-6.81739-6.81739V74.61267a6.81739,6.81739,0,0,1,13.63478,0v31.91865A6.81825,6.81825,0,0,1,445.59475,113.34871Z"/><path class="cls-2" d="M214.62336,356.00266a7.26062,7.26062,0,0,1-7.443,6.93391c-3.8762,0-7.44463-3.26233-7.44463-6.93391v-57.411a7.54412,7.54412,0,0,1,7.44463-6.93391,7.26062,7.26062,0,0,1,7.443,6.93391Z"/><path class="cls-2" d="M257.047,339.89064a7.27342,7.27342,0,0,1,9.17812,3.5701c1.53051,3.16085,4.99747,6.62781,11.31917,6.62781,6.01726,0,10.1979-2.85475,10.29938-7.44464.10148-3.16085-1.32589-5.91412-8.46442-7.9537l-8.46277-2.34568c-15.49981-4.79285-18.1516-13.6632-18.1516-19.98656,0-12.54193,10.707-21.00635,24.1672-21.00635,10.09643,0,17.64254,4.38526,21.4156,11.72675a6.1731,6.1731,0,0,1-2.24421,8.25981c-3.67157,2.34568-6.9339,1.32589-9.38107-1.73348a12.41459,12.41459,0,0,0-9.99328-4.89433c-5.20043,0-9.07663,3.05937-9.07663,7.24,0,1.835.71369,5.20044,7.54611,7.13854l8.36295,2.44716c17.02867,4.89433,19.47583,14.48,19.27287,21.211-.20462,13.9693-12.84969,20.59877-25.29013,20.59877s-21.41393-6.01726-24.47331-15.09223A6.55391,6.55391,0,0,1,257.047,339.89064Z"/><path class="cls-2" d="M366.6736,363.34582c-14.48,0-27.32805-10.1979-27.32805-26.1053V298.59163a7.54375,7.54375,0,0,1,7.443-6.93391,7.26107,7.26107,0,0,1,7.44464,6.93391v38.64889c0,7.24,6.11874,12.03286,12.44044,12.03286a12.15215,12.15215,0,0,0,12.23748-12.03286V298.59163a7.26107,7.26107,0,0,1,7.44464-6.93391,7.54375,7.54375,0,0,1,7.443,6.93391v38.64889c0,15.9074-12.848,26.1053-27.32805,26.1053Z"/><path class="cls-2" d="M539.73518,349.37486h20.29266a6.36421,6.36421,0,0,1,6.11708,6.52632,6.64655,6.64655,0,0,1-6.11708,6.52633H530.76c-3.77305,0-5.91411-2.85475-5.91411-6.3217V298.59163a7.54534,7.54534,0,0,1,7.44463-6.93391,7.26107,7.26107,0,0,1,7.44464,6.93391Z"/><path class="cls-2" d="M132.72748,346.40014l-.00514.01521-16.82568-50.27251c-1.3259-3.467-5.608-5.099-9.381-3.87455a7.58612,7.58612,0,0,0-4.48677,9.27963l20.29265,54.6577a10.04,10.04,0,0,0,10.09469,6.93394h.61222a11.45164,11.45164,0,0,0,4.91208-1.01161Z"/><path class="cls-2" d="M158.92913,292.26829c-3.773-1.22443-8.0551.40758-9.381,3.87455l-13.81541,41.2781,6.71955,20.27313a13.61153,13.61153,0,0,0,.671-1.48845l20.29264-54.6577A7.5861,7.5861,0,0,0,158.92913,292.26829Z"/><path class="cls-2" d="M449.02765,297.11457a13.60511,13.60511,0,0,0-.66584,1.477l-20.29264,54.6578a7.586,7.586,0,0,0,4.48666,9.27953c3.77307,1.22442,8.0552-.40758,9.38111-3.87455l13.81089-41.26478Z"/><path class="cls-2" d="M489.45617,353.24939l-20.29265-54.6578a10.04,10.04,0,0,0-10.0948-6.93394h-.61221a11.4495,11.4495,0,0,0-4.91985,1.01465l5.226,15.70966,16.82578,50.27241c1.3259,3.467,5.60793,5.099,9.381,3.87455A7.586,7.586,0,0,0,489.45617,353.24939Z"/></g></g></svg>