<svg xmlns="http://www.w3.org/2000/svg" viewBox="0 0 779.55547 147.16462"><defs><style>.cls-1{fill:#232323;}.cls-2{fill:#fff;}</style></defs><g id="Layer_2" data-name="Layer 2"><g id="Layer_1-2" data-name="Layer 1"><path class="cls-1" d="M6.328,71.16148a10.63185,10.63185,0,0,1,13.41709,5.21789c2.23656,4.62252,7.305,9.691,16.54782,9.691,8.79683,0,14.90889-4.17431,15.05829-10.884.14941-4.62026-1.93775-8.64742-12.37351-11.62874L26.60416,60.12809C3.942,53.12187.06653,40.15073.06653,30.908.06653,12.56953,15.72017.196,35.39872.196c14.75948,0,25.79287,6.41087,31.30956,17.14545a9.02727,9.02727,0,0,1-3.28013,12.0747c-5.36729,3.42954-10.13922,1.94-13.7159-2.53311a18.149,18.149,0,0,0-14.61008-7.15563c-7.60384,0-13.26994,4.47085-13.26994,10.58517,0,2.68251,1.04357,7.60159,11.03339,10.43577L45.08972,44.325c24.8987,7.15789,28.47538,21.17034,28.17883,31.01075-.29881,20.42558-18.78664,30.11658-36.97566,30.11658-18.18675,0-31.30729-8.79683-35.78041-22.06452A9.58277,9.58277,0,0,1,6.328,71.16148Z"/><path class="cls-1" d="M97.45812,104.11c-5.51443,0-8.64516-4.32371-8.64516-9.24278V10.63178C88.9601,5.5633,91.94369,1.389,97.45812,1.389h32.50254c18.48557,0,30.41312,11.03112,30.41312,28.62478,0,6.70968-3.42954,15.20769-14.01471,19.2326,13.56876,3.42954,19.382,15.05828,19.382,23.4069,0,16.996-12.37351,31.4567-32.79909,31.4567Zm30.41539-61.72269c5.66383,0,9.54159-4.76966,9.54159-10.884,0-6.4086-3.28013-10.88172-9.691-10.88172h-16.996v21.7657ZM110.72806,59.68214V84.87738H131.749c7.305,0,11.03339-6.70967,11.03339-12.82173,0-5.81324-3.72835-12.37351-11.47934-12.37351Z"/><path class="cls-1" d="M351.5226,85.02679H381.191c4.91907,0,8.944,4.32371,8.944,9.54159,0,4.91907-4.17431,9.39219-8.944,9.5416h-42.7889c-5.5167,0-8.64743-4.17431-8.64743-9.24278v-84.086c.14941-5.36729,5.21789-10.137,10.884-10.137,5.96264,0,10.884,4.62026,10.884,10.137Z"/><path class="cls-2" d="M312.54926,78.52454a30.17573,30.17573,0,0,1-11.31083-11.59447A57.88428,57.88428,0,0,1,290.05468,89.006a52.22667,52.22667,0,0,0,11.31118,8.84488,11.16441,11.16441,0,1,0,11.1834-19.32634Z"/><polygon class="cls-2" points="297.489 52.435 297.489 52.438 297.489 52.441 297.489 52.438 297.489 52.435"/><path class="cls-2" d="M188.73725,7.026a11.16439,11.16439,0,0,0-11.18344,19.32629A30.17374,30.17374,0,0,1,188.86209,37.946a57.88633,57.88633,0,0,1,11.18444-22.07632A52.22247,52.22247,0,0,0,188.73725,7.026Z"/><polygon class="cls-2" points="275.16 52.44 275.16 52.438 275.16 52.436 275.16 52.438 275.16 52.44"/><path class="cls-2" d="M245.05089,0a52.49742,52.49742,0,0,0-52.43914,52.43767,30.32181,30.32181,0,0,1-15.05794,26.08606A11.1644,11.1644,0,1,0,188.73725,97.85a52.22465,52.22465,0,0,0,11.30945-8.84373A50.308,50.308,0,0,0,203.826,84.785a52.14781,52.14781,0,0,0,11.11451-32.27264,30.10366,30.10366,0,0,1,56.4928-14.5659,57.86441,57.86441,0,0,1,11.16346-22.06265A52.27391,52.27391,0,0,0,245.05089,0Z"/><path class="cls-2" d="M297.48868,52.43487a30.322,30.322,0,0,1,15.05917-26.083,11.16441,11.16441,0,0,0-11.18333-19.3264A52.73706,52.73706,0,0,0,286.32463,20.151l.00806.01075a52.11608,52.11608,0,0,0-11.17258,32.2731h-.00023v.0028a30.10281,30.10281,0,0,1-56.46622,14.538,57.85945,57.85945,0,0,1-11.121,22.08076,52.3983,52.3983,0,0,0,89.91607-36.61874"/><path class="cls-2" d="M244.5235,76.53428a3.97659,3.97659,0,0,1-3.97609-3.97608V33.08989a3.97609,3.97609,0,1,1,7.95218,0V72.5582A3.97659,3.97659,0,0,1,244.5235,76.53428Z"/><path class="cls-2" d="M230.21838,66.108a3.97659,3.97659,0,0,1-3.97609-3.97609V43.51613a3.97609,3.97609,0,0,1,7.95217,0V62.132A3.97659,3.97659,0,0,1,230.21838,66.108Z"/><path class="cls-2" d="M259.88293,66.108a3.97659,3.97659,0,0,1-3.97608-3.97609V43.51613a3.97608,3.97608,0,0,1,7.95217,0V62.132A3.97659,3.97659,0,0,1,259.88293,66.108Z"/><path class="cls-1" d="M1.23589,141.45922l.58266-1.14465a6.90606,6.90606,0,0,0,4.64016,1.70758c2.63139,0,3.77651-1.10518,3.77651-2.49136,0-3.85685-8.65772-1.48673-8.65772-6.68935,0-2.06845,1.607-3.85685,5.18288-3.85685a7.94133,7.94133,0,0,1,4.3587,1.24521l-.50184,1.186a7.23842,7.23842,0,0,0-3.85686-1.16533c-2.57123,0-3.71636,1.14465-3.71636,2.55056,0,3.85686,8.65772,1.52714,8.65772,6.64988,0,2.06846-1.64743,3.83618-5.243,3.83618A7.62648,7.62648,0,0,1,1.23589,141.45922Z"/><path class="cls-1" d="M24.814,132.60086l-5.283,11.83182c-.88433,2.06846-2.00924,2.73194-3.51571,2.73194a3.61634,3.61634,0,0,1-2.57124-.96421l.663-1.06477a2.64053,2.64053,0,0,0,1.92842.80351c.944,0,1.58682-.4417,2.18969-1.76773l.4619-1.02436-4.72051-10.5462h1.48626l3.97762,8.97865,3.97714-8.97865Z"/><path class="cls-1" d="M38.04705,137.04038v6.12642H36.62093v-5.9864c0-2.22915-1.16532-3.37474-3.17363-3.37474a3.46438,3.46438,0,0,0-3.69615,3.81644v5.5447H28.32456V132.60086h1.366V134.549a4.44085,4.44085,0,0,1,4.01756-2.029C36.27932,132.52,38.04705,134.00677,38.04705,137.04038Z"/><path class="cls-1" d="M48.98937,142.524a3.39784,3.39784,0,0,1-2.22963.74336,2.799,2.799,0,0,1-3.09375-3.074v-6.38768H41.778v-1.2048h1.888v-2.31H45.0921v2.31h3.21405v1.2048H45.0921v6.3078a1.69231,1.69231,0,0,0,1.82835,1.92842,2.359,2.359,0,0,0,1.56661-.54225Z"/><path class="cls-1" d="M62.806,137.04038v6.12642H61.37989v-5.9864c0-2.22915-1.16486-3.37474-3.1741-3.37474a3.46461,3.46461,0,0,0-3.69616,3.81644v5.5447H53.08352V128.2619h1.42611v6.18656A4.4661,4.4661,0,0,1,58.467,132.52C61.03828,132.52,62.806,134.00677,62.806,137.04038Z"/><path class="cls-1" d="M77.42427,138.326H68.58565a3.91078,3.91078,0,0,0,4.15805,3.67548A4.16294,4.16294,0,0,0,75.978,140.6153l.80352.92474a5.58664,5.58664,0,0,1-9.62241-3.65668A5.08916,5.08916,0,0,1,72.32174,132.52a5.035,5.035,0,0,1,5.12227,5.36332C77.444,138.00459,77.42427,138.16529,77.42427,138.326Zm-8.83862-1.06477h7.49286a3.754,3.754,0,0,0-7.49286,0Z"/><path class="cls-1" d="M87.42306,142.524a3.39872,3.39872,0,0,1-2.22963.74336,2.79918,2.79918,0,0,1-3.09375-3.074v-6.38768h-1.888v-1.2048h1.888v-2.31h1.42658v2.31h3.21405v1.2048H83.52626v6.3078a1.69218,1.69218,0,0,0,1.82787,1.92842,2.35809,2.35809,0,0,0,1.56662-.54225Z"/><path class="cls-1" d="M91.1958,129.26558a1.02918,1.02918,0,0,1,1.04457-1.00368,1.01272,1.01272,0,0,1,1.04456.98395,1.04465,1.04465,0,0,1-2.08913.01973Zm.32141,3.33528h1.42658V143.1668H91.51721Z"/><path class="cls-1" d="M97.35982,137.88336A5.2011,5.2011,0,0,1,102.804,132.52a4.61422,4.61422,0,0,1,4.13785,2.08913l-1.06477.72363a3.59106,3.59106,0,0,0-3.07308-1.56755,4.11992,4.11992,0,0,0,0,8.23622,3.57241,3.57241,0,0,0,3.07308-1.54687l1.06477.72363a4.65865,4.65865,0,0,1-4.13785,2.08912A5.21767,5.21767,0,0,1,97.35982,137.88336Z"/><path class="cls-1" d="M130.05521,139.4105c0,2.38986-1.76772,3.7563-5.283,3.7563h-6.4685v-14.061h6.06674c3.1337,0,4.94183,1.32509,4.94183,3.61533a3.26591,3.26591,0,0,1-2.14974,3.19431A3.35588,3.35588,0,0,1,130.05521,139.4105Zm-10.26474-9.08015v5.103h4.47946c2.24983,0,3.55565-.86365,3.55565-2.5515s-1.30582-2.5515-3.55565-2.5515Zm8.77848,8.95986c0-1.82787-1.34576-2.63232-3.81691-2.63232h-4.96157v5.28344H124.752C127.22319,141.94133,128.569,141.13781,128.569,139.29021Z"/><path class="cls-1" d="M134.32792,129.26558a1.02917,1.02917,0,0,1,1.04456-1.00368,1.01272,1.01272,0,0,1,1.04457.98395,1.04465,1.04465,0,0,1-2.08913.01973Zm.3214,3.33528h1.42659V143.1668h-1.42659Z"/><path class="cls-1" d="M140.49193,137.88336a5.37367,5.37367,0,1,1,5.384,5.384A5.19762,5.19762,0,0,1,140.49193,137.88336Zm9.301,0a3.93176,3.93176,0,1,0-3.917,4.11811A3.85329,3.85329,0,0,0,149.79293,137.88336Z"/><path class="cls-1" d="M155.65339,128.2619H157.08v14.9049h-1.42659Z"/><path class="cls-1" d="M161.496,137.88336a5.37367,5.37367,0,1,1,5.384,5.384A5.19762,5.19762,0,0,1,161.496,137.88336Zm9.301,0a3.93176,3.93176,0,1,0-3.917,4.11811A3.85329,3.85329,0,0,0,170.797,137.88336Z"/><path class="cls-1" d="M186.44057,132.60086v9.28032c0,3.636-1.78794,5.28344-5.28344,5.28344a7.36754,7.36754,0,0,1-4.92163-1.6277l.72363-1.0845a6.28731,6.28731,0,0,0,4.15805,1.44632c2.67133,0,3.8968-1.22548,3.8968-3.83712v-1.34577a4.75493,4.75493,0,0,1-4.11811,2.04872,5.12535,5.12535,0,1,1,0-10.24453,4.76808,4.76808,0,0,1,4.17826,2.1098v-2.029Zm-1.38618,5.02124a4.00987,4.00987,0,1,0-4.01756,3.87753A3.7782,3.7782,0,0,0,185.05439,137.6221Z"/><path class="cls-1" d="M200.81731,132.60086l-5.2825,11.83182c-.88433,2.06846-2.00925,2.73194-3.51571,2.73194a3.61634,3.61634,0,0,1-2.57124-.96421l.663-1.06477a2.64057,2.64057,0,0,0,1.92843.80351c.944,0,1.58682-.4417,2.18969-1.76773l.4619-1.02436-4.72051-10.5462h1.48626l3.97761,8.97865,3.97715-8.97865Z"/><path class="cls-1" d="M210.15026,136.13631a7.38619,7.38619,0,1,1,7.3923,7.15078A7.07712,7.07712,0,0,1,210.15026,136.13631Zm13.27814,0a5.90612,5.90612,0,1,0-5.88584,5.82569A5.69577,5.69577,0,0,0,223.4284,136.13631Z"/><path class="cls-1" d="M240.1546,137.88336a5.11721,5.11721,0,0,1-5.26277,5.384,4.61486,4.61486,0,0,1-4.01756-2.08912v5.88583h-1.42658v-14.4632h1.36644V134.69a4.6025,4.6025,0,0,1,4.0777-2.16995A5.11174,5.11174,0,0,1,240.1546,137.88336Zm-1.42659,0a3.94118,3.94118,0,1,0-3.93673,4.11811A3.89168,3.89168,0,0,0,238.728,137.88336Z"/><path class="cls-1" d="M253.76918,138.326h-8.83862a3.91063,3.91063,0,0,0,4.15852,3.67548,4.162,4.162,0,0,0,3.23378-1.38617l.80351.92474a5.58663,5.58663,0,0,1-9.6224-3.65668,5.08926,5.08926,0,0,1,5.16315-5.36332,5.03493,5.03493,0,0,1,5.1218,5.36332C253.78892,138.00459,253.76918,138.16529,253.76918,138.326Zm-8.83862-1.06477h7.49286a3.754,3.754,0,0,0-7.49286,0Z"/><path class="cls-1" d="M267.927,137.04038v6.12642h-1.42659v-5.9864c0-2.22915-1.16532-3.37474-3.17363-3.37474a3.46416,3.46416,0,0,0-3.69616,3.81644v5.5447H258.204V132.60086h1.36644V134.549a4.43927,4.43927,0,0,1,4.01756-2.029C266.15923,132.52,267.927,134.00677,267.927,137.04038Z"/><path class="cls-1" d="M280.37246,129.10582h1.48673v12.77536h7.87347v1.28562h-9.3602Z"/><path class="cls-1" d="M301.41882,136.61842v6.54838h-1.3655v-1.64743a3.96694,3.96694,0,0,1-3.636,1.748c-2.3908,0-3.85685-1.2452-3.85685-3.074,0-1.62676,1.04409-2.99226,4.0777-2.99226h3.35407v-.64281c0-1.80814-1.02436-2.793-2.9932-2.793a5.38332,5.38332,0,0,0-3.51477,1.24614l-.64281-1.06477A6.7083,6.7083,0,0,1,297.14,132.52C299.87194,132.52,301.41882,133.88648,301.41882,136.61842Zm-1.42659,3.37474v-1.72825h-3.3146c-2.04872,0-2.71126.80445-2.71126,1.889,0,1.22547.98394,1.98857,2.67179,1.98857A3.379,3.379,0,0,0,299.99223,139.99316Z"/><path class="cls-1" d="M316.52107,137.04038v6.12642h-1.42658v-5.9864c0-2.22915-1.16533-3.37474-3.17364-3.37474a3.46416,3.46416,0,0,0-3.69615,3.81644v5.5447h-1.42659V132.60086h1.36644V134.549a4.43927,4.43927,0,0,1,4.01756-2.029C314.75335,132.52,316.52107,134.00677,316.52107,137.04038Z"/><path class="cls-1" d="M331.72106,132.60086v9.28032c0,3.636-1.7884,5.28344-5.28344,5.28344a7.36753,7.36753,0,0,1-4.92162-1.6277l.72363-1.0845a6.286,6.286,0,0,0,4.15758,1.44632c2.6718,0,3.89727-1.22548,3.89727-3.83712v-1.34577a4.75381,4.75381,0,0,1-4.11812,2.04872,5.12535,5.12535,0,1,1,0-10.24453,4.76805,4.76805,0,0,1,4.17826,2.1098v-2.029Zm-1.38617,5.02124a4.00987,4.00987,0,1,0-4.01756,3.87753A3.77846,3.77846,0,0,0,330.33489,137.6221Z"/><path class="cls-1" d="M346.74156,132.60086V143.1668h-1.36644v-1.92843a4.20185,4.20185,0,0,1-3.79671,2.029c-2.69153,0-4.45925-1.50646-4.45925-4.54007v-6.12642h1.42658v5.98545c0,2.24984,1.16533,3.39543,3.17364,3.39543,2.20942,0,3.59559-1.42659,3.59559-3.83712v-5.54376Z"/><path class="cls-1" d="M360.21423,136.61842v6.54838H358.8478v-1.64743a3.96527,3.96527,0,0,1-3.63507,1.748c-2.3908,0-3.85686-1.2452-3.85686-3.074,0-1.62676,1.0441-2.99226,4.07771-2.99226h3.35407v-.64281c0-1.80814-1.02436-2.793-2.99226-2.793a5.384,5.384,0,0,0-3.51571,1.24614l-.64281-1.06477a6.7083,6.7083,0,0,1,4.29855-1.42658C358.66736,132.52,360.21423,133.88648,360.21423,136.61842Zm-1.42658,3.37474v-1.72825H355.474c-2.04966,0-2.71221.80445-2.71221,1.889,0,1.22547.98395,1.98857,2.6718,1.98857A3.379,3.379,0,0,0,358.78765,139.99316Z"/><path class="cls-1" d="M375.41611,132.60086v9.28032c0,3.636-1.7884,5.28344-5.28344,5.28344a7.36754,7.36754,0,0,1-4.92163-1.6277l.72363-1.0845a6.28786,6.28786,0,0,0,4.15759,1.44632c2.67179,0,3.89726-1.22548,3.89726-3.83712v-1.34577a4.75493,4.75493,0,0,1-4.11811,2.04872,5.12535,5.12535,0,1,1,0-10.24453,4.76808,4.76808,0,0,1,4.17826,2.1098v-2.029Zm-1.38618,5.02124a4.00987,4.00987,0,1,0-4.01756,3.87753A3.77845,3.77845,0,0,0,374.02993,137.6221Z"/><path class="cls-1" d="M390.1152,138.326h-8.83863a3.91035,3.91035,0,0,0,4.15758,3.67548,4.164,4.164,0,0,0,3.23473-1.38617l.80351.92474a5.58663,5.58663,0,0,1-9.6224-3.65668,5.08925,5.08925,0,0,1,5.16314-5.36332,5.03492,5.03492,0,0,1,5.1218,5.36332C390.13493,138.00459,390.1152,138.16529,390.1152,138.326Zm-8.83863-1.06477h7.49286a3.754,3.754,0,0,0-7.49286,0Z"/><circle class="cls-2" cx="418.16039" cy="52.72618" r="8.64742"/><path class="cls-2" d="M527.53384,73.26949a5.20547,5.20547,0,0,1-5.33621,4.97123,5.35619,5.35619,0,0,1-5.33739-4.97123V32.10893a5.40873,5.40873,0,0,1,5.33739-4.97123,5.20547,5.20547,0,0,1,5.33621,4.97123Z"/><path class="cls-2" d="M557.94923,61.71805a5.21462,5.21462,0,0,1,6.5802,2.55957,8.53743,8.53743,0,0,0,8.11523,4.75177c4.314,0,7.31134-2.0467,7.38409-5.3374.07276-2.26615-.95059-4.24009-6.06853-5.70236l-6.06733-1.68173c-11.11252-3.43621-13.0137-9.79576-13.0137-14.32926,0-8.99187,7.6763-15.0604,17.32655-15.0604,7.23858,0,12.64873,3.144,15.35381,8.40744a4.42578,4.42578,0,0,1-1.609,5.92183c-2.63232,1.68172-4.97124.95059-6.72572-1.24281a8.90056,8.90056,0,0,0-7.16463-3.509c-3.72842,0-6.50745,2.1934-6.50745,5.19069,0,1.31557.51168,3.72843,5.41015,5.11794l5.99578,1.75448c12.20861,3.509,13.9631,10.38138,13.81759,15.2071-.14671,10.01522-9.21253,14.76819-18.13164,14.76819s-15.35261-4.31405-17.546-10.8203A4.69879,4.69879,0,0,1,557.94923,61.71805Z"/><path class="cls-2" d="M636.5455,78.53413c-10.38138,0-19.59271-7.31134-19.59271-18.71607V32.10893a5.40845,5.40845,0,0,1,5.3362-4.97123,5.20578,5.20578,0,0,1,5.33739,4.97123V59.81806a8.84914,8.84914,0,0,0,17.69272,0V32.10893a5.20578,5.20578,0,0,1,5.33739-4.97123,5.40846,5.40846,0,0,1,5.33621,4.97123V59.81806c0,11.40473-9.21133,18.71607-19.59271,18.71607Z"/><path class="cls-2" d="M760.62113,68.51771h14.54873a4.56279,4.56279,0,0,1,4.38561,4.679,4.76522,4.76522,0,0,1-4.38561,4.679H754.18644c-2.70507,0-4.24009-2.0467-4.24009-4.53232V32.10893a5.40959,5.40959,0,0,1,5.33739-4.97123,5.20578,5.20578,0,0,1,5.33739,4.97123Z"/><path class="cls-2" d="M468.819,66.385l-.00368.01091L456.75222,30.35328c-.9506-2.48562-4.02066-3.65568-6.72567-2.77784a5.43883,5.43883,0,0,0-3.21676,6.653L461.3585,73.415a7.19814,7.19814,0,0,0,7.23734,4.97126h.43893a8.21026,8.21026,0,0,0,3.52169-.72527Z"/><path class="cls-2" d="M487.60413,27.57544c-2.705-.87784-5.77506.29222-6.72566,2.77784l-9.90489,29.59413,4.81755,14.53472a9.758,9.758,0,0,0,.481-1.06714L490.8209,34.22843A5.43884,5.43884,0,0,0,487.60413,27.57544Z"/><path class="cls-2" d="M695.58883,31.05a9.75246,9.75246,0,0,0-.47737,1.05894L680.56274,71.29554a5.43877,5.43877,0,0,0,3.21669,6.65291c2.70509.87785,5.77514-.29221,6.72574-2.77784L700.40682,45.586Z"/><path class="cls-2" d="M724.57385,71.29554,710.02514,32.1089a7.19817,7.19817,0,0,0-7.23742-4.97125h-.43892a8.20862,8.20862,0,0,0-3.52726.72745l3.74672,11.263,12.06316,36.04255c.9506,2.48563,4.02058,3.65569,6.72567,2.77784A5.43873,5.43873,0,0,0,724.57385,71.29554Z"/></g></g></svg>