<svg xmlns="http://www.w3.org/2000/svg" viewBox="0 0 709.96826 221.53728"><defs><style>.cls-1{fill:#232323;}.cls-2{fill:#5b4d9e;}</style></defs><g id="Layer_2" data-name="Layer 2"><g id="Layer_1-2" data-name="Layer 1"><path class="cls-1" d="M9.455,106.32679a15.88571,15.88571,0,0,1,20.0473,7.79637c3.34178,6.90679,10.91491,14.47992,24.72513,14.47992,13.14389,0,22.27628-6.23709,22.49952-16.26243.22324-6.90342-2.89531-12.92066-18.488-17.37524l-18.488-5.12429C5.89,79.37269.0994,59.99171.0994,46.18149.0994,18.78091,23.48849.29288,52.89143.29288,74.94448.29288,91.43015,9.87175,99.673,25.911c3.78487,7.34989.66633,14.47992-4.901,18.04156-8.0196,5.12429-15.14964,2.89869-20.49378-3.78487A27.11744,27.11744,0,0,0,52.44834,29.476c-11.36138,0-19.82745,6.68019-19.82745,15.816,0,4.0081,1.55927,11.358,16.48567,15.59272l18.2648,5.34415c37.20268,10.695,42.54683,31.63192,42.10374,46.33508-.44648,30.51913-28.07029,44.999-55.24763,44.999-27.174,0-46.77818-13.14389-53.46174-32.968C-1.68311,116.79523,1.88191,109.2221,9.455,106.32679Z"/><path class="cls-1" d="M145.61823,155.55719c-8.23946,0-12.91727-6.46033-12.91727-13.81022V15.8856c.21985-7.57312,4.67781-13.81021,12.91727-13.81021H194.1823c27.62043,0,45.44214,16.48228,45.44214,42.77006,0,10.02535-5.12429,22.72277-20.94026,28.73662,20.27393,5.12429,28.95986,22.49952,28.95986,34.9737,0,25.39484-18.488,47.00142-49.00716,47.00142Zm45.44552-92.2237c8.46269,0,14.25669-7.12666,14.25669-16.26244,0-9.57549-4.901-16.259-14.47993-16.259H165.44568V63.33349Zm-25.61807,25.8413v37.64578h31.40869c10.91491,0,16.48567-10.02534,16.48567-19.15774,0-8.68593-5.57076-18.488-17.152-18.488Z"/><path class="cls-1" d="M525.23176,127.04381H569.5611c7.34989,0,13.36374,6.46033,13.36374,14.25669,0,7.34989-6.23709,14.03345-13.36374,14.25669H505.62754c-8.24284,0-12.92065-6.23709-12.92065-13.81022V16.10884c.22323-8.0196,7.79636-15.14625,16.26243-15.14625,8.90916,0,16.26244,6.90341,16.26244,15.14625Z"/><path class="cls-2" d="M466.99928,117.32839a45.08731,45.08731,0,0,1-16.90022-17.324,86.48851,86.48851,0,0,1-16.71034,32.985,78.03544,78.03544,0,0,0,16.90073,13.21567,16.68143,16.68143,0,1,0,16.70983-28.87668Z"/><polygon class="cls-2" points="444.496 78.346 444.496 78.351 444.496 78.355 444.496 78.35 444.496 78.346"/><path class="cls-2" d="M282.00406,10.498a16.68142,16.68142,0,0,0-16.70988,28.87661,45.08447,45.08447,0,0,1,16.8964,17.32279,86.49179,86.49179,0,0,1,16.71136-32.98561A78.02909,78.02909,0,0,0,282.00406,10.498Z"/><polygon class="cls-2" points="411.134 78.354 411.134 78.35 411.134 78.347 411.134 78.351 411.134 78.354"/><path class="cls-2" d="M366.14576,0a78.43966,78.43966,0,0,0-78.35257,78.35039,45.30577,45.30577,0,0,1-22.499,38.97679,16.68142,16.68142,0,1,0,16.70988,28.87661,78.03241,78.03241,0,0,0,16.89815-13.214,75.167,75.167,0,0,0,5.64694-6.30733A77.91721,77.91721,0,0,0,321.156,78.46194a44.97975,44.97975,0,0,1,84.4094-21.76382,86.45874,86.45874,0,0,1,16.68-32.96517A78.10567,78.10567,0,0,0,366.14576,0Z"/><path class="cls-2" d="M444.49632,78.3462a45.306,45.306,0,0,1,22.50084-38.97226,16.68145,16.68145,0,0,0-16.7097-28.87678,78.79756,78.79756,0,0,0-22.472,19.61173l.012.01606A77.87,77.87,0,0,0,411.13382,78.3462h-.00035v.00419a44.97846,44.97846,0,0,1-84.36968,21.72209,86.45155,86.45155,0,0,1-16.61666,32.99223A78.29155,78.29155,0,0,0,444.49632,78.35039"/><path class="cls-2" d="M365.35775,114.35463a5.94166,5.94166,0,0,1-5.94091-5.94092v-58.972a5.94091,5.94091,0,1,1,11.88183,0v58.97205A5.94166,5.94166,0,0,1,365.35775,114.35463Z"/><path class="cls-2" d="M343.98358,98.77613a5.94167,5.94167,0,0,1-5.94092-5.94092v-27.815a5.94092,5.94092,0,1,1,11.88184,0V92.83521A5.94167,5.94167,0,0,1,343.98358,98.77613Z"/><path class="cls-2" d="M388.30724,98.77613a5.94166,5.94166,0,0,1-5.94092-5.94092v-27.815a5.94091,5.94091,0,1,1,11.88183,0V92.83521A5.94166,5.94166,0,0,1,388.30724,98.77613Z"/><path class="cls-2" d="M642.63367,119.24989l-.01116.033L606.12813,10.24334C603.25228,2.72359,593.96447-.81619,585.781,1.83956c-7.96359,2.6521-12.3874,12.60749-9.73166,20.12724l44.01414,118.55089c3.53614,9.28782,10.61569,15.0395,21.89509,15.0395h1.32787A24.83826,24.83826,0,0,0,653.9406,153.363Z"/><path class="cls-2" d="M699.46425,1.83956c-8.18346-2.65575-17.47128.884-20.34712,8.40378L649.15194,99.77429l14.57449,43.97181a29.52042,29.52042,0,0,0,1.45533-3.22841L709.1959,21.9668C711.85164,14.44705,707.42783,4.49166,699.46425,1.83956Z"/><path class="cls-1" d="M3.99623,211.18022l1.05772-2.0779a12.53662,12.53662,0,0,0,8.42333,3.09978c4.77677,0,6.85552-2.00624,6.85552-4.52258,0-7.00138-15.71644-2.69887-15.71644-12.14324,0-3.75488,2.91725-7.00138,9.40854-7.00138a14.416,14.416,0,0,1,7.91238,2.26044l-.911,2.153a13.13992,13.13992,0,0,0-7.00138-2.11543c-4.66759,0-6.74634,2.0779-6.74634,4.63006,0,7.00138,15.71643,2.77223,15.71643,12.07158,0,3.75489-2.9906,6.96386-9.51771,6.96386C9.649,214.49837,5.89244,213.14893,3.99623,211.18022Z"/><path class="cls-1" d="M46.79782,195.09955,37.2076,216.578c-1.60534,3.75488-3.64741,4.95931-6.38211,4.95931a6.56482,6.56482,0,0,1-4.66759-1.75034l1.20358-1.93289a4.79337,4.79337,0,0,0,3.50069,1.45862c1.71367,0,2.88056-.80181,3.975-3.209l.83849-1.85953-8.56919-19.14462h2.698l7.22061,16.299,7.21975-16.299Z"/><path class="cls-1" d="M70.81987,203.15865V214.28H68.231V203.41284c0-4.04661-2.11543-6.12621-5.76113-6.12621-4.12082,0-6.70966,2.55387-6.70966,6.928V214.28H53.17055V195.09955h2.47966v3.53652c1.38611-2.3338,3.975-3.68323,7.29311-3.68323C67.6109,194.95284,70.81987,197.65171,70.81987,203.15865Z"/><path class="cls-1" d="M90.68357,213.1131a6.16811,6.16811,0,0,1-4.04746,1.34944c-3.61073,0-5.61612-2.04207-5.61612-5.58029V197.28663H77.59265v-2.18708H81.02v-4.19332h2.58884v4.19332h5.83448v2.18708H83.60883v11.45061c0,2.26043,1.1669,3.50069,3.319,3.50069a4.28216,4.28216,0,0,0,2.84389-.98436Z"/><path class="cls-1" d="M115.765,203.15865V214.28H113.1762V203.41284c0-4.04661-2.11458-6.12621-5.762-6.12621-4.12,0-6.70966,2.55387-6.70966,6.928V214.28H98.11572V187.223h2.58884v11.23054c1.42279-2.22461,3.93913-3.50069,7.18392-3.50069C112.55607,194.95284,115.765,197.65171,115.765,203.15865Z"/><path class="cls-1" d="M142.30172,205.49244H126.25688c.29172,4.01079,3.35483,6.67213,7.54815,6.67213a7.557,7.557,0,0,0,5.87117-2.51633l1.45862,1.67869a9.44222,9.44222,0,0,1-7.40229,3.13561c-5.9812,0-10.06535-4.08414-10.06535-9.77362,0-5.68777,3.975-9.73608,9.37186-9.73608s9.2985,3.97495,9.2985,9.73608C142.33754,204.909,142.30172,205.20072,142.30172,205.49244Zm-16.04484-1.93288h13.60186a6.81467,6.81467,0,0,0-13.60186,0Z"/><path class="cls-1" d="M160.4526,213.1131a6.16971,6.16971,0,0,1-4.04746,1.34944c-3.60988,0-5.61612-2.04207-5.61612-5.58029V197.28663h-3.42734v-2.18708H150.789v-4.19332h2.58969v4.19332h5.83449v2.18708h-5.83449v11.45061c0,2.26043,1.1669,3.50069,3.31815,3.50069a4.28057,4.28057,0,0,0,2.84389-.98436Z"/><path class="cls-1" d="M167.3013,189.045a1.86828,1.86828,0,0,1,1.8962-1.822,1.83842,1.83842,0,0,1,1.89621,1.78618,1.89637,1.89637,0,0,1-3.79241.03582Zm.58345,6.05456h2.58969V214.28h-2.58969Z"/><path class="cls-1" d="M178.49089,204.68892c0-5.7253,4.15749-9.73608,9.8828-9.73608,3.24479,0,5.98035,1.27608,7.51147,3.79241l-1.93288,1.31361a6.51891,6.51891,0,0,0-5.57859-2.84559c-4.19333,0-7.25728,2.9906-7.25728,7.47565,0,4.52258,3.064,7.47565,7.25728,7.47565a6.485,6.485,0,0,0,5.57859-2.80806l1.93288,1.31361a8.45682,8.45682,0,0,1-7.51147,3.79242A9.4717,9.4717,0,0,1,178.49089,204.68892Z"/><path class="cls-1" d="M237.84314,207.46116c0,4.33833-3.209,6.81884-9.59022,6.81884H216.51058V188.755h11.013c5.68863,0,8.971,2.40545,8.971,6.563a5.92864,5.92864,0,0,1-3.90245,5.79866C235.87443,201.845,237.84314,203.99629,237.84314,207.46116Zm-18.63368-16.48328v9.26353h8.1316c4.08414,0,6.45462-1.56781,6.45462-4.63177s-2.37048-4.63176-6.45462-4.63176Zm15.93566,16.26491c0-3.31815-2.443-4.77848-6.92888-4.77848h-9.00678v9.59108h9.00678C232.70214,212.05539,235.14512,210.59677,235.14512,207.24279Z"/><path class="cls-1" d="M245.59942,189.045a1.86829,1.86829,0,0,1,1.89621-1.822,1.83842,1.83842,0,0,1,1.89621,1.78618,1.89637,1.89637,0,0,1-3.79242.03582Zm.58345,6.05456h2.5897V214.28h-2.5897Z"/><path class="cls-1" d="M256.789,204.68892a9.75487,9.75487,0,1,1,9.77362,9.77362A9.43529,9.43529,0,0,1,256.789,204.68892Zm16.88419,0c0-4.48505-3.02643-7.47565-7.11057-7.47565s-7.1481,2.9906-7.1481,7.47565c0,4.48676,3.064,7.47565,7.1481,7.47565S273.6732,209.17568,273.6732,204.68892Z"/><path class="cls-1" d="M284.31175,187.223h2.5897V214.28h-2.5897Z"/><path class="cls-1" d="M294.9179,204.68892a9.75487,9.75487,0,1,1,9.77361,9.77362A9.43528,9.43528,0,0,1,294.9179,204.68892Zm16.88418,0c0-4.48505-3.02643-7.47565-7.11057-7.47565s-7.1481,2.9906-7.1481,7.47565c0,4.48676,3.064,7.47565,7.1481,7.47565S311.80208,209.17568,311.80208,204.68892Z"/><path class="cls-1" d="M340.2,195.09955V211.9462c0,6.60048-3.24564,9.59108-9.59107,9.59108-3.50069,0-6.928-1.05771-8.93427-2.95477l1.31361-1.96872a11.4133,11.4133,0,0,0,7.54815,2.62552c4.84928,0,7.07389-2.22461,7.07389-6.96556v-2.443a8.63171,8.63171,0,0,1-7.47565,3.71906c-5.4694,0-9.6269-3.82825-9.6269-9.33518,0-5.50523,4.1575-9.26182,9.6269-9.26182a8.65549,8.65549,0,0,1,7.58483,3.82994v-3.68323Zm-2.51633,9.11511c0-4.1558-3.06311-7.00139-7.29311-7.00139s-7.25728,2.84559-7.25728,7.00139c0,4.1575,3.02728,7.03891,7.25728,7.03891S337.68366,208.37216,337.68366,204.21466Z"/><path class="cls-1" d="M366.29823,195.09955,356.70886,216.578c-1.60533,3.75488-3.64741,4.95931-6.38211,4.95931a6.56482,6.56482,0,0,1-4.66759-1.75034l1.20358-1.93289a4.79339,4.79339,0,0,0,3.50069,1.45862c1.71367,0,2.88057-.80181,3.975-3.209l.83849-1.85953-8.56919-19.14462h2.698l7.2206,16.299,7.21975-16.299Z"/><path class="cls-1" d="M383.24042,201.51749c0-7.43983,5.68948-12.98259,13.41932-12.98259,7.65819,0,13.38349,5.50694,13.38349,12.98259s-5.7253,12.98088-13.38349,12.98088C388.9299,214.49837,383.24042,208.9556,383.24042,201.51749Zm24.10394,0a10.72144,10.72144,0,1,0-10.68462,10.57543A10.33959,10.33959,0,0,0,407.34436,201.51749Z"/><path class="cls-1" d="M437.70757,204.68892c0,5.83449-4.08414,9.77362-9.55354,9.77362a8.37733,8.37733,0,0,1-7.29311-3.79242v10.68462h-2.58969V195.09955h2.48051V198.892a8.355,8.355,0,0,1,7.40229-3.93913C433.62343,194.95284,437.70757,198.892,437.70757,204.68892Zm-2.58969,0c0-4.44751-3.09979-7.47565-7.14639-7.47565-4.08414,0-7.1481,3.02814-7.1481,7.47565,0,4.48676,3.064,7.47565,7.1481,7.47565C432.01809,212.16457,435.11788,209.17568,435.11788,204.68892Z"/><path class="cls-1" d="M462.42225,205.49244H446.37741c.29173,4.01079,3.354,6.67213,7.549,6.67213a7.55523,7.55523,0,0,0,5.87031-2.51633l1.45863,1.67869a9.44224,9.44224,0,0,1-7.4023,3.13561c-5.9812,0-10.06534-4.08414-10.06534-9.77362,0-5.68777,3.975-9.73608,9.37271-9.73608,5.39605,0,9.29765,3.97495,9.29765,9.73608C462.45808,204.909,462.42225,205.20072,462.42225,205.49244Zm-16.04484-1.93288h13.60186a6.81467,6.81467,0,0,0-13.60186,0Z"/><path class="cls-1" d="M488.123,203.15865V214.28h-2.5897V203.41284c0-4.04661-2.11543-6.12621-5.76113-6.12621-4.12167,0-6.70966,2.55387-6.70966,6.928V214.28h-2.58969V195.09955h2.48051v3.53652c1.38526-2.3338,3.97325-3.68323,7.29311-3.68323C484.914,194.95284,488.123,197.65171,488.123,203.15865Z"/><path class="cls-1" d="M510.71542,188.755h2.69888V211.9462h14.29279V214.28H510.71542Z"/><path class="cls-1" d="M548.92108,202.39266V214.28h-2.47881v-2.9906c-1.1669,1.97042-3.429,3.17314-6.60047,3.17314-4.34,0-7.00139-2.26044-7.00139-5.58029,0-2.95307,1.89536-5.43188,7.40229-5.43188h6.08868v-1.16689c0-3.28233-1.85953-5.07021-5.43358-5.07021a9.77237,9.77237,0,0,0-6.3804,2.26215l-1.1669-1.93289a12.17759,12.17759,0,0,1,7.8032-2.58969C546.113,194.95284,548.92108,197.43335,548.92108,202.39266Zm-2.5897,6.12621v-3.13732h-6.017c-3.71905,0-4.92178,1.46033-4.92178,3.429,0,2.22462,1.78617,3.60988,4.85013,3.60988A6.13394,6.13394,0,0,0,546.33138,208.51887Z"/><path class="cls-1" d="M576.33634,203.15865V214.28h-2.5897V203.41284c0-4.04661-2.11542-6.12621-5.76112-6.12621-4.12168,0-6.70966,2.55387-6.70966,6.928V214.28h-2.5897V195.09955h2.48051v3.53652c1.38527-2.3338,3.97325-3.68323,7.29311-3.68323C573.12737,194.95284,576.33634,197.65171,576.33634,203.15865Z"/><path class="cls-1" d="M603.929,195.09955V211.9462c0,6.60048-3.2465,9.59108-9.59107,9.59108-3.50069,0-6.928-1.05771-8.93427-2.95477l1.31361-1.96872a11.411,11.411,0,0,0,7.5473,2.62552c4.85013,0,7.07474-2.22461,7.07474-6.96556v-2.443a8.62967,8.62967,0,0,1-7.47565,3.71906c-5.4694,0-9.6269-3.82825-9.6269-9.33518,0-5.50523,4.1575-9.26182,9.6269-9.26182a8.65549,8.65549,0,0,1,7.58483,3.82994v-3.68323Zm-2.51633,9.11511c0-4.1558-3.064-7.00139-7.29311-7.00139-4.23086,0-7.25728,2.84559-7.25728,7.00139,0,4.1575,3.02642,7.03891,7.25728,7.03891C598.34873,211.25357,601.41269,208.37216,601.41269,204.21466Z"/><path class="cls-1" d="M631.19587,195.09955V214.28h-2.48051v-3.50069a7.62767,7.62767,0,0,1-6.8922,3.68323c-4.886,0-8.09493-2.7347-8.09493-8.24164V195.09955h2.5897V205.965c0,4.08414,2.11542,6.16375,5.76112,6.16375,4.01079,0,6.52712-2.5897,6.52712-6.96556V195.09955Z"/><path class="cls-1" d="M655.65294,202.39266V214.28h-2.48051v-2.9906c-1.1669,1.97042-3.42733,3.17314-6.59877,3.17314-4.34,0-7.00138-2.26044-7.00138-5.58029,0-2.95307,1.89535-5.43188,7.40229-5.43188h6.08868v-1.16689c0-3.28233-1.85953-5.07021-5.43187-5.07021a9.77367,9.77367,0,0,0-6.38211,2.26215l-1.1669-1.93289a12.17759,12.17759,0,0,1,7.8032-2.58969C652.84488,194.95284,655.65294,197.43335,655.65294,202.39266Zm-2.58969,6.12621v-3.13732h-6.01532c-3.72077,0-4.92349,1.46033-4.92349,3.429,0,2.22462,1.78617,3.60988,4.85013,3.60988A6.134,6.134,0,0,0,653.06325,208.51887Z"/><path class="cls-1" d="M683.249,195.09955V211.9462c0,6.60048-3.2465,9.59108-9.59108,9.59108-3.50069,0-6.928-1.05771-8.93427-2.95477l1.31361-1.96872a11.41428,11.41428,0,0,0,7.54731,2.62552c4.85013,0,7.07474-2.22461,7.07474-6.96556v-2.443a8.63172,8.63172,0,0,1-7.47565,3.71906c-5.46941,0-9.62691-3.82825-9.62691-9.33518,0-5.50523,4.1575-9.26182,9.62691-9.26182a8.65549,8.65549,0,0,1,7.58483,3.82994v-3.68323Zm-2.51634,9.11511c0-4.1558-3.06395-7.00139-7.2931-7.00139-4.23086,0-7.25729,2.84559-7.25729,7.00139,0,4.1575,3.02643,7.03891,7.25729,7.03891C677.66875,211.25357,680.7327,208.37216,680.7327,204.21466Z"/><path class="cls-1" d="M709.93243,205.49244H693.88759c.29173,4.01079,3.354,6.67213,7.54731,6.67213a7.55882,7.55882,0,0,0,5.872-2.51633l1.45863,1.67869a9.44223,9.44223,0,0,1-7.4023,3.13561c-5.9812,0-10.06534-4.08414-10.06534-9.77362,0-5.68777,3.975-9.73608,9.37271-9.73608,5.396,0,9.29765,3.97495,9.29765,9.73608C709.96826,204.909,709.93243,205.20072,709.93243,205.49244Zm-16.04484-1.93288h13.60186a6.81467,6.81467,0,0,0-13.60186,0Z"/></g></g></svg>