<svg xmlns="http://www.w3.org/2000/svg" viewBox="0 0 779.55547 105.45237"><defs><style>.cls-1{fill:#232323;}.cls-2{fill:#fff;}</style></defs><g id="Layer_2" data-name="Layer 2"><g id="Layer_1-2" data-name="Layer 1"><path class="cls-1" d="M6.328,71.16148a10.63185,10.63185,0,0,1,13.41709,5.21789c2.23656,4.62252,7.305,9.691,16.54782,9.691,8.79683,0,14.90889-4.17431,15.05829-10.884.14941-4.62026-1.93775-8.64742-12.37351-11.62874L26.60416,60.12809C3.942,53.12187.06653,40.15073.06653,30.908.06653,12.56953,15.72017.196,35.39872.196c14.75948,0,25.79287,6.41087,31.30956,17.14545a9.02727,9.02727,0,0,1-3.28013,12.0747c-5.36729,3.42954-10.13922,1.94-13.7159-2.53311a18.149,18.149,0,0,0-14.61008-7.15563c-7.60384,0-13.26994,4.47085-13.26994,10.58517,0,2.68251,1.04357,7.60159,11.03339,10.43577L45.08972,44.325c24.8987,7.15789,28.47538,21.17034,28.17883,31.01075-.29881,20.42558-18.78664,30.11658-36.97566,30.11658-18.18675,0-31.30729-8.79683-35.78041-22.06452A9.58277,9.58277,0,0,1,6.328,71.16148Z"/><path class="cls-1" d="M97.45812,104.11c-5.51443,0-8.64516-4.32371-8.64516-9.24278V10.63178C88.9601,5.5633,91.94369,1.389,97.45812,1.389h32.50254c18.48557,0,30.41312,11.03112,30.41312,28.62478,0,6.70968-3.42954,15.20769-14.01471,19.2326,13.56876,3.42954,19.382,15.05828,19.382,23.4069,0,16.996-12.37351,31.4567-32.79909,31.4567Zm30.41539-61.72269c5.66383,0,9.54159-4.76966,9.54159-10.884,0-6.4086-3.28013-10.88172-9.691-10.88172h-16.996v21.7657ZM110.72806,59.68214V84.87738H131.749c7.305,0,11.03339-6.70967,11.03339-12.82173,0-5.81324-3.72835-12.37351-11.47934-12.37351Z"/><path class="cls-1" d="M351.5226,85.02679H381.191c4.91907,0,8.944,4.32371,8.944,9.54159,0,4.91907-4.17431,9.39219-8.944,9.5416h-42.7889c-5.5167,0-8.64743-4.17431-8.64743-9.24278v-84.086c.14941-5.36729,5.21789-10.137,10.884-10.137,5.96264,0,10.884,4.62026,10.884,10.137Z"/><path class="cls-2" d="M312.54926,78.52454a30.17573,30.17573,0,0,1-11.31083-11.59447A57.88428,57.88428,0,0,1,290.05468,89.006a52.22667,52.22667,0,0,0,11.31118,8.84488,11.16441,11.16441,0,1,0,11.1834-19.32634Z"/><polygon class="cls-2" points="297.489 52.435 297.489 52.438 297.489 52.441 297.489 52.438 297.489 52.435"/><path class="cls-2" d="M188.73725,7.026a11.16439,11.16439,0,0,0-11.18344,19.32629A30.17374,30.17374,0,0,1,188.86209,37.946a57.88633,57.88633,0,0,1,11.18444-22.07632A52.22247,52.22247,0,0,0,188.73725,7.026Z"/><polygon class="cls-2" points="275.16 52.44 275.16 52.438 275.16 52.436 275.16 52.438 275.16 52.44"/><path class="cls-2" d="M245.05089,0a52.49742,52.49742,0,0,0-52.43914,52.43767,30.32181,30.32181,0,0,1-15.05794,26.08606A11.1644,11.1644,0,1,0,188.73725,97.85a52.22465,52.22465,0,0,0,11.30945-8.84373A50.308,50.308,0,0,0,203.826,84.785a52.14781,52.14781,0,0,0,11.11451-32.27264,30.10366,30.10366,0,0,1,56.4928-14.5659,57.86441,57.86441,0,0,1,11.16346-22.06265A52.27391,52.27391,0,0,0,245.05089,0Z"/><path class="cls-2" d="M297.48868,52.43487a30.322,30.322,0,0,1,15.05917-26.083,11.16441,11.16441,0,0,0-11.18333-19.3264A52.73706,52.73706,0,0,0,286.32463,20.151l.00806.01075a52.11608,52.11608,0,0,0-11.17258,32.2731h-.00023v.0028a30.10281,30.10281,0,0,1-56.46622,14.538,57.85945,57.85945,0,0,1-11.121,22.08076,52.3983,52.3983,0,0,0,89.91607-36.61874"/><path class="cls-2" d="M244.5235,76.53428a3.97659,3.97659,0,0,1-3.97609-3.97608V33.08989a3.97609,3.97609,0,1,1,7.95218,0V72.5582A3.97659,3.97659,0,0,1,244.5235,76.53428Z"/><path class="cls-2" d="M230.21838,66.108a3.97659,3.97659,0,0,1-3.97609-3.97609V43.51613a3.97609,3.97609,0,0,1,7.95217,0V62.132A3.97659,3.97659,0,0,1,230.21838,66.108Z"/><path class="cls-2" d="M259.88293,66.108a3.97659,3.97659,0,0,1-3.97608-3.97609V43.51613a3.97608,3.97608,0,0,1,7.95217,0V62.132A3.97659,3.97659,0,0,1,259.88293,66.108Z"/><circle class="cls-2" cx="418.16039" cy="52.72618" r="8.64742"/><path class="cls-2" d="M527.53384,73.26949a5.20547,5.20547,0,0,1-5.33621,4.97123,5.35619,5.35619,0,0,1-5.33739-4.97123V32.10893a5.40873,5.40873,0,0,1,5.33739-4.97123,5.20547,5.20547,0,0,1,5.33621,4.97123Z"/><path class="cls-2" d="M557.94923,61.71805a5.21462,5.21462,0,0,1,6.5802,2.55957,8.53743,8.53743,0,0,0,8.11523,4.75177c4.314,0,7.31134-2.0467,7.38409-5.3374.07276-2.26615-.95059-4.24009-6.06853-5.70236l-6.06733-1.68173c-11.11252-3.43621-13.0137-9.79576-13.0137-14.32926,0-8.99187,7.6763-15.0604,17.32655-15.0604,7.23858,0,12.64873,3.144,15.35381,8.40744a4.42578,4.42578,0,0,1-1.609,5.92183c-2.63232,1.68172-4.97124.95059-6.72572-1.24281a8.90056,8.90056,0,0,0-7.16463-3.509c-3.72842,0-6.50745,2.1934-6.50745,5.19069,0,1.31557.51168,3.72843,5.41015,5.11794l5.99578,1.75448c12.20861,3.509,13.9631,10.38138,13.81759,15.2071-.14671,10.01522-9.21253,14.76819-18.13164,14.76819s-15.35261-4.31405-17.546-10.8203A4.69879,4.69879,0,0,1,557.94923,61.71805Z"/><path class="cls-2" d="M636.5455,78.53413c-10.38138,0-19.59271-7.31134-19.59271-18.71607V32.10893a5.40845,5.40845,0,0,1,5.3362-4.97123,5.20578,5.20578,0,0,1,5.33739,4.97123V59.81806a8.84914,8.84914,0,0,0,17.69272,0V32.10893a5.20578,5.20578,0,0,1,5.33739-4.97123,5.40846,5.40846,0,0,1,5.33621,4.97123V59.81806c0,11.40473-9.21133,18.71607-19.59271,18.71607Z"/><path class="cls-2" d="M760.62113,68.51771h14.54873a4.56279,4.56279,0,0,1,4.38561,4.679,4.76522,4.76522,0,0,1-4.38561,4.679H754.18644c-2.70507,0-4.24009-2.0467-4.24009-4.53232V32.10893a5.40959,5.40959,0,0,1,5.33739-4.97123,5.20578,5.20578,0,0,1,5.33739,4.97123Z"/><path class="cls-2" d="M468.819,66.385l-.00368.01091L456.75222,30.35328c-.9506-2.48562-4.02066-3.65568-6.72567-2.77784a5.43883,5.43883,0,0,0-3.21676,6.653L461.3585,73.415a7.19814,7.19814,0,0,0,7.23734,4.97126h.43893a8.21026,8.21026,0,0,0,3.52169-.72527Z"/><path class="cls-2" d="M487.60413,27.57544c-2.705-.87784-5.77506.29222-6.72566,2.77784l-9.90489,29.59413,4.81755,14.53472a9.758,9.758,0,0,0,.481-1.06714L490.8209,34.22843A5.43884,5.43884,0,0,0,487.60413,27.57544Z"/><path class="cls-2" d="M695.58883,31.05a9.75246,9.75246,0,0,0-.47737,1.05894L680.56274,71.29554a5.43877,5.43877,0,0,0,3.21669,6.65291c2.70509.87785,5.77514-.29221,6.72574-2.77784L700.40682,45.586Z"/><path class="cls-2" d="M724.57385,71.29554,710.02514,32.1089a7.19817,7.19817,0,0,0-7.23742-4.97125h-.43892a8.20862,8.20862,0,0,0-3.52726.72745l3.74672,11.263,12.06316,36.04255c.9506,2.48563,4.02058,3.65569,6.72567,2.77784A5.43873,5.43873,0,0,0,724.57385,71.29554Z"/></g></g></svg>