<svg xmlns="http://www.w3.org/2000/svg" viewBox="0 0 709.96826 157.56293"><defs><style>.cls-1{fill:#232323;}.cls-2{fill:#fff;}</style></defs><g id="Layer_2" data-name="Layer 2"><g id="Layer_1-2" data-name="Layer 1"><path class="cls-1" d="M9.455,106.32679a15.88571,15.88571,0,0,1,20.0473,7.79637c3.34178,6.90679,10.91491,14.47992,24.72513,14.47992,13.14389,0,22.27628-6.23709,22.49952-16.26243.22324-6.90342-2.89531-12.92066-18.488-17.37524l-18.488-5.12429C5.89,79.37269.0994,59.99171.0994,46.18149.0994,18.78091,23.48849.29288,52.89143.29288,74.94448.29288,91.43015,9.87175,99.673,25.911c3.78487,7.34989.66633,14.47992-4.901,18.04156-8.0196,5.12429-15.14964,2.89869-20.49378-3.78487A27.11744,27.11744,0,0,0,52.44834,29.476c-11.36138,0-19.82745,6.68019-19.82745,15.816,0,4.0081,1.55927,11.358,16.48567,15.59272l18.2648,5.34415c37.20268,10.695,42.54683,31.63192,42.10374,46.33508-.44648,30.51913-28.07029,44.999-55.24763,44.999-27.174,0-46.77818-13.14389-53.46174-32.968C-1.68311,116.79523,1.88191,109.2221,9.455,106.32679Z"/><path class="cls-1" d="M145.61823,155.55719c-8.23946,0-12.91727-6.46033-12.91727-13.81022V15.8856c.21985-7.57312,4.67781-13.81021,12.91727-13.81021H194.1823c27.62043,0,45.44214,16.48228,45.44214,42.77006,0,10.02535-5.12429,22.72277-20.94026,28.73662,20.27393,5.12429,28.95986,22.49952,28.95986,34.9737,0,25.39484-18.488,47.00142-49.00716,47.00142Zm45.44552-92.2237c8.46269,0,14.25669-7.12666,14.25669-16.26244,0-9.57549-4.901-16.259-14.47993-16.259H165.44568V63.33349Zm-25.61807,25.8413v37.64578h31.40869c10.91491,0,16.48567-10.02534,16.48567-19.15774,0-8.68593-5.57076-18.488-17.152-18.488Z"/><path class="cls-1" d="M525.23176,127.04381H569.5611c7.34989,0,13.36374,6.46033,13.36374,14.25669,0,7.34989-6.23709,14.03345-13.36374,14.25669H505.62754c-8.24284,0-12.92065-6.23709-12.92065-13.81022V16.10884c.22323-8.0196,7.79636-15.14625,16.26243-15.14625,8.90916,0,16.26244,6.90341,16.26244,15.14625Z"/><path class="cls-2" d="M466.99928,117.32839a45.08731,45.08731,0,0,1-16.90022-17.324,86.48851,86.48851,0,0,1-16.71034,32.985,78.03544,78.03544,0,0,0,16.90073,13.21567,16.68143,16.68143,0,1,0,16.70983-28.87668Z"/><polygon class="cls-2" points="444.496 78.346 444.496 78.351 444.496 78.355 444.496 78.35 444.496 78.346"/><path class="cls-2" d="M282.00406,10.498a16.68142,16.68142,0,0,0-16.70988,28.87661,45.08447,45.08447,0,0,1,16.8964,17.32279,86.49179,86.49179,0,0,1,16.71136-32.98561A78.02909,78.02909,0,0,0,282.00406,10.498Z"/><polygon class="cls-2" points="411.134 78.354 411.134 78.35 411.134 78.347 411.134 78.351 411.134 78.354"/><path class="cls-2" d="M366.14576,0a78.43966,78.43966,0,0,0-78.35257,78.35039,45.30577,45.30577,0,0,1-22.499,38.97679,16.68142,16.68142,0,1,0,16.70988,28.87661,78.03241,78.03241,0,0,0,16.89815-13.214,75.167,75.167,0,0,0,5.64694-6.30733A77.91721,77.91721,0,0,0,321.156,78.46194a44.97975,44.97975,0,0,1,84.4094-21.76382,86.45874,86.45874,0,0,1,16.68-32.96517A78.10567,78.10567,0,0,0,366.14576,0Z"/><path class="cls-2" d="M444.49632,78.3462a45.306,45.306,0,0,1,22.50084-38.97226,16.68145,16.68145,0,0,0-16.7097-28.87678,78.79756,78.79756,0,0,0-22.472,19.61173l.012.01606A77.87,77.87,0,0,0,411.13382,78.3462h-.00035v.00419a44.97846,44.97846,0,0,1-84.36968,21.72209,86.45155,86.45155,0,0,1-16.61666,32.99223A78.29155,78.29155,0,0,0,444.49632,78.35039"/><path class="cls-2" d="M365.35775,114.35463a5.94166,5.94166,0,0,1-5.94091-5.94092v-58.972a5.94091,5.94091,0,1,1,11.88183,0v58.97205A5.94166,5.94166,0,0,1,365.35775,114.35463Z"/><path class="cls-2" d="M343.98358,98.77613a5.94167,5.94167,0,0,1-5.94092-5.94092v-27.815a5.94092,5.94092,0,1,1,11.88184,0V92.83521A5.94167,5.94167,0,0,1,343.98358,98.77613Z"/><path class="cls-2" d="M388.30724,98.77613a5.94166,5.94166,0,0,1-5.94092-5.94092v-27.815a5.94091,5.94091,0,1,1,11.88183,0V92.83521A5.94166,5.94166,0,0,1,388.30724,98.77613Z"/><path class="cls-2" d="M642.63367,119.24989l-.01116.033L606.12813,10.24334C603.25228,2.72359,593.96447-.81619,585.781,1.83956c-7.96359,2.6521-12.3874,12.60749-9.73166,20.12724l44.01414,118.55089c3.53614,9.28782,10.61569,15.0395,21.89509,15.0395h1.32787A24.83826,24.83826,0,0,0,653.9406,153.363Z"/><path class="cls-2" d="M699.46425,1.83956c-8.18346-2.65575-17.47128.884-20.34712,8.40378L649.15194,99.77429l14.57449,43.97181a29.52042,29.52042,0,0,0,1.45533-3.22841L709.1959,21.9668C711.85164,14.44705,707.42783,4.49166,699.46425,1.83956Z"/></g></g></svg>