<?xml version="1.0" encoding="UTF-8" standalone="no"?>
<!-- Generator: Adobe Illustrator 16.0.0, SVG Export Plug-In . SVG Version: 6.00 Build 0)  -->

<svg
   xmlns:dc="http://purl.org/dc/elements/1.1/"
   xmlns:cc="http://creativecommons.org/ns#"
   xmlns:rdf="http://www.w3.org/1999/02/22-rdf-syntax-ns#"
   xmlns:svg="http://www.w3.org/2000/svg"
   xmlns="http://www.w3.org/2000/svg"
   xmlns:xlink="http://www.w3.org/1999/xlink"
   xmlns:sodipodi="http://sodipodi.sourceforge.net/DTD/sodipodi-0.dtd"
   xmlns:inkscape="http://www.inkscape.org/namespaces/inkscape"
   version="1.1"
   id="Layer_1"
   x="0px"
   y="0px"
   width="311.045px"
   height="339.304px"
   viewBox="0 0 311.045 339.304"
   enable-background="new 0 0 311.045 339.304"
   xml:space="preserve"
   inkscape:version="0.91 r13725"
   sodipodi:docname="SBOLVisuallogo.svg"><metadata
     id="metadata231"><rdf:RDF><cc:Work
         rdf:about=""><dc:format>image/svg+xml</dc:format><dc:type
           rdf:resource="http://purl.org/dc/dcmitype/StillImage" /></cc:Work></rdf:RDF></metadata><defs
     id="defs229" /><sodipodi:namedview
     pagecolor="#ffffff"
     bordercolor="#666666"
     borderopacity="1"
     objecttolerance="10"
     gridtolerance="10"
     guidetolerance="10"
     inkscape:pageopacity="0"
     inkscape:pageshadow="2"
     inkscape:window-width="1920"
     inkscape:window-height="1176"
     id="namedview227"
     showgrid="false"
     inkscape:zoom="2.782166"
     inkscape:cx="108.79632"
     inkscape:cy="169.65199"
     inkscape:window-x="0"
     inkscape:window-y="24"
     inkscape:window-maximized="1"
     inkscape:current-layer="Layer_1" /><g
     id="g3"><g
       id="g5"><g
         id="g7"><defs
           id="defs9"><rect
             id="SVGID_1_"
             x="-7.746"
             y="23.151"
             width="320"
             height="288" /></defs><clipPath
           id="SVGID_2_"><use
             xlink:href="#SVGID_1_"
             overflow="visible"
             id="use13" /></clipPath></g></g></g><g
     id="g15"><g
       id="g17"><g
         id="g19"><defs
           id="defs21"><rect
             id="SVGID_3_"
             x="-7.746"
             y="23.151"
             width="320"
             height="288" /></defs><clipPath
           id="SVGID_4_"><use
             xlink:href="#SVGID_3_"
             overflow="visible"
             id="use25" /></clipPath></g></g></g><g
     id="g27"><g
       id="g29"><g
         id="g31"><defs
           id="defs33"><rect
             id="SVGID_5_"
             x="-7.746"
             y="23.151"
             width="320"
             height="288" /></defs><clipPath
           id="SVGID_6_"><use
             xlink:href="#SVGID_5_"
             overflow="visible"
             id="use37" /></clipPath></g></g></g><g
     id="g39"><g
       id="g41"><g
         id="g43"><defs
           id="defs45"><rect
             id="SVGID_7_"
             x="-7.746"
             y="23.151"
             width="320"
             height="288" /></defs><clipPath
           id="SVGID_8_"><use
             xlink:href="#SVGID_7_"
             overflow="visible"
             id="use49" /></clipPath></g></g></g><g
     id="g51"><g
       id="g53"><g
         id="g55"><defs
           id="defs57"><rect
             id="SVGID_9_"
             x="-7.746"
             y="23.151"
             width="320"
             height="288" /></defs><clipPath
           id="SVGID_10_"><use
             xlink:href="#SVGID_9_"
             overflow="visible"
             id="use61" /></clipPath></g></g></g><path
     style="fill:none;stroke:#8dc63f;stroke-width:6;stroke-linejoin:round;stroke-miterlimit:10"
     inkscape:connector-curvature="0"
     id="path65"
     d="m 66.345,43.349 c 11.125,-1.615 22.25,-3.231 36.191,5.197 13.942,8.429 30.8,45.411 47.46,45.373 16.66,-0.038 36.146,-38.582 52.501,-45.602 16.354,-7.02 32.779,-1.358 40.272,2.421"
     stroke-miterlimit="10" /><path
     style="fill:none;stroke:#b5b6b6;stroke-width:6;stroke-linejoin:round;stroke-miterlimit:10"
     inkscape:connector-curvature="0"
     id="path67"
     d="M 232.932,104.286 C 221.713,105.443 210.494,106.6 196.888,97.533 183.282,88.467 167.991,50.55 151.293,49.887 134.595,49.224 113.398,87.182 96.704,93.556 80.01,99.929 59.996,95.275 51.126,88.129"
     stroke-miterlimit="10" /><path
     style="fill:#010101"
     inkscape:connector-curvature="0"
     id="path69"
     d="m 88.389,44.525 c 2.601,0 5.085,0.622 7.453,1.867 l 0,7.147 c -2.227,-1.594 -4.23,-2.391 -6.012,-2.391 -1.922,0 -3.493,0.679 -4.711,2.037 -1.219,1.288 -1.828,3.009 -1.828,5.162 0,1.897 0.435,3.524 1.304,4.883 0.447,0.727 1.182,1.663 2.203,2.81 1.022,1.147 2.344,2.529 3.965,4.146 2.984,3.02 5.017,5.631 6.099,7.832 1.081,2.131 1.621,4.741 1.621,7.832 0,4.191 -1.188,7.645 -3.565,10.361 -2.376,2.646 -5.416,3.969 -9.12,3.969 -3.117,0 -5.777,-0.858 -7.98,-2.575 l 0,-7.256 c 2.602,1.898 4.969,2.848 7.102,2.848 1.992,0 3.55,-0.661 4.675,-1.984 1.125,-1.322 1.688,-3.119 1.688,-5.391 0,-1.966 -0.435,-3.734 -1.304,-5.303 -0.447,-0.749 -1.07,-1.608 -1.869,-2.58 -0.799,-0.972 -1.797,-2.055 -2.996,-3.249 -1.856,-1.826 -3.396,-3.441 -4.618,-4.846 -1.222,-1.405 -2.127,-2.635 -2.714,-3.688 -1.128,-2.06 -1.692,-4.657 -1.692,-7.795 0,-4.237 1.106,-7.597 3.318,-10.079 2.236,-2.505 5.229,-3.757 8.981,-3.757 z m 16.217,0.72 9.937,0 c 7.775,0 11.663,4.816 11.663,14.45 0,3.681 -0.504,6.411 -1.512,8.193 -1.008,1.781 -2.789,3.13 -5.344,4.044 2.93,1.171 4.934,2.671 6.012,4.5 1.091,1.805 1.636,4.524 1.636,8.157 0,9.962 -4.272,14.943 -12.816,14.943 l -9.576,0 0,-54.287 z m 74.355,0 7.344,0 0,48.095 11.953,0 0,6.192 -19.297,0 0,-54.287 z m -67.159,5.904 c -0.19,0 -0.308,0.012 -0.355,0.034 l 0,18 c 2.863,0 4.852,-0.656 5.963,-1.969 1.112,-1.383 1.668,-3.809 1.668,-7.277 0,-5.859 -2.13,-8.788 -6.39,-8.788 l -0.567,0 -0.319,0 z m -0.356,23.809 0,18.315 c 3.018,0 5.104,-0.645 6.259,-1.933 1.155,-1.289 1.733,-3.621 1.733,-6.996 0,-3.469 -0.601,-5.895 -1.804,-7.278 -1.178,-1.404 -3.241,-2.108 -6.188,-2.108 z" /><path
     style="fill:none;stroke:#010101;stroke-linejoin:round;stroke-miterlimit:10"
     inkscape:connector-curvature="0"
     id="path71"
     d="m 88.389,44.525 c 2.601,0 5.085,0.622 7.453,1.867 l 0,7.147 c -2.227,-1.594 -4.23,-2.391 -6.012,-2.391 -1.922,0 -3.493,0.679 -4.711,2.037 -1.219,1.288 -1.828,3.009 -1.828,5.162 0,1.897 0.435,3.524 1.304,4.883 0.447,0.727 1.182,1.663 2.203,2.81 1.022,1.147 2.344,2.529 3.965,4.146 2.984,3.021 5.017,5.631 6.099,7.832 1.081,2.131 1.621,4.741 1.621,7.832 0,4.191 -1.188,7.645 -3.565,10.361 -2.376,2.646 -5.416,3.969 -9.12,3.969 -3.117,0 -5.777,-0.858 -7.98,-2.574 l 0,-7.257 c 2.602,1.898 4.969,2.848 7.102,2.848 1.992,0 3.55,-0.661 4.675,-1.984 1.125,-1.322 1.688,-3.119 1.688,-5.391 0,-1.966 -0.435,-3.733 -1.304,-5.303 -0.447,-0.749 -1.07,-1.608 -1.869,-2.58 -0.799,-0.972 -1.797,-2.055 -2.996,-3.249 -1.856,-1.826 -3.396,-3.441 -4.618,-4.846 -1.222,-1.405 -2.127,-2.635 -2.714,-3.688 -1.128,-2.06 -1.692,-4.657 -1.692,-7.795 0,-4.237 1.106,-7.597 3.318,-10.079 2.236,-2.505 5.229,-3.757 8.981,-3.757 z m 16.217,0.72 9.937,0 c 7.775,0 11.663,4.816 11.663,14.45 0,3.681 -0.503,6.411 -1.511,8.193 -1.008,1.781 -2.789,3.13 -5.344,4.044 2.93,1.171 4.934,2.671 6.012,4.5 1.091,1.805 1.636,4.524 1.636,8.157 0,9.962 -4.272,14.943 -12.816,14.943 l -9.576,0 0,-54.287 z m 74.355,0 7.344,0 0,48.095 11.953,0 0,6.192 -19.297,0 0,-54.287 z m -67.159,5.904 c -0.19,0 -0.308,0.012 -0.355,0.034 l 0,18 c 2.863,0 4.852,-0.656 5.963,-1.969 1.112,-1.383 1.668,-3.809 1.668,-7.277 0,-5.859 -2.13,-8.788 -6.39,-8.788 l -0.567,0 -0.319,0 z m -0.356,23.809 0,18.315 c 3.018,0 5.104,-0.645 6.259,-1.933 1.155,-1.289 1.733,-3.621 1.733,-6.996 0,-3.469 -0.602,-5.895 -1.804,-7.277 -1.178,-1.405 -3.241,-2.109 -6.188,-2.109 z"
     stroke-miterlimit="10" /><path
     style="fill:#010101"
     inkscape:connector-curvature="0"
     id="path77"
     d="m 214.139,66.128 c 0.867,0 1.695,0.207 2.484,0.622 l 0,2.382 c -0.742,-0.53 -1.41,-0.796 -2.004,-0.796 -0.641,0 -1.164,0.226 -1.57,0.679 -0.406,0.43 -0.61,1.003 -0.61,1.721 0,0.633 0.146,1.175 0.435,1.628 0.149,0.242 0.395,0.554 0.734,0.937 0.341,0.382 0.781,0.843 1.322,1.382 0.994,1.006 1.672,1.877 2.033,2.61 0.359,0.71 0.54,1.58 0.54,2.61 0,1.397 -0.396,2.549 -1.188,3.454 -0.792,0.882 -1.805,1.323 -3.04,1.323 -1.038,0 -1.925,-0.286 -2.66,-0.858 l 0,-2.419 c 0.867,0.633 1.656,0.949 2.368,0.949 0.663,0 1.183,-0.221 1.558,-0.661 0.375,-0.441 0.562,-1.04 0.562,-1.797 0,-0.655 -0.145,-1.245 -0.435,-1.768 -0.148,-0.25 -0.356,-0.536 -0.623,-0.86 -0.266,-0.324 -0.599,-0.685 -0.998,-1.083 -0.619,-0.608 -1.132,-1.147 -1.539,-1.615 -0.408,-0.469 -0.709,-0.878 -0.905,-1.229 -0.376,-0.687 -0.563,-1.553 -0.563,-2.599 0,-1.412 0.368,-2.532 1.105,-3.359 0.745,-0.836 1.743,-1.253 2.994,-1.253 z m -19.084,0.24 2.402,0 1.09,6.68 0.188,1.207 0.387,2.625 c 0.062,0.445 0.119,0.852 0.17,1.219 0.051,0.367 0.096,0.699 0.135,0.996 l 0.117,0.891 c 0.023,-0.18 0.043,-0.34 0.059,-0.48 0.016,-0.14 0.031,-0.258 0.047,-0.352 l 0.316,-2.098 0.41,-2.754 c 0.039,-0.25 0.076,-0.48 0.111,-0.691 0.035,-0.211 0.068,-0.398 0.1,-0.562 l 1.172,-6.68 2.273,0 -3.551,18.097 -1.934,0 -3.492,-18.098 z m 10.31,0 2.448,0 0,18.097 -2.448,0 0,-18.097 z m 14.179,0 2.399,0 0,12.786 c 0,1.305 0.117,2.172 0.352,2.602 0.24,0.43 0.716,0.645 1.425,0.645 0.708,0 1.176,-0.188 1.401,-0.562 0.234,-0.383 0.351,-1.16 0.351,-2.332 l 0,-13.139 2.4,0 0,13.134 c 0,1.969 -0.302,3.3 -0.903,3.995 -0.719,0.789 -1.818,1.184 -3.296,1.184 -1.627,0 -2.772,-0.508 -3.437,-1.523 -0.462,-0.695 -0.692,-2.03 -0.692,-4.007 l 0,-12.783 z m 13.667,0 1.898,0 3.879,18.097 -2.414,0 -0.68,-3.528 -3.586,0 -0.691,3.528 -2.344,0 3.938,-18.097 z m 7.205,0 2.448,0 0,16.032 3.984,0 0,2.064 -6.433,0 0,-18.096 z m -6.291,3.508 c -0.109,1.086 -0.25,2.186 -0.422,3.299 -0.172,1.113 -0.375,2.295 -0.609,3.545 l -0.445,2.319 2.895,0 -0.539,-2.882 c -0.36,-1.96 -0.653,-4.054 -0.88,-6.281 z" /><path
     style="fill:none;stroke:#010101;stroke-linejoin:round;stroke-miterlimit:10"
     inkscape:connector-curvature="0"
     id="path79"
     d="m 214.139,66.128 c 0.867,0 1.695,0.207 2.484,0.622 l 0,2.383 c -0.742,-0.531 -1.41,-0.797 -2.004,-0.797 -0.641,0 -1.164,0.226 -1.57,0.679 -0.406,0.43 -0.609,1.003 -0.609,1.721 0,0.633 0.145,1.175 0.434,1.628 0.149,0.242 0.395,0.554 0.734,0.937 0.341,0.382 0.781,0.843 1.322,1.382 0.994,1.006 1.672,1.877 2.033,2.61 0.359,0.71 0.54,1.58 0.54,2.61 0,1.397 -0.396,2.549 -1.188,3.454 -0.792,0.882 -1.805,1.323 -3.04,1.323 -1.038,0 -1.925,-0.286 -2.66,-0.858 l 0,-2.419 c 0.867,0.633 1.656,0.949 2.368,0.949 0.663,0 1.183,-0.221 1.558,-0.661 0.375,-0.441 0.562,-1.04 0.562,-1.797 0,-0.655 -0.145,-1.245 -0.435,-1.768 -0.148,-0.25 -0.356,-0.536 -0.623,-0.86 -0.266,-0.324 -0.599,-0.685 -0.998,-1.083 -0.619,-0.608 -1.132,-1.147 -1.539,-1.615 -0.408,-0.469 -0.709,-0.878 -0.905,-1.229 -0.376,-0.687 -0.563,-1.553 -0.563,-2.599 0,-1.412 0.368,-2.532 1.105,-3.359 0.745,-0.836 1.743,-1.253 2.994,-1.253 z m -19.084,0.24 2.402,0 1.09,6.68 0.188,1.207 0.387,2.625 c 0.062,0.445 0.119,0.852 0.17,1.219 0.051,0.367 0.096,0.699 0.135,0.996 l 0.117,0.891 c 0.023,-0.18 0.043,-0.34 0.059,-0.48 0.016,-0.14 0.031,-0.258 0.047,-0.352 l 0.316,-2.098 0.41,-2.754 c 0.039,-0.25 0.076,-0.48 0.111,-0.691 0.035,-0.211 0.068,-0.398 0.1,-0.562 l 1.172,-6.68 2.273,0 -3.551,18.097 -1.934,0 -3.492,-18.098 z m 10.31,0 2.448,0 0,18.097 -2.448,0 0,-18.097 z m 14.179,0 2.399,0 0,12.786 c 0,1.305 0.117,2.172 0.352,2.602 0.24,0.43 0.716,0.645 1.425,0.645 0.708,0 1.176,-0.188 1.401,-0.562 0.234,-0.383 0.351,-1.16 0.351,-2.332 l 0,-13.139 2.4,0 0,13.134 c 0,1.969 -0.302,3.3 -0.903,3.995 -0.719,0.789 -1.818,1.184 -3.296,1.184 -1.627,0 -2.772,-0.508 -3.437,-1.523 -0.462,-0.695 -0.692,-2.03 -0.692,-4.007 l 0,-12.783 z m 13.667,0 1.898,0 3.879,18.097 -2.414,0 -0.68,-3.528 -3.586,0 -0.691,3.528 -2.344,0 3.938,-18.097 z m 7.205,0 2.448,0 0,16.032 3.984,0 0,2.064 -6.433,0 0,-18.096 z m -6.291,3.508 c -0.109,1.086 -0.25,2.186 -0.422,3.299 -0.172,1.113 -0.375,2.295 -0.609,3.545 l -0.445,2.319 2.895,0 -0.539,-2.882 c -0.36,-1.96 -0.653,-4.054 -0.88,-6.281 z"
     stroke-miterlimit="10" /><g
     id="g81"><defs
       id="defs83"><rect
         id="SVGID_11_"
         x="137.902"
         y="69.479"
         transform="matrix(-0.0815 0.9967 -0.9967 -0.0815 224.5916 -62.3196)"
         width="6.22"
         height="5.701" /></defs><clipPath
       id="SVGID_12_"><use
         xlink:href="#SVGID_11_"
         overflow="visible"
         id="use87" /></clipPath><g
       clip-path="url(#SVGID_12_)"
       id="g89"><defs
         id="defs91"><rect
           id="SVGID_13_"
           x="137.902"
           y="69.479"
           transform="matrix(-0.0815 0.9967 -0.9967 -0.0815 224.5916 -62.3196)"
           width="6.22"
           height="5.701" /></defs><clipPath
         id="SVGID_14_"><use
           xlink:href="#SVGID_13_"
           overflow="visible"
           id="use95" /></clipPath><g
         clip-path="url(#SVGID_14_)"
         id="g97"><defs
           id="defs99"><rect
             id="SVGID_15_"
             x="-7.746"
             y="23.151"
             width="320"
             height="288" /></defs><clipPath
           id="SVGID_16_"><use
             xlink:href="#SVGID_15_"
             overflow="visible"
             id="use103" /></clipPath><polygon
           clip-path="url(#SVGID_16_)"
           fill="none"
           stroke="#000000"
           stroke-width="0.5266"
           stroke-linejoin="round"
           stroke-miterlimit="10"
           points="     143.54,75.446 143.798,72.286 141.36,69.431 138.495,71.852 138.237,75.011    "
           id="polygon105" /></g></g></g><g
     id="g107"><defs
       id="defs109"><rect
         id="SVGID_17_"
         x="155.503"
         y="65.405"
         transform="matrix(-0.37 0.929 -0.929 -0.37 282.9187 -52.5671)"
         width="7.559"
         height="8.474" /></defs><clipPath
       id="SVGID_18_"><use
         xlink:href="#SVGID_17_"
         overflow="visible"
         id="use113" /></clipPath><g
       clip-path="url(#SVGID_18_)"
       id="g115"><defs
         id="defs117"><rect
           id="SVGID_19_"
           x="155.503"
           y="65.405"
           transform="matrix(-0.37 0.929 -0.929 -0.37 282.9187 -52.5671)"
           width="7.559"
           height="8.474" /></defs><clipPath
         id="SVGID_20_"><use
           xlink:href="#SVGID_19_"
           overflow="visible"
           id="use121" /></clipPath><g
         clip-path="url(#SVGID_20_)"
         id="g123"><defs
           id="defs125"><rect
             id="SVGID_21_"
             x="-7.746"
             y="23.151"
             width="320"
             height="288" /></defs><clipPath
           id="SVGID_22_"><use
             xlink:href="#SVGID_21_"
             overflow="visible"
             id="use129" /></clipPath><polyline
           clip-path="url(#SVGID_22_)"
           fill="none"
           stroke="#000000"
           stroke-width="0.6997"
           stroke-linejoin="round"
           stroke-miterlimit="10"
           points="     156.334,66.687 158.676,65.467 159.488,67.943    "
           id="polyline131" /><polyline
           clip-path="url(#SVGID_22_)"
           fill="none"
           stroke="#000000"
           stroke-width="0.6997"
           stroke-linejoin="round"
           stroke-miterlimit="10"
           points="     161.842,74.321 156.067,72.022 158.588,65.689    "
           id="polyline133" /></g></g></g><g
     id="g135"><defs
       id="defs137"><rect
         id="SVGID_23_"
         x="145.266"
         y="67.257"
         width="9.206"
         height="9.207" /></defs><clipPath
       id="SVGID_24_"><use
         xlink:href="#SVGID_23_"
         overflow="visible"
         id="use141" /></clipPath><rect
       x="147.729"
       y="69.75"
       clip-path="url(#SVGID_24_)"
       fill="none"
       stroke="#000000"
       stroke-width="0.8558"
       stroke-linejoin="round"
       stroke-miterlimit="10"
       width="4.583"
       height="4.582"
       id="rect143" /><rect
       x="145.728"
       y="67.748"
       clip-path="url(#SVGID_24_)"
       fill="none"
       stroke="#000000"
       stroke-width="0.8558"
       stroke-linejoin="round"
       stroke-miterlimit="10"
       width="8.592"
       height="8.593"
       id="rect145" /></g><g
     id="g147"><defs
       id="defs149"><rect
         id="SVGID_25_"
         x="143.344"
         y="78.469"
         transform="matrix(-0.8936 -0.4489 0.4489 -0.8936 243.6067 220.7118)"
         width="9.245"
         height="6.019" /></defs><clipPath
       id="SVGID_26_"><use
         xlink:href="#SVGID_25_"
         overflow="visible"
         id="use153" /></clipPath><g
       clip-path="url(#SVGID_26_)"
       id="g155"><defs
         id="defs157"><rect
           id="SVGID_27_"
           x="143.344"
           y="78.469"
           transform="matrix(-0.8936 -0.4489 0.4489 -0.8936 243.6067 220.7118)"
           width="9.245"
           height="6.019" /></defs><clipPath
         id="SVGID_28_"><use
           xlink:href="#SVGID_27_"
           overflow="visible"
           id="use161" /></clipPath><g
         clip-path="url(#SVGID_28_)"
         id="g163"><defs
           id="defs165"><rect
             id="SVGID_29_"
             x="-7.746"
             y="23.151"
             width="320"
             height="288" /></defs><clipPath
           id="SVGID_30_"><use
             xlink:href="#SVGID_29_"
             overflow="visible"
             id="use169" /></clipPath><rect
           x="143.633"
           y="78.867"
           transform="matrix(-0.8936 -0.4489 0.4489 -0.8936 243.6587 221.0165)"
           clip-path="url(#SVGID_30_)"
           fill="none"
           stroke="#000000"
           stroke-width="0.6595"
           stroke-linejoin="round"
           stroke-miterlimit="10"
           width="8.783"
           height="5.525"
           id="rect171" /><line
           clip-path="url(#SVGID_30_)"
           fill="none"
           stroke="#000000"
           stroke-width="0.6595"
           stroke-linejoin="round"
           stroke-miterlimit="10"
           x1="145.623"
           y1="79.066"
           x2="146.597"
           y2="82.027"
           id="line173" /><line
           clip-path="url(#SVGID_30_)"
           fill="none"
           stroke="#000000"
           stroke-width="0.6595"
           stroke-linejoin="round"
           stroke-miterlimit="10"
           x1="144.631"
           y1="81.04"
           x2="147.588"
           y2="80.053"
           id="line175" /><line
           clip-path="url(#SVGID_30_)"
           fill="none"
           stroke="#000000"
           stroke-width="0.6595"
           stroke-linejoin="round"
           stroke-miterlimit="10"
           x1="147.182"
           y1="82.816"
           x2="150.32"
           y2="84.392"
           id="line177" /></g></g></g><g
     id="g179"><defs
       id="defs181"><rect
         id="SVGID_31_"
         x="155.17"
         y="75.979"
         width="4.117"
         height="8.475" /></defs><clipPath
       id="SVGID_32_"><use
         xlink:href="#SVGID_31_"
         overflow="visible"
         id="use185" /></clipPath><line
       clip-path="url(#SVGID_32_)"
       fill="none"
       stroke="#000000"
       stroke-width="0.7721"
       stroke-linejoin="round"
       stroke-miterlimit="10"
       x1="157.365"
       y1="84.31"
       x2="157.365"
       y2="80.321"
       id="line187" /><polygon
       clip-path="url(#SVGID_32_)"
       fill="none"
       stroke="#000000"
       stroke-width="0.7721"
       stroke-linejoin="round"
       stroke-miterlimit="10"
       points="   157.365,76.336 157.365,76.336 157.749,76.396 158.075,76.461 158.393,76.647 158.649,76.832 158.843,77.083 159.039,77.392    159.104,77.708 159.163,78.078 159.104,78.454 159.039,78.764 158.843,79.074 158.649,79.325 158.393,79.515 158.075,79.701    157.749,79.76 157.365,79.826 156.981,79.76 156.661,79.701 156.335,79.515 156.082,79.325 155.886,79.074 155.691,78.764    155.631,78.454 155.567,78.078 155.631,77.708 155.691,77.392 155.886,77.083 156.082,76.832 156.335,76.647 156.661,76.461    156.981,76.396  "
       id="polygon189" /></g><g
     id="g191"><defs
       id="defs193"><rect
         id="SVGID_33_"
         x="143.164"
         y="62.13"
         transform="matrix(-0.9867 0.1624 -0.1624 -0.9867 305.425 102.8979)"
         width="10.687"
         height="3.6" /></defs><clipPath
       id="SVGID_34_"><use
         xlink:href="#SVGID_33_"
         overflow="visible"
         id="use197" /></clipPath><g
       clip-path="url(#SVGID_34_)"
       id="g199"><defs
         id="defs201"><rect
           id="SVGID_35_"
           x="143.164"
           y="62.13"
           transform="matrix(-0.9867 0.1624 -0.1624 -0.9867 305.425 102.8979)"
           width="10.687"
           height="3.6" /></defs><clipPath
         id="SVGID_36_"><use
           xlink:href="#SVGID_35_"
           overflow="visible"
           id="use205" /></clipPath><g
         clip-path="url(#SVGID_36_)"
         id="g207"><defs
           id="defs209"><rect
             id="SVGID_37_"
             x="-7.746"
             y="23.151"
             width="320"
             height="288" /></defs><clipPath
           id="SVGID_38_"><use
             xlink:href="#SVGID_37_"
             overflow="visible"
             id="use213" /></clipPath><line
           clip-path="url(#SVGID_38_)"
           fill="none"
           stroke="#000000"
           stroke-width="0.9823"
           stroke-linejoin="round"
           stroke-miterlimit="10"
           x1="143.509"
           y1="63.441"
           x2="147.372"
           y2="62.805"
           id="line215" /><line
           clip-path="url(#SVGID_38_)"
           fill="none"
           stroke="#000000"
           stroke-width="0.9823"
           stroke-linejoin="round"
           stroke-miterlimit="10"
           x1="143.943"
           y1="66.08"
           x2="147.806"
           y2="65.444"
           id="line217" /><line
           clip-path="url(#SVGID_38_)"
           fill="none"
           stroke="#000000"
           stroke-width="0.9823"
           stroke-linejoin="round"
           stroke-miterlimit="10"
           x1="149.305"
           y1="62.487"
           x2="153.167"
           y2="61.851"
           id="line219" /><line
           clip-path="url(#SVGID_38_)"
           fill="none"
           stroke="#000000"
           stroke-width="0.9823"
           stroke-linejoin="round"
           stroke-miterlimit="10"
           x1="149.74"
           y1="65.125"
           x2="153.602"
           y2="64.49"
           id="line221" /></g></g></g><g
     id="g223"><circle
       fill="none"
       stroke="#010101"
       stroke-width="2.25"
       stroke-linejoin="round"
       stroke-miterlimit="10"
       cx="150.372"
       cy="72.481"
       r="14.4"
       id="circle225" /></g></svg>