<svg xmlns="http://www.w3.org/2000/svg" viewBox="0 0 667.14499 293.60964"><defs><style>.cls-1{fill:#232323;}.cls-2{fill:#5b4d9e;}</style></defs><g id="Layer_2" data-name="Layer 2"><g id="Layer_1-2" data-name="Layer 1"><path class="cls-1" d="M10.82108,121.68874a18.18087,18.18087,0,0,1,22.94372,8.92277c3.8246,7.90468,12.49188,16.572,28.29737,16.572,15.0429,0,25.49474-7.13822,25.75023-18.612.25549-7.90081-3.31362-14.78741-21.15916-19.88558l-21.15916-5.86464C6.741,90.84034.11376,68.65922.11376,52.85373.11376,21.49435,26.88207.33519,60.53311.33519c25.23924,0,44.10674,10.96281,53.54049,29.31933,4.33171,8.41179.7626,16.572-5.60915,20.64818C99.28619,56.16734,91.126,53.62019,85.00976,45.971A31.03534,31.03534,0,0,0,60.026,33.73461c-13.00286,0-22.69209,7.64532-22.69209,18.101,0,4.58719,1.78455,12.999,18.86749,17.84554l20.90367,6.11626C119.68275,88.0377,125.799,111.9995,125.2919,128.827c-.511,34.92849-32.12584,51.50045-63.22973,51.50045-31.1,0-53.53662-15.0429-61.18581-37.73112C-1.92628,133.66964,2.1538,125.00235,10.82108,121.68874Z"/><path class="cls-1" d="M166.65694,178.03187c-9.42988,0-14.78354-7.39371-14.78354-15.8055V18.18073c.25162-8.66728,5.35366-15.8055,14.78354-15.8055h55.58054c31.611,0,52.00755,18.86363,52.00755,48.94943,0,11.47379-5.86464,26.00571-23.96567,32.88844,23.20308,5.86464,33.14393,25.75023,33.14393,40.02666,0,29.06384-21.15916,53.79211-56.08764,53.79211Zm52.01143-105.548c9.68537,0,16.31647-8.1563,16.31647-18.612,0-10.95894-5.60915-18.60814-16.572-18.60814H189.349V72.48382ZM189.349,102.05864v43.08479h35.94657c12.49187,0,18.86749-11.47379,18.86749-21.92563,0-9.94086-6.37562-21.15916-19.63009-21.15916Z"/><path class="cls-1" d="M601.11649,145.39892h50.734c8.41179,0,15.29452,7.3937,15.29452,16.31647,0,8.41179-7.13822,16.061-15.29452,16.31648H578.67989c-9.43375,0-14.78742-7.13822-14.78742-15.8055V18.43622c.25549-9.17826,8.92277-17.33456,18.612-17.33456,10.19635,0,18.612,7.90081,18.612,17.33456Z"/><path class="cls-2" d="M534.47066,134.27983a51.60152,51.60152,0,0,1-19.34193-19.827,98.98438,98.98438,0,0,1-19.12462,37.75066,89.30921,89.30921,0,0,0,19.34252,15.12505,19.09154,19.09154,0,1,0,19.124-33.04874Z"/><polygon class="cls-2" points="508.716 89.666 508.716 89.671 508.716 89.675 508.717 89.67 508.716 89.666"/><path class="cls-2" d="M322.7476,12.01477a19.09152,19.09152,0,0,0-19.1241,33.04866A51.59831,51.59831,0,0,1,322.96108,64.889a98.98793,98.98793,0,0,1,19.12579-37.75132A89.30274,89.30274,0,0,0,322.7476,12.01477Z"/><polygon class="cls-2" points="470.534 89.674 470.534 89.67 470.534 89.667 470.534 89.671 470.534 89.674"/><path class="cls-2" d="M419.046,0a89.77251,89.77251,0,0,0-89.67283,89.67034,51.85145,51.85145,0,0,1-25.74964,44.60811,19.09152,19.09152,0,1,0,19.1241,33.04866,89.30673,89.30673,0,0,0,19.33957-15.1231,86.02842,86.02842,0,0,0,6.46281-7.21862A89.17458,89.17458,0,0,0,367.5562,89.798,51.47836,51.47836,0,0,1,464.161,64.88979a98.95,98.95,0,0,1,19.08993-37.72794A89.39029,89.39029,0,0,0,419.046,0Z"/><path class="cls-2" d="M508.71651,89.66554a51.85172,51.85172,0,0,1,25.75173-44.60291,19.09156,19.09156,0,0,0-19.1239-33.04886A90.18233,90.18233,0,0,0,489.62558,34.459l.01379.01838a89.1204,89.1204,0,0,0-19.10552,55.18818h-.0004v.0048a51.47689,51.47689,0,0,1-96.5593,24.86047,98.94181,98.94181,0,0,1-19.01741,37.7589A89.603,89.603,0,0,0,508.71651,89.67034"/><path class="cls-2" d="M418.14412,130.87642a6.80011,6.80011,0,0,1-6.79925-6.79925V56.58492a6.79925,6.79925,0,0,1,13.5985,0v67.49225A6.80011,6.80011,0,0,1,418.14412,130.87642Z"/><path class="cls-2" d="M393.68183,113.04717a6.80011,6.80011,0,0,1-6.79925-6.79926V74.41418a6.79926,6.79926,0,1,1,13.59851,0v31.83373A6.80011,6.80011,0,0,1,393.68183,113.04717Z"/><path class="cls-2" d="M444.40931,113.04717a6.80011,6.80011,0,0,1-6.79925-6.79926V74.41418a6.79925,6.79925,0,1,1,13.5985,0v31.83373A6.80011,6.80011,0,0,1,444.40931,113.04717Z"/><path class="cls-2" d="M214.287,286.26648a7.26062,7.26062,0,0,1-7.443,6.93391c-3.8762,0-7.44464-3.26233-7.44464-6.93391v-57.411a7.54413,7.54413,0,0,1,7.44464-6.93391,7.26062,7.26062,0,0,1,7.443,6.93391Z"/><path class="cls-2" d="M256.71061,270.15446a7.2734,7.2734,0,0,1,9.17811,3.5701c1.53052,3.16085,4.99747,6.6278,11.31918,6.6278,6.01726,0,10.1979-2.85475,10.29938-7.44463.10148-3.16085-1.32589-5.91412-8.46443-7.9537l-8.46276-2.34569c-15.49981-4.79284-18.1516-13.66319-18.1516-19.98656,0-12.54192,10.707-21.00635,24.1672-21.00635,10.09642,0,17.64254,4.38527,21.4156,11.72676a6.1731,6.1731,0,0,1-2.24421,8.2598c-3.67158,2.34569-6.93391,1.3259-9.38107-1.73347a12.41459,12.41459,0,0,0-9.99328-4.89433c-5.20043,0-9.07663,3.05937-9.07663,7.24,0,1.835.71368,5.20043,7.54611,7.13853l8.363,2.44717c17.02867,4.89433,19.47583,14.48,19.27287,21.211-.20462,13.9693-12.84969,20.59877-25.29013,20.59877s-21.41394-6.01727-24.47331-15.09223A6.5539,6.5539,0,0,1,256.71061,270.15446Z"/><path class="cls-2" d="M366.33724,293.60964c-14.48,0-27.32805-10.19791-27.32805-26.1053V228.85545a7.54375,7.54375,0,0,1,7.443-6.93391,7.26106,7.26106,0,0,1,7.44463,6.93391v38.64889c0,7.24,6.11874,12.03286,12.44045,12.03286a12.15215,12.15215,0,0,0,12.23748-12.03286V228.85545a7.26106,7.26106,0,0,1,7.44464-6.93391,7.54376,7.54376,0,0,1,7.443,6.93391v38.64889c0,15.90739-12.848,26.1053-27.32805,26.1053Z"/><path class="cls-2" d="M539.39881,279.63868h20.29267a6.3642,6.3642,0,0,1,6.11707,6.52632,6.64654,6.64654,0,0,1-6.11707,6.52633H530.42366c-3.77306,0-5.91412-2.85475-5.91412-6.32171V228.85545a7.54535,7.54535,0,0,1,7.44464-6.93391,7.26106,7.26106,0,0,1,7.44463,6.93391Z"/><path class="cls-2" d="M132.39112,276.664l-.00514.01522L115.5603,226.40666c-1.3259-3.467-5.608-5.099-9.381-3.87455a7.58609,7.58609,0,0,0-4.48676,9.27963l20.29265,54.6577a10.04,10.04,0,0,0,10.09469,6.93393h.61221a11.45166,11.45166,0,0,0,4.91209-1.01161Z"/><path class="cls-2" d="M158.59277,222.53211c-3.773-1.22443-8.05511.40758-9.381,3.87455l-13.8154,41.2781,6.71954,20.27313a13.61049,13.61049,0,0,0,.671-1.48845l20.29265-54.6577A7.58609,7.58609,0,0,0,158.59277,222.53211Z"/><path class="cls-2" d="M448.69129,227.37839a13.60494,13.60494,0,0,0-.66584,1.477L427.7328,283.5132a7.586,7.586,0,0,0,4.48666,9.27953c3.77308,1.22443,8.05521-.40758,9.38111-3.87455l13.8109-41.26477Z"/><path class="cls-2" d="M489.11981,283.5132l-20.29265-54.6578a10.04,10.04,0,0,0-10.0948-6.93393h-.61221a11.4495,11.4495,0,0,0-4.91985,1.01465l5.22595,15.70966,16.82579,50.2724c1.3259,3.467,5.60793,5.099,9.381,3.87455A7.586,7.586,0,0,0,489.11981,283.5132Z"/></g></g></svg>