<?xml version="1.0" encoding="utf-8"?>
<!-- Generator: Adobe Illustrator 16.0.0, SVG Export Plug-In . SVG Version: 6.00 Build 0)  -->
<!DOCTYPE svg PUBLIC "-//W3C//DTD SVG 1.1//EN" "http://www.w3.org/Graphics/SVG/1.1/DTD/svg11.dtd">
<svg version="1.1" id="Layer_1" xmlns="http://www.w3.org/2000/svg" xmlns:xlink="http://www.w3.org/1999/xlink" x="0px" y="0px"
	 width="311.045px" height="339.304px" viewBox="0 0 311.045 339.304" enable-background="new 0 0 311.045 339.304"
	 xml:space="preserve">
<g>
	<g>
		<g>
			<defs>
				<rect id="SVGID_1_" x="-7.746" y="23.151" width="320" height="288"/>
			</defs>
			<clipPath id="SVGID_2_">
				<use xlink:href="#SVGID_1_"  overflow="visible"/>
			</clipPath>
		</g>
	</g>
</g>
<g>
	<g>
		<g>
			<defs>
				<rect id="SVGID_3_" x="-7.746" y="23.151" width="320" height="288"/>
			</defs>
			<clipPath id="SVGID_4_">
				<use xlink:href="#SVGID_3_"  overflow="visible"/>
			</clipPath>
		</g>
	</g>
</g>
<g>
	<g>
		<g>
			<defs>
				<rect id="SVGID_5_" x="-7.746" y="23.151" width="320" height="288"/>
			</defs>
			<clipPath id="SVGID_6_">
				<use xlink:href="#SVGID_5_"  overflow="visible"/>
			</clipPath>
		</g>
	</g>
</g>
<g>
	<g>
		<g>
			<defs>
				<rect id="SVGID_7_" x="-7.746" y="23.151" width="320" height="288"/>
			</defs>
			<clipPath id="SVGID_8_">
				<use xlink:href="#SVGID_7_"  overflow="visible"/>
			</clipPath>
		</g>
	</g>
</g>
<g>
	<g>
		<g>
			<defs>
				<rect id="SVGID_9_" x="-7.746" y="23.151" width="320" height="288"/>
			</defs>
			<clipPath id="SVGID_10_">
				<use xlink:href="#SVGID_9_"  overflow="visible"/>
			</clipPath>
		</g>
	</g>
</g>
<g>
	<path fill="none" stroke="#8DC63F" stroke-width="6" stroke-linejoin="round" stroke-miterlimit="10" d="M66.345,43.349
		c11.125-1.615,22.25-3.231,36.191,5.197c13.942,8.429,30.8,45.411,47.46,45.373s36.146-38.582,52.501-45.602
		c16.354-7.02,32.779-1.358,40.272,2.421"/>
	<path fill="none" stroke="#B5B6B6" stroke-width="6" stroke-linejoin="round" stroke-miterlimit="10" d="M232.932,104.286
		c-11.219,1.157-22.438,2.314-36.044-6.753c-13.606-9.066-28.897-46.983-45.595-47.646s-37.895,37.295-54.589,43.669
		c-16.694,6.373-36.708,1.719-45.578-5.427"/>
	<path fill="#010101" d="M88.389,44.525c2.601,0,5.085,0.622,7.453,1.867v7.147c-2.227-1.594-4.23-2.391-6.012-2.391
		c-1.922,0-3.493,0.679-4.711,2.037c-1.219,1.288-1.828,3.009-1.828,5.162c0,1.897,0.435,3.524,1.304,4.883
		c0.447,0.727,1.182,1.663,2.203,2.81c1.022,1.147,2.344,2.529,3.965,4.146c2.984,3.02,5.017,5.631,6.099,7.832
		c1.081,2.131,1.621,4.741,1.621,7.832c0,4.191-1.188,7.645-3.565,10.361c-2.376,2.646-5.416,3.969-9.12,3.969
		c-3.117,0-5.777-0.858-7.98-2.575v-7.256c2.602,1.898,4.969,2.848,7.102,2.848c1.992,0,3.55-0.661,4.675-1.984
		c1.125-1.322,1.688-3.119,1.688-5.391c0-1.966-0.435-3.734-1.304-5.303c-0.447-0.749-1.07-1.608-1.869-2.58
		s-1.797-2.055-2.996-3.249c-1.856-1.826-3.396-3.441-4.618-4.846c-1.222-1.405-2.127-2.635-2.714-3.688
		c-1.128-2.06-1.692-4.657-1.692-7.795c0-4.237,1.106-7.597,3.318-10.079C81.644,45.777,84.637,44.525,88.389,44.525z
		 M104.606,45.245h9.937c7.775,0,11.663,4.816,11.663,14.45c0,3.681-0.504,6.411-1.512,8.193c-1.008,1.781-2.789,3.13-5.344,4.044
		c2.93,1.171,4.934,2.671,6.012,4.5c1.091,1.805,1.636,4.524,1.636,8.157c0,9.962-4.272,14.943-12.816,14.943h-9.576V45.245z
		 M178.961,45.245h7.344V93.34h11.953v6.192h-19.297V45.245z M111.802,51.149c-0.19,0-0.308,0.012-0.355,0.034v18
		c2.863,0,4.852-0.656,5.963-1.969c1.112-1.383,1.668-3.809,1.668-7.277c0-5.859-2.13-8.788-6.39-8.788h-0.567H111.802z
		 M111.446,74.958v18.315c3.018,0,5.104-0.645,6.259-1.933c1.155-1.289,1.733-3.621,1.733-6.996c0-3.469-0.601-5.895-1.804-7.278
		C116.456,75.662,114.393,74.958,111.446,74.958z"/>
	<path fill="none" stroke="#010101" stroke-linejoin="round" stroke-miterlimit="10" d="M88.389,44.525
		c2.601,0,5.085,0.622,7.453,1.867v7.147c-2.227-1.594-4.23-2.391-6.012-2.391c-1.922,0-3.493,0.679-4.711,2.037
		c-1.219,1.288-1.828,3.009-1.828,5.162c0,1.897,0.435,3.524,1.304,4.883c0.447,0.727,1.182,1.663,2.203,2.81
		c1.022,1.147,2.344,2.529,3.965,4.146c2.984,3.021,5.017,5.631,6.099,7.832c1.081,2.131,1.621,4.741,1.621,7.832
		c0,4.191-1.188,7.645-3.565,10.361c-2.376,2.646-5.416,3.969-9.12,3.969c-3.117,0-5.777-0.858-7.98-2.574v-7.257
		c2.602,1.898,4.969,2.848,7.102,2.848c1.992,0,3.55-0.661,4.675-1.984c1.125-1.322,1.688-3.119,1.688-5.391
		c0-1.966-0.435-3.733-1.304-5.303c-0.447-0.749-1.07-1.608-1.869-2.58s-1.797-2.055-2.996-3.249
		c-1.856-1.826-3.396-3.441-4.618-4.846c-1.222-1.405-2.127-2.635-2.714-3.688c-1.128-2.06-1.692-4.657-1.692-7.795
		c0-4.237,1.106-7.597,3.318-10.079C81.644,45.777,84.637,44.525,88.389,44.525z M104.606,45.245h9.937
		c7.775,0,11.663,4.816,11.663,14.45c0,3.681-0.503,6.411-1.511,8.193c-1.008,1.781-2.789,3.13-5.344,4.044
		c2.93,1.171,4.934,2.671,6.012,4.5c1.091,1.805,1.636,4.524,1.636,8.157c0,9.962-4.272,14.943-12.816,14.943h-9.576V45.245z
		 M178.961,45.245h7.344V93.34h11.953v6.192h-19.297V45.245z M111.802,51.149c-0.19,0-0.308,0.012-0.355,0.034v18
		c2.863,0,4.852-0.656,5.963-1.969c1.112-1.383,1.668-3.809,1.668-7.277c0-5.859-2.13-8.788-6.39-8.788h-0.567H111.802z
		 M111.446,74.958v18.315c3.018,0,5.104-0.645,6.259-1.933c1.155-1.289,1.733-3.621,1.733-6.996c0-3.469-0.602-5.895-1.804-7.277
		C116.456,75.662,114.393,74.958,111.446,74.958z"/>
	<path fill="#010101" d="M160.027,99.792h1.674v14.939h-1.674V99.792z M120.075,100.979c0.51,0,1.014,0.135,1.512,0.405v1.647
		c-0.469-0.229-0.861-0.343-1.178-0.343c-0.434,0-0.806,0.106-1.116,0.32s-0.567,0.543-0.769,0.988
		c-0.202,0.444-0.352,1.008-0.448,1.69c-0.097,0.682-0.146,1.488-0.146,2.419c0,3.348,0.859,5.022,2.576,5.022
		c0.299,0,0.659-0.094,1.081-0.281v1.676c-0.439,0.246-0.932,0.369-1.477,0.369c-2.749,0-4.124-2.243-4.124-6.729
		c0-2.425,0.336-4.229,1.007-5.411S118.692,100.979,120.075,100.979z M167.4,101.79c0.304,0,0.566,0.11,0.788,0.332
		s0.332,0.487,0.332,0.797c0,0.315-0.11,0.584-0.332,0.806s-0.49,0.333-0.806,0.333s-0.584-0.111-0.806-0.333
		c-0.216-0.216-0.324-0.487-0.324-0.814c0-0.304,0.111-0.566,0.333-0.788C166.825,101.9,167.096,101.79,167.4,101.79z
		 M193.776,103.085h1.674v2.556h0.914v1.332h-0.914v7.758h-1.674v-7.758h-0.923v-1.332h0.923V103.085z M128.533,105.479
		c0.491,0,0.917,0.094,1.277,0.281c0.36,0.188,0.657,0.479,0.891,0.871c0.234,0.394,0.408,0.889,0.522,1.487
		c0.114,0.598,0.171,1.311,0.171,2.138c0,3.079-0.951,4.619-2.853,4.619c-1.902,0-2.853-1.563-2.853-4.689
		C125.688,107.048,126.637,105.479,128.533,105.479z M139.484,105.479c0.838,0,1.406,0.425,1.705,1.274
		c0.445-0.85,1.078-1.274,1.898-1.274c0.639,0,1.126,0.169,1.463,0.506c0.337,0.337,0.505,0.834,0.505,1.49v7.256h-1.692v-5.996
		c0-0.688-0.064-1.148-0.193-1.383c-0.123-0.24-0.362-0.361-0.718-0.361c-0.403,0-0.677,0.124-0.823,0.37
		c-0.14,0.241-0.21,0.698-0.21,1.374v5.996h-1.746v-5.996c0-0.323-0.016-0.596-0.048-0.819c-0.032-0.223-0.086-0.402-0.162-0.537
		s-0.175-0.233-0.298-0.295c-0.123-0.062-0.274-0.093-0.456-0.093c-0.386,0-0.661,0.133-0.824,0.396
		c-0.164,0.265-0.246,0.713-0.246,1.348v5.996h-1.674v-9.09h1.674v1.125C138.102,105.908,138.717,105.479,139.484,105.479z
		 M153.295,105.479c0.752,0,1.301,0.389,1.65,1.166c0.35,0.776,0.523,1.992,0.523,3.646c0,1.619-0.18,2.783-0.537,3.492
		c-0.354,0.728-0.92,1.092-1.702,1.092c-0.376,0-0.685-0.085-0.925-0.255c-0.118-0.083-0.235-0.2-0.353-0.353
		c-0.117-0.152-0.235-0.337-0.353-0.553v4.742h-1.674v-12.816h1.681v1.178c0.235-0.498,0.476-0.846,0.722-1.044
		C152.574,105.578,152.896,105.479,153.295,105.479z M175.033,105.479c0.69,0,1.246,0.396,1.667,1.19v-1.028h1.674v9.09H176.7
		v-1.169c-0.24,0.498-0.479,0.842-0.719,1.03c-0.24,0.188-0.557,0.283-0.948,0.283c-0.755,0-1.308-0.388-1.658-1.162
		c-0.351-0.773-0.526-1.988-0.526-3.642c0-1.578,0.176-2.738,0.526-3.479C173.725,105.85,174.278,105.479,175.033,105.479z
		 M186.829,105.479c0.738,0,1.266,0.29,1.581,0.871c0.176,0.328,0.264,0.964,0.264,1.908v6.473H187l-0.009-6.08
		c0-0.615-0.073-1.052-0.221-1.31c-0.146-0.258-0.398-0.386-0.757-0.386c-0.194,0-0.356,0.033-0.489,0.101
		c-0.131,0.067-0.238,0.176-0.32,0.325s-0.143,0.344-0.182,0.584c-0.037,0.24-0.057,0.536-0.057,0.888v5.878h-1.674v-9.09h1.674
		v1.046C185.446,105.881,186.067,105.479,186.829,105.479z M166.613,105.641h1.692v9.09h-1.692V105.641z M128.573,106.991
		c-0.396,0-0.679,0.235-0.848,0.705c-0.158,0.47-0.236,1.29-0.236,2.459s0.079,1.985,0.236,2.449
		c0.169,0.47,0.452,0.705,0.848,0.705s0.673-0.232,0.831-0.696c0.163-0.435,0.245-1.236,0.245-2.405
		c0-1.198-0.079-2.033-0.236-2.503C129.255,107.229,128.976,106.991,128.573,106.991z M152.621,106.991
		c-0.388,0-0.665,0.247-0.829,0.74c-0.165,0.459-0.247,1.275-0.247,2.45c0,1.176,0.082,1.992,0.247,2.45
		c0.17,0.488,0.447,0.731,0.829,0.731c0.4,0,0.684-0.234,0.855-0.705c0.165-0.435,0.247-1.245,0.247-2.433
		c0-1.239-0.082-2.08-0.247-2.521C153.318,107.229,153.033,106.991,152.621,106.991z M175.687,107.005
		c-0.396,0-0.679,0.234-0.849,0.703c-0.163,0.434-0.244,1.245-0.244,2.435c0,1.195,0.078,2.03,0.236,2.505
		c0.162,0.475,0.448,0.712,0.856,0.712c0.373,0,0.644-0.246,0.813-0.738c0.169-0.527,0.254-1.339,0.254-2.435
		c0-1.102-0.085-1.916-0.254-2.443C176.331,107.251,176.06,107.005,175.687,107.005z"/>
	<path fill="none" stroke="#010101" stroke-linejoin="round" stroke-miterlimit="10" d="M160.027,99.792h1.674v14.939h-1.674V99.792
		z M120.075,100.979c0.51,0,1.014,0.136,1.512,0.405v1.647c-0.469-0.229-0.861-0.343-1.177-0.343c-0.434,0-0.806,0.107-1.116,0.32
		c-0.311,0.214-0.567,0.543-0.769,0.988c-0.202,0.444-0.352,1.008-0.448,1.69c-0.097,0.682-0.146,1.488-0.146,2.419
		c0,3.348,0.859,5.022,2.576,5.022c0.299,0,0.659-0.094,1.081-0.281v1.676c-0.439,0.246-0.931,0.369-1.477,0.369
		c-2.749,0-4.124-2.243-4.124-6.729c0-2.425,0.336-4.229,1.007-5.411S118.692,100.979,120.075,100.979z M167.4,101.79
		c0.304,0,0.566,0.11,0.788,0.332s0.332,0.487,0.332,0.797c0,0.315-0.11,0.584-0.332,0.806s-0.49,0.333-0.806,0.333
		s-0.584-0.111-0.806-0.333c-0.216-0.216-0.324-0.487-0.324-0.814c0-0.304,0.111-0.566,0.333-0.788
		C166.825,101.9,167.096,101.79,167.4,101.79z M193.776,103.085h1.674v2.556h0.914v1.332h-0.914v7.758h-1.674v-7.758h-0.924v-1.332
		h0.924V103.085z M128.533,105.479c0.492,0,0.917,0.094,1.277,0.281c0.36,0.188,0.657,0.479,0.891,0.871
		c0.234,0.394,0.408,0.889,0.522,1.487c0.114,0.598,0.171,1.311,0.171,2.138c0,3.079-0.951,4.619-2.853,4.619
		c-1.902,0-2.853-1.563-2.853-4.689C125.688,107.048,126.637,105.479,128.533,105.479z M139.484,105.479
		c0.838,0,1.406,0.425,1.705,1.274c0.445-0.85,1.078-1.274,1.898-1.274c0.639,0,1.126,0.169,1.463,0.506s0.505,0.834,0.505,1.49
		v7.256h-1.692v-5.996c0-0.688-0.064-1.147-0.193-1.383c-0.123-0.24-0.362-0.361-0.718-0.361c-0.403,0-0.677,0.124-0.823,0.37
		c-0.14,0.241-0.21,0.698-0.21,1.374v5.996h-1.746v-5.996c0-0.323-0.016-0.596-0.048-0.819c-0.032-0.223-0.086-0.402-0.162-0.537
		c-0.076-0.135-0.175-0.233-0.298-0.295c-0.123-0.062-0.274-0.093-0.456-0.093c-0.386,0-0.661,0.133-0.824,0.396
		c-0.164,0.265-0.246,0.714-0.246,1.348v5.996h-1.674v-9.09h1.674v1.125C138.102,105.908,138.717,105.479,139.484,105.479z
		 M153.295,105.479c0.751,0,1.301,0.389,1.65,1.166c0.349,0.776,0.523,1.992,0.523,3.646c0,1.619-0.18,2.783-0.537,3.492
		c-0.354,0.728-0.92,1.092-1.702,1.092c-0.376,0-0.685-0.085-0.925-0.255c-0.118-0.082-0.235-0.199-0.353-0.352
		c-0.117-0.152-0.235-0.337-0.353-0.554v4.742h-1.674v-12.816h1.681v1.178c0.235-0.498,0.475-0.846,0.722-1.044
		C152.574,105.578,152.896,105.479,153.295,105.479z M175.033,105.479c0.69,0,1.246,0.396,1.667,1.19v-1.028h1.674v9.09H176.7
		v-1.169c-0.24,0.498-0.479,0.842-0.719,1.03c-0.24,0.188-0.557,0.283-0.948,0.283c-0.755,0-1.308-0.388-1.658-1.162
		c-0.351-0.773-0.526-1.988-0.526-3.642c0-1.578,0.176-2.738,0.526-3.479C173.725,105.85,174.278,105.479,175.033,105.479z
		 M186.829,105.479c0.738,0,1.266,0.29,1.581,0.871c0.176,0.328,0.264,0.964,0.264,1.908v6.473H187l-0.009-6.08
		c0-0.615-0.073-1.052-0.221-1.31c-0.146-0.258-0.398-0.386-0.757-0.386c-0.194,0-0.356,0.033-0.489,0.101
		c-0.131,0.067-0.238,0.176-0.32,0.325s-0.143,0.344-0.182,0.584c-0.037,0.24-0.057,0.536-0.057,0.888v5.878h-1.674v-9.09h1.674
		v1.046C185.446,105.881,186.067,105.479,186.829,105.479z M166.613,105.641h1.692v9.09h-1.692V105.641z M128.573,106.991
		c-0.396,0-0.679,0.235-0.848,0.705c-0.158,0.47-0.236,1.29-0.236,2.459s0.079,1.985,0.236,2.449
		c0.169,0.47,0.452,0.705,0.848,0.705s0.673-0.232,0.831-0.696c0.163-0.435,0.245-1.236,0.245-2.405
		c0-1.198-0.079-2.033-0.236-2.503C129.255,107.229,128.975,106.991,128.573,106.991z M152.621,106.991
		c-0.388,0-0.665,0.247-0.829,0.74c-0.165,0.459-0.247,1.275-0.247,2.45c0,1.176,0.082,1.992,0.247,2.45
		c0.17,0.488,0.447,0.731,0.829,0.731c0.399,0,0.684-0.234,0.855-0.705c0.165-0.435,0.247-1.245,0.247-2.433
		c0-1.239-0.082-2.079-0.247-2.521C153.317,107.229,153.033,106.991,152.621,106.991z M175.687,107.005
		c-0.396,0-0.679,0.234-0.849,0.703c-0.163,0.434-0.244,1.245-0.244,2.435c0,1.195,0.078,2.03,0.236,2.505
		c0.162,0.475,0.448,0.712,0.856,0.712c0.373,0,0.644-0.246,0.813-0.738c0.169-0.527,0.254-1.339,0.254-2.435
		c0-1.102-0.085-1.916-0.254-2.443C176.331,107.251,176.06,107.005,175.687,107.005z"/>
	<path fill="#010101" d="M214.139,66.128c0.867,0,1.695,0.207,2.484,0.622v2.382c-0.742-0.53-1.41-0.796-2.004-0.796
		c-0.641,0-1.164,0.226-1.57,0.679c-0.406,0.43-0.61,1.003-0.61,1.721c0,0.633,0.146,1.175,0.435,1.628
		c0.149,0.242,0.395,0.554,0.734,0.937c0.341,0.382,0.781,0.843,1.322,1.382c0.994,1.006,1.672,1.877,2.033,2.61
		c0.359,0.71,0.54,1.58,0.54,2.61c0,1.397-0.396,2.549-1.188,3.454c-0.792,0.882-1.805,1.323-3.04,1.323
		c-1.038,0-1.925-0.286-2.66-0.858v-2.419c0.867,0.633,1.656,0.949,2.368,0.949c0.663,0,1.183-0.221,1.558-0.661
		c0.375-0.441,0.562-1.04,0.562-1.797c0-0.655-0.145-1.245-0.435-1.768c-0.148-0.25-0.356-0.536-0.623-0.86
		c-0.266-0.324-0.599-0.685-0.998-1.083c-0.619-0.608-1.132-1.147-1.539-1.615c-0.408-0.469-0.709-0.878-0.905-1.229
		c-0.376-0.687-0.563-1.553-0.563-2.599c0-1.412,0.368-2.532,1.105-3.359C211.89,66.545,212.888,66.128,214.139,66.128z
		 M195.055,66.368h2.402l1.09,6.68l0.188,1.207l0.387,2.625c0.062,0.445,0.119,0.852,0.17,1.219s0.096,0.699,0.135,0.996
		l0.117,0.891c0.023-0.18,0.043-0.34,0.059-0.48s0.031-0.258,0.047-0.352l0.316-2.098l0.41-2.754c0.039-0.25,0.076-0.48,0.111-0.691
		s0.068-0.398,0.1-0.562l1.172-6.68h2.273l-3.551,18.097h-1.934L195.055,66.368z M205.365,66.368h2.448v18.097h-2.448V66.368z
		 M219.544,66.368h2.399v12.786c0,1.305,0.117,2.172,0.352,2.602c0.24,0.43,0.716,0.645,1.425,0.645
		c0.708,0,1.176-0.188,1.401-0.562c0.234-0.383,0.351-1.16,0.351-2.332V66.368h2.4v13.134c0,1.969-0.302,3.3-0.903,3.995
		c-0.719,0.789-1.818,1.184-3.296,1.184c-1.627,0-2.772-0.508-3.437-1.523c-0.462-0.695-0.692-2.03-0.692-4.007V66.368z
		 M233.211,66.368h1.898l3.879,18.097h-2.414l-0.68-3.528h-3.586l-0.691,3.528h-2.344L233.211,66.368z M240.416,66.368h2.448V82.4
		h3.984v2.064h-6.433V66.368z M234.125,69.876c-0.109,1.086-0.25,2.186-0.422,3.299s-0.375,2.295-0.609,3.545l-0.445,2.319h2.895
		l-0.539-2.882C234.645,74.197,234.352,72.103,234.125,69.876z"/>
	<path fill="none" stroke="#010101" stroke-linejoin="round" stroke-miterlimit="10" d="M214.139,66.128
		c0.867,0,1.695,0.207,2.484,0.622v2.383c-0.742-0.531-1.41-0.797-2.004-0.797c-0.641,0-1.164,0.226-1.57,0.679
		c-0.406,0.43-0.609,1.003-0.609,1.721c0,0.633,0.145,1.175,0.434,1.628c0.149,0.242,0.395,0.554,0.734,0.937
		c0.341,0.382,0.781,0.843,1.322,1.382c0.994,1.006,1.672,1.877,2.033,2.61c0.359,0.71,0.54,1.58,0.54,2.61
		c0,1.397-0.396,2.549-1.188,3.454c-0.792,0.882-1.805,1.323-3.04,1.323c-1.038,0-1.925-0.286-2.66-0.858v-2.419
		c0.867,0.633,1.656,0.949,2.368,0.949c0.663,0,1.183-0.221,1.558-0.661c0.375-0.441,0.562-1.04,0.562-1.797
		c0-0.655-0.145-1.245-0.435-1.768c-0.148-0.25-0.356-0.536-0.623-0.86c-0.266-0.324-0.599-0.685-0.998-1.083
		c-0.619-0.608-1.132-1.147-1.539-1.615c-0.408-0.469-0.709-0.878-0.905-1.229c-0.376-0.687-0.563-1.553-0.563-2.599
		c0-1.412,0.368-2.532,1.105-3.359C211.89,66.545,212.888,66.128,214.139,66.128z M195.055,66.368h2.402l1.09,6.68l0.188,1.207
		l0.387,2.625c0.062,0.445,0.119,0.852,0.17,1.219s0.096,0.699,0.135,0.996l0.117,0.891c0.023-0.18,0.043-0.34,0.059-0.48
		s0.031-0.258,0.047-0.352l0.316-2.098l0.41-2.754c0.039-0.25,0.076-0.48,0.111-0.691s0.068-0.398,0.1-0.562l1.172-6.68h2.273
		l-3.551,18.097h-1.934L195.055,66.368z M205.365,66.368h2.448v18.097h-2.448V66.368z M219.544,66.368h2.399v12.786
		c0,1.305,0.117,2.172,0.352,2.602c0.24,0.43,0.716,0.645,1.425,0.645c0.708,0,1.176-0.188,1.401-0.562
		c0.234-0.383,0.351-1.16,0.351-2.332V66.368h2.4v13.134c0,1.969-0.302,3.3-0.903,3.995c-0.719,0.789-1.818,1.184-3.296,1.184
		c-1.627,0-2.772-0.508-3.437-1.523c-0.462-0.695-0.692-2.03-0.692-4.007V66.368z M233.211,66.368h1.898l3.879,18.097h-2.414
		l-0.68-3.528h-3.586l-0.691,3.528h-2.344L233.211,66.368z M240.416,66.368h2.448V82.4h3.984v2.064h-6.433V66.368z M234.125,69.876
		c-0.109,1.086-0.25,2.186-0.422,3.299s-0.375,2.295-0.609,3.545l-0.445,2.319h2.895l-0.539-2.882
		C234.645,74.197,234.352,72.103,234.125,69.876z"/>
</g>
<g>
	<defs>
		
			<rect id="SVGID_11_" x="137.902" y="69.479" transform="matrix(-0.0815 0.9967 -0.9967 -0.0815 224.5916 -62.3196)" width="6.22" height="5.701"/>
	</defs>
	<clipPath id="SVGID_12_">
		<use xlink:href="#SVGID_11_"  overflow="visible"/>
	</clipPath>
	<g clip-path="url(#SVGID_12_)">
		<defs>
			
				<rect id="SVGID_13_" x="137.902" y="69.479" transform="matrix(-0.0815 0.9967 -0.9967 -0.0815 224.5916 -62.3196)" width="6.22" height="5.701"/>
		</defs>
		<clipPath id="SVGID_14_">
			<use xlink:href="#SVGID_13_"  overflow="visible"/>
		</clipPath>
		<g clip-path="url(#SVGID_14_)">
			<defs>
				<rect id="SVGID_15_" x="-7.746" y="23.151" width="320" height="288"/>
			</defs>
			<clipPath id="SVGID_16_">
				<use xlink:href="#SVGID_15_"  overflow="visible"/>
			</clipPath>
			
				<polygon clip-path="url(#SVGID_16_)" fill="none" stroke="#000000" stroke-width="0.5266" stroke-linejoin="round" stroke-miterlimit="10" points="
				143.54,75.446 143.798,72.286 141.36,69.431 138.495,71.852 138.237,75.011 			"/>
		</g>
	</g>
</g>
<g>
	<defs>
		
			<rect id="SVGID_17_" x="155.503" y="65.405" transform="matrix(-0.37 0.929 -0.929 -0.37 282.9187 -52.5671)" width="7.559" height="8.474"/>
	</defs>
	<clipPath id="SVGID_18_">
		<use xlink:href="#SVGID_17_"  overflow="visible"/>
	</clipPath>
	<g clip-path="url(#SVGID_18_)">
		<defs>
			
				<rect id="SVGID_19_" x="155.503" y="65.405" transform="matrix(-0.37 0.929 -0.929 -0.37 282.9187 -52.5671)" width="7.559" height="8.474"/>
		</defs>
		<clipPath id="SVGID_20_">
			<use xlink:href="#SVGID_19_"  overflow="visible"/>
		</clipPath>
		<g clip-path="url(#SVGID_20_)">
			<defs>
				<rect id="SVGID_21_" x="-7.746" y="23.151" width="320" height="288"/>
			</defs>
			<clipPath id="SVGID_22_">
				<use xlink:href="#SVGID_21_"  overflow="visible"/>
			</clipPath>
			
				<polyline clip-path="url(#SVGID_22_)" fill="none" stroke="#000000" stroke-width="0.6997" stroke-linejoin="round" stroke-miterlimit="10" points="
				156.334,66.687 158.676,65.467 159.488,67.943 			"/>
			
				<polyline clip-path="url(#SVGID_22_)" fill="none" stroke="#000000" stroke-width="0.6997" stroke-linejoin="round" stroke-miterlimit="10" points="
				161.842,74.321 156.067,72.022 158.588,65.689 			"/>
		</g>
	</g>
</g>
<g>
	<defs>
		<rect id="SVGID_23_" x="145.266" y="67.257" width="9.206" height="9.207"/>
	</defs>
	<clipPath id="SVGID_24_">
		<use xlink:href="#SVGID_23_"  overflow="visible"/>
	</clipPath>
	
		<rect x="147.729" y="69.75" clip-path="url(#SVGID_24_)" fill="none" stroke="#000000" stroke-width="0.8558" stroke-linejoin="round" stroke-miterlimit="10" width="4.583" height="4.582"/>
	
		<rect x="145.728" y="67.748" clip-path="url(#SVGID_24_)" fill="none" stroke="#000000" stroke-width="0.8558" stroke-linejoin="round" stroke-miterlimit="10" width="8.592" height="8.593"/>
</g>
<g>
	<defs>
		
			<rect id="SVGID_25_" x="143.344" y="78.469" transform="matrix(-0.8936 -0.4489 0.4489 -0.8936 243.6067 220.7118)" width="9.245" height="6.019"/>
	</defs>
	<clipPath id="SVGID_26_">
		<use xlink:href="#SVGID_25_"  overflow="visible"/>
	</clipPath>
	<g clip-path="url(#SVGID_26_)">
		<defs>
			
				<rect id="SVGID_27_" x="143.344" y="78.469" transform="matrix(-0.8936 -0.4489 0.4489 -0.8936 243.6067 220.7118)" width="9.245" height="6.019"/>
		</defs>
		<clipPath id="SVGID_28_">
			<use xlink:href="#SVGID_27_"  overflow="visible"/>
		</clipPath>
		<g clip-path="url(#SVGID_28_)">
			<defs>
				<rect id="SVGID_29_" x="-7.746" y="23.151" width="320" height="288"/>
			</defs>
			<clipPath id="SVGID_30_">
				<use xlink:href="#SVGID_29_"  overflow="visible"/>
			</clipPath>
			
				<rect x="143.633" y="78.867" transform="matrix(-0.8936 -0.4489 0.4489 -0.8936 243.6587 221.0165)" clip-path="url(#SVGID_30_)" fill="none" stroke="#000000" stroke-width="0.6595" stroke-linejoin="round" stroke-miterlimit="10" width="8.783" height="5.525"/>
			
				<line clip-path="url(#SVGID_30_)" fill="none" stroke="#000000" stroke-width="0.6595" stroke-linejoin="round" stroke-miterlimit="10" x1="145.623" y1="79.066" x2="146.597" y2="82.027"/>
			
				<line clip-path="url(#SVGID_30_)" fill="none" stroke="#000000" stroke-width="0.6595" stroke-linejoin="round" stroke-miterlimit="10" x1="144.631" y1="81.04" x2="147.588" y2="80.053"/>
			
				<line clip-path="url(#SVGID_30_)" fill="none" stroke="#000000" stroke-width="0.6595" stroke-linejoin="round" stroke-miterlimit="10" x1="147.182" y1="82.816" x2="150.32" y2="84.392"/>
		</g>
	</g>
</g>
<g>
	<defs>
		<rect id="SVGID_31_" x="155.17" y="75.979" width="4.117" height="8.475"/>
	</defs>
	<clipPath id="SVGID_32_">
		<use xlink:href="#SVGID_31_"  overflow="visible"/>
	</clipPath>
	
		<line clip-path="url(#SVGID_32_)" fill="none" stroke="#000000" stroke-width="0.7721" stroke-linejoin="round" stroke-miterlimit="10" x1="157.365" y1="84.31" x2="157.365" y2="80.321"/>
	
		<polygon clip-path="url(#SVGID_32_)" fill="none" stroke="#000000" stroke-width="0.7721" stroke-linejoin="round" stroke-miterlimit="10" points="
		157.365,76.336 157.365,76.336 157.749,76.396 158.075,76.461 158.393,76.647 158.649,76.832 158.843,77.083 159.039,77.392 
		159.104,77.708 159.163,78.078 159.104,78.454 159.039,78.764 158.843,79.074 158.649,79.325 158.393,79.515 158.075,79.701 
		157.749,79.76 157.365,79.826 156.981,79.76 156.661,79.701 156.335,79.515 156.082,79.325 155.886,79.074 155.691,78.764 
		155.631,78.454 155.567,78.078 155.631,77.708 155.691,77.392 155.886,77.083 156.082,76.832 156.335,76.647 156.661,76.461 
		156.981,76.396 	"/>
</g>
<g>
	<defs>
		
			<rect id="SVGID_33_" x="143.164" y="62.13" transform="matrix(-0.9867 0.1624 -0.1624 -0.9867 305.425 102.8979)" width="10.687" height="3.6"/>
	</defs>
	<clipPath id="SVGID_34_">
		<use xlink:href="#SVGID_33_"  overflow="visible"/>
	</clipPath>
	<g clip-path="url(#SVGID_34_)">
		<defs>
			
				<rect id="SVGID_35_" x="143.164" y="62.13" transform="matrix(-0.9867 0.1624 -0.1624 -0.9867 305.425 102.8979)" width="10.687" height="3.6"/>
		</defs>
		<clipPath id="SVGID_36_">
			<use xlink:href="#SVGID_35_"  overflow="visible"/>
		</clipPath>
		<g clip-path="url(#SVGID_36_)">
			<defs>
				<rect id="SVGID_37_" x="-7.746" y="23.151" width="320" height="288"/>
			</defs>
			<clipPath id="SVGID_38_">
				<use xlink:href="#SVGID_37_"  overflow="visible"/>
			</clipPath>
			
				<line clip-path="url(#SVGID_38_)" fill="none" stroke="#000000" stroke-width="0.9823" stroke-linejoin="round" stroke-miterlimit="10" x1="143.509" y1="63.441" x2="147.372" y2="62.805"/>
			
				<line clip-path="url(#SVGID_38_)" fill="none" stroke="#000000" stroke-width="0.9823" stroke-linejoin="round" stroke-miterlimit="10" x1="143.943" y1="66.08" x2="147.806" y2="65.444"/>
			
				<line clip-path="url(#SVGID_38_)" fill="none" stroke="#000000" stroke-width="0.9823" stroke-linejoin="round" stroke-miterlimit="10" x1="149.305" y1="62.487" x2="153.167" y2="61.851"/>
			
				<line clip-path="url(#SVGID_38_)" fill="none" stroke="#000000" stroke-width="0.9823" stroke-linejoin="round" stroke-miterlimit="10" x1="149.74" y1="65.125" x2="153.602" y2="64.49"/>
		</g>
	</g>
</g>
<g>
	
		<circle fill="none" stroke="#010101" stroke-width="2.25" stroke-linejoin="round" stroke-miterlimit="10" cx="150.372" cy="72.481" r="14.4"/>
</g>
</svg>
