<?xml version="1.0" encoding="utf-8"?>
<!-- Generator: Adobe Illustrator 16.0.0, SVG Export Plug-In . SVG Version: 6.00 Build 0)  -->
<!DOCTYPE svg PUBLIC "-//W3C//DTD SVG 1.1//EN" "http://www.w3.org/Graphics/SVG/1.1/DTD/svg11.dtd">
<svg version="1.1" id="Layer_1" xmlns="http://www.w3.org/2000/svg" xmlns:xlink="http://www.w3.org/1999/xlink" x="0px" y="0px"
	 width="311.045px" height="339.304px" viewBox="0 0 311.045 339.304" enable-background="new 0 0 311.045 339.304"
	 xml:space="preserve">
<g>
	<polyline fill="none" stroke="#8DC63F" stroke-width="6" stroke-linejoin="round" stroke-miterlimit="10" points="245.81,269.888 
		245.237,269.947 244.95,269.976 244.663,270.005 244.376,270.035 244.089,270.063 243.804,270.091 243.517,270.121 
		243.229,270.149 242.942,270.175 242.655,270.205 242.51,270.218 242.368,270.232 242.224,270.246 242.081,270.257 
		241.937,270.272 241.792,270.285 241.649,270.298 241.504,270.311 241.36,270.324 241.217,270.337 241.073,270.35 240.929,270.362 
		240.786,270.375 240.642,270.387 240.498,270.399 240.354,270.412 240.209,270.423 240.065,270.435 239.92,270.447 
		239.776,270.458 239.632,270.468 239.487,270.48 239.344,270.492 239.2,270.501 239.056,270.513 238.911,270.523 238.767,270.535 
		238.622,270.542 238.476,270.553 238.332,270.563 238.187,270.574 238.042,270.583 237.897,270.591 237.752,270.6 237.606,270.609 
		237.461,270.619 237.317,270.625 237.171,270.634 237.026,270.642 236.881,270.649 236.735,270.658 236.59,270.664 
		236.444,270.669 236.299,270.677 236.153,270.684 236.008,270.69 235.862,270.696 235.715,270.703 235.569,270.708 
		235.424,270.712 235.278,270.716 235.131,270.722 234.985,270.726 234.839,270.73 234.692,270.734 234.546,270.738 
		234.399,270.742 234.252,270.744 234.106,270.748 233.959,270.75 233.813,270.75 233.666,270.751 233.519,270.753 233.372,270.753 
		233.224,270.755 233.077,270.755 232.929,270.755 232.856,270.755 232.782,270.755 232.708,270.755 232.633,270.755 
		232.56,270.755 232.487,270.753 232.413,270.753 232.338,270.753 232.265,270.751 232.19,270.751 232.116,270.75 232.042,270.75 
		231.968,270.75 231.894,270.748 231.821,270.746 231.747,270.746 231.672,270.744 231.599,270.742 231.524,270.74 231.45,270.74 
		231.375,270.737 231.301,270.735 231.228,270.733 231.151,270.731 231.078,270.728 231.003,270.726 230.929,270.723 
		230.854,270.721 230.78,270.718 230.706,270.716 230.631,270.712 230.558,270.71 230.481,270.708 230.407,270.705 230.333,270.701 
		230.258,270.699 230.183,270.695 230.108,270.691 230.034,270.687 229.959,270.684 229.884,270.68 229.81,270.675 229.735,270.671 
		229.66,270.667 229.584,270.664 229.51,270.66 229.435,270.656 229.36,270.651 229.285,270.646 229.209,270.641 229.135,270.637 
		229.06,270.63 228.985,270.626 228.909,270.623 228.834,270.617 228.758,270.611 228.683,270.606 228.608,270.6 228.533,270.593 
		228.458,270.587 228.381,270.583 228.308,270.578 228.231,270.571 228.155,270.565 228.081,270.558 228.004,270.55 
		227.929,270.544 227.853,270.539 227.778,270.533 227.702,270.525 227.625,270.518 227.55,270.509 227.476,270.503 
		227.399,270.496 227.323,270.49 227.247,270.481 227.17,270.473 227.095,270.464 227.019,270.458 226.942,270.451 226.868,270.441 
		226.792,270.433 226.715,270.423 226.64,270.416 226.563,270.408 226.487,270.399 226.41,270.389 226.333,270.38 226.257,270.373 
		226.181,270.362 226.104,270.353 226.028,270.343 225.952,270.333 225.875,270.324 225.798,270.314 225.722,270.303 
		225.646,270.292 225.569,270.283 225.493,270.273 225.415,270.262 225.338,270.251 225.263,270.242 225.185,270.23 
		225.108,270.218 225.032,270.208 224.954,270.196 224.877,270.185 224.8,270.173 224.724,270.162 224.646,270.15 224.569,270.137 
		224.492,270.125 224.415,270.113 224.337,270.101 224.26,270.087 224.183,270.076 224.104,270.063 224.028,270.048 223.95,270.037 
		223.874,270.023 223.795,270.009 223.717,269.998 223.64,269.983 223.563,269.968 223.485,269.955 223.407,269.941 223.33,269.927 
		223.251,269.914 223.174,269.898 223.097,269.882 223.019,269.869 222.94,269.854 222.862,269.837 222.784,269.824 
		222.706,269.808 222.627,269.792 222.549,269.777 222.472,269.761 222.394,269.746 222.315,269.729 222.237,269.712 
		222.159,269.697 222.08,269.68 222,269.664 221.922,269.646 221.844,269.628 221.767,269.612 221.687,269.595 221.608,269.578 
		221.53,269.56 221.451,269.542 221.372,269.524 221.293,269.505 221.214,269.488 221.135,269.47 221.056,269.453 220.978,269.432 
		220.899,269.414 220.819,269.395 220.74,269.375 220.661,269.356 220.582,269.337 220.502,269.317 220.422,269.296 
		220.344,269.278 220.265,269.257 220.185,269.238 220.104,269.216 220.026,269.197 219.946,269.175 219.866,269.155 
		219.787,269.132 219.708,269.113 219.627,269.091 219.547,269.07 219.467,269.048 219.388,269.026 219.308,269.003 
		219.228,268.982 219.147,268.958 219.067,268.937 218.987,268.916 218.907,268.891 218.827,268.869 218.747,268.845 
		218.667,268.822 218.585,268.798 218.505,268.775 218.424,268.75 218.344,268.727 218.265,268.703 218.183,268.678 
		218.103,268.654 218.022,268.628 217.94,268.604 217.86,268.58 217.778,268.553 217.698,268.528 217.618,268.501 217.536,268.477 
		217.456,268.451 217.374,268.425 217.292,268.399 217.211,268.373 217.13,268.345 217.049,268.319 216.967,268.292 
		216.886,268.264 216.806,268.237 216.724,268.208 216.642,268.182 216.56,268.154 216.478,268.125 216.397,268.097 
		216.315,268.069 216.233,268.041 216.151,268.011 216.069,267.983 215.987,267.955 215.905,267.923 215.823,267.894 
		215.741,267.865 215.659,267.833 215.577,267.804 215.494,267.774 215.412,267.744 215.329,267.712 215.247,267.682 
		215.165,267.651 215.082,267.621 214.999,267.587 214.917,267.557 214.833,267.525 214.75,267.494 214.668,267.46 214.584,267.428 
		214.502,267.396 214.418,267.363 214.336,267.332 214.252,267.296 214.169,267.264 214.086,267.23 214.002,267.197 213.92,267.164 
		213.836,267.128 213.752,267.093 213.669,267.059 213.586,267.025 213.502,266.99 213.418,266.955 213.334,266.919 213.25,266.884 
		213.167,266.848 213.083,266.812 213,266.776 212.915,266.74 212.831,266.705 212.747,266.667 212.663,266.628 212.579,266.591 
		212.495,266.555 212.411,266.518 212.326,266.48 212.241,266.442 212.157,266.404 212.071,266.367 211.987,266.328 
		211.903,266.289 211.817,266.25 211.733,266.21 211.647,266.169 211.563,266.13 211.478,266.091 211.394,266.05 211.308,266.011 
		211.224,265.97 211.138,265.93 211.052,265.889 210.967,265.848 210.881,265.807 210.795,265.765 210.71,265.723 210.625,265.681 
		210.54,265.639 210.454,265.597 210.368,265.554 210.282,265.511 210.196,265.468 210.11,265.425 210.024,265.382 209.938,265.337 
		209.853,265.294 209.767,265.25 209.679,265.207 209.592,265.162 209.506,265.117 209.42,265.072 209.333,265.027 209.247,264.981 
		209.161,264.936 209.074,264.89 208.987,264.843 208.899,264.796 208.813,264.75 208.726,264.705 208.64,264.658 208.552,264.61 
		208.465,264.563 208.377,264.515 208.291,264.466 208.204,264.419 208.116,264.371 208.028,264.322 207.94,264.273 
		207.853,264.224 207.765,264.175 207.679,264.125 207.59,264.076 207.502,264.026 207.415,263.976 207.327,263.925 
		207.237,263.875 207.149,263.824 207.062,263.773 206.974,263.721 206.885,263.669 206.797,263.619 206.708,263.566 
		206.62,263.514 206.532,263.46 206.442,263.41 206.354,263.356 206.265,263.302 206.176,263.25 206.131,263.222 206.087,263.195 
		206.042,263.167 205.999,263.141 205.954,263.113 205.909,263.085 205.865,263.057 205.819,263.03 205.776,263.001 
		205.731,262.973 205.687,262.945 205.642,262.916 205.597,262.887 205.552,262.858 205.508,262.83 205.463,262.798 205.418,262.77 
		205.374,262.742 205.329,262.71 205.284,262.68 205.239,262.65 205.194,262.621 205.149,262.589 205.104,262.559 205.06,262.528 
		205.015,262.498 204.97,262.466 204.925,262.435 204.88,262.404 204.835,262.373 204.792,262.339 204.746,262.308 204.701,262.276 
		204.656,262.244 204.61,262.21 204.565,262.179 204.521,262.147 204.476,262.115 204.431,262.082 204.385,262.046 204.34,262.014 
		204.295,261.981 204.25,261.949 204.206,261.914 204.161,261.878 204.116,261.845 204.069,261.811 204.024,261.777 
		203.979,261.744 203.935,261.708 203.89,261.673 203.844,261.638 203.799,261.603 203.753,261.568 203.708,261.533 
		203.663,261.498 203.618,261.46 203.573,261.425 203.526,261.389 203.481,261.354 203.437,261.317 203.392,261.281 
		203.345,261.246 203.299,261.208 203.254,261.169 203.209,261.134 203.164,261.097 203.118,261.059 203.073,261.022 
		203.026,260.985 202.981,260.947 202.937,260.91 202.89,260.871 202.844,260.833 202.799,260.794 202.753,260.755 202.708,260.716 
		202.663,260.679 202.617,260.64 202.571,260.601 202.526,260.562 202.479,260.523 202.435,260.484 202.388,260.444 
		202.342,260.405 202.297,260.365 202.25,260.326 202.206,260.285 202.159,260.246 202.114,260.205 202.067,260.164 
		202.022,260.125 201.976,260.083 201.931,260.042 201.884,260 201.838,259.958 201.792,259.917 201.747,259.876 201.701,259.835 
		201.655,259.794 201.608,259.751 201.563,259.71 201.517,259.667 201.472,259.626 201.424,259.583 201.379,259.542 201.333,259.5 
		201.287,259.457 201.241,259.414 201.194,259.371 201.149,259.328 201.103,259.285 201.056,259.242 201.01,259.199 
		200.963,259.154 200.917,259.111 200.872,259.067 200.825,259.023 200.778,258.979 200.733,258.934 200.687,258.89 200.64,258.846 
		200.594,258.8 200.547,258.755 200.501,258.71 200.456,258.667 200.409,258.623 200.362,258.578 200.315,258.533 200.271,258.486 
		200.224,258.441 200.176,258.395 200.13,258.349 200.084,258.303 200.038,258.257 199.991,258.21 199.944,258.166 199.897,258.119 
		199.853,258.074 199.806,258.026 199.758,257.979 199.711,257.932 199.665,257.884 199.619,257.837 199.573,257.792 
		199.526,257.744 199.479,257.697 199.433,257.649 199.385,257.602 199.338,257.554 199.292,257.505 199.246,257.458 
		199.199,257.412 199.153,257.362 199.106,257.314 199.06,257.265 199.013,257.216 198.965,257.167 198.918,257.121 
		198.872,257.071 198.825,257.022 198.778,256.973 198.731,256.923 198.685,256.875 198.638,256.826 198.59,256.776 
		198.543,256.726 198.497,256.677 198.45,256.626 198.403,256.578 198.356,256.527 198.31,256.477 198.263,256.427 198.215,256.376 
		198.168,256.328 198.122,256.276 198.074,256.225 198.026,256.173 197.979,256.125 197.933,256.074 197.885,256.022 
		197.838,255.971 197.792,255.919 197.745,255.869 197.698,255.817 197.649,255.766 197.603,255.714 197.556,255.664 
		197.508,255.611 197.461,255.559 197.415,255.507 197.367,255.455 197.319,255.403 197.272,255.35 197.226,255.298 
		197.179,255.246 197.13,255.193 197.083,255.14 197.036,255.087 196.989,255.035 196.942,254.982 196.894,254.929 196.847,254.876 
		196.799,254.824 196.751,254.77 196.704,254.716 196.657,254.664 196.61,254.609 196.562,254.555 196.515,254.501 196.467,254.449 
		196.419,254.394 196.372,254.339 196.325,254.287 196.276,254.232 196.229,254.177 196.183,254.125 196.134,254.069 
		196.086,254.014 196.04,253.958 195.992,253.905 195.944,253.85 195.897,253.794 195.849,253.742 195.801,253.686 195.753,253.63 
		195.706,253.576 195.658,253.52 195.61,253.464 195.563,253.41 195.467,253.298 195.372,253.187 195.276,253.076 195.181,252.962 
		195.084,252.85 194.989,252.738 194.894,252.625 194.797,252.511 194.702,252.398 194.606,252.285 194.509,252.169 
		194.414,252.055 194.317,251.941 194.222,251.826 194.125,251.71 194.028,251.593 193.933,251.479 193.836,251.363 193.74,251.246 
		193.644,251.128 193.547,251.012 193.45,250.895 193.354,250.778 193.257,250.66 193.161,250.542 193.063,250.423 192.967,250.305 
		192.87,250.186 192.774,250.067 192.676,249.949 192.58,249.83 192.483,249.708 192.385,249.587 192.288,249.468 192.19,249.348 
		192.094,249.228 191.997,249.107 191.899,248.986 191.802,248.865 191.705,248.744 191.608,248.623 191.51,248.5 191.413,248.376 
		191.315,248.255 191.217,248.132 191.12,248.009 191.022,247.887 190.924,247.764 190.827,247.641 190.729,247.517 190.63,247.394 
		190.533,247.27 190.435,247.146 190.336,247.022 190.239,246.898 190.14,246.774 190.042,246.649 189.944,246.524 189.847,246.4 
		189.748,246.275 189.649,246.149 189.551,246.024 189.452,245.899 189.354,245.773 189.255,245.647 189.157,245.521 
		189.058,245.395 188.959,245.269 188.86,245.143 188.763,245.017 188.664,244.89 188.565,244.764 188.465,244.637 188.367,244.509 
		188.269,244.382 188.168,244.255 188.069,244.128 187.972,244.001 187.872,243.875 187.772,243.748 187.673,243.621 
		187.476,243.365 187.276,243.11 187.077,242.854 186.877,242.598 186.679,242.341 186.479,242.085 186.28,241.83 186.081,241.572 
		185.88,241.315 185.681,241.058 185.481,240.8 185.28,240.542 185.08,240.287 184.879,240.03 184.679,239.772 184.478,239.515 
		184.276,239.257 184.075,239.001 183.874,238.744 183.672,238.487 183.47,238.231 183.269,237.974 183.067,237.718 182.864,237.46 
		182.662,237.207 182.562,237.08 182.459,236.951 182.358,236.824 182.256,236.695 182.155,236.568 182.054,236.44 181.953,236.313 
		181.851,236.186 181.75,236.059 181.647,235.931 181.546,235.804 181.444,235.677 181.343,235.55 181.242,235.423 181.14,235.296 
		181.038,235.171 180.937,235.044 180.834,234.917 180.733,234.792 180.631,234.667 180.528,234.542 180.426,234.416 
		180.325,234.291 180.224,234.166 180.121,234.041 180.019,233.916 179.917,233.791 179.815,233.666 179.712,233.541 
		179.61,233.416 179.508,233.291 179.405,233.167 179.304,233.042 179.201,232.917 179.099,232.794 178.997,232.671 
		178.894,232.548 178.792,232.425 178.688,232.302 178.586,232.179 178.483,232.056 178.381,231.934 178.278,231.812 
		178.175,231.69 178.073,231.568 177.969,231.447 177.868,231.326 177.765,231.205 177.662,231.083 177.56,230.962 177.456,230.841 
		177.353,230.721 177.25,230.601 177.147,230.481 177.043,230.362 176.94,230.242 176.837,230.123 176.735,230.003 176.631,229.884 
		176.528,229.767 176.424,229.649 176.321,229.531 176.218,229.414 176.116,229.294 176.013,229.177 175.909,229.061 
		175.806,228.945 175.702,228.83 175.599,228.712 175.495,228.596 175.392,228.481 175.288,228.367 175.185,228.25 175.081,228.134 
		174.978,228.021 174.874,227.908 174.771,227.792 174.667,227.68 174.562,227.567 174.458,227.455 174.354,227.341 
		174.304,227.285 174.25,227.229 174.199,227.171 174.147,227.117 174.095,227.061 174.043,227.005 173.991,226.951 
		173.938,226.894 173.888,226.837 173.834,226.783 173.784,226.727 173.731,226.671 173.679,226.617 173.627,226.562 
		173.575,226.505 173.524,226.453 173.472,226.397 173.418,226.341 173.368,226.289 173.315,226.233 173.263,226.177 
		173.211,226.125 173.159,226.069 173.106,226.015 173.056,225.96 173.002,225.908 172.951,225.852 172.899,225.798 
		172.847,225.746 172.794,225.691 172.743,225.637 172.69,225.583 172.638,225.53 172.586,225.477 172.534,225.423 172.481,225.371 
		172.431,225.317 172.377,225.264 172.325,225.21 172.272,225.16 172.222,225.105 172.168,225.052 172.116,225 172.063,224.949 
		172.013,224.895 171.959,224.843 171.908,224.791 171.856,224.74 171.804,224.687 171.75,224.634 171.699,224.583 171.647,224.533 
		171.594,224.48 171.542,224.427 171.49,224.376 171.438,224.326 171.385,224.274 171.333,224.223 171.281,224.171 171.228,224.123 
		171.176,224.07 171.124,224.02 171.071,223.968 171.019,223.917 170.967,223.869 170.915,223.818 170.862,223.767 170.81,223.716 
		170.757,223.667 170.706,223.619 170.653,223.568 170.601,223.518 170.547,223.468 170.496,223.417 170.442,223.371 
		170.392,223.32 170.338,223.271 170.286,223.222 170.233,223.173 170.181,223.125 170.128,223.076 170.077,223.027 
		170.024,222.978 169.972,222.93 169.918,222.88 169.867,222.833 169.813,222.787 169.763,222.738 169.709,222.69 169.657,222.642 
		169.604,222.593 169.551,222.546 169.499,222.5 169.446,222.453 169.394,222.405 169.342,222.358 169.29,222.311 169.237,222.264 
		169.185,222.216 169.131,222.169 169.079,222.125 169.026,222.078 168.974,222.033 168.921,221.985 168.869,221.939 
		168.817,221.893 168.765,221.847 168.711,221.8 168.659,221.755 168.606,221.71 168.554,221.666 168.5,221.621 168.448,221.576 
		168.396,221.53 168.342,221.485 168.291,221.441 168.237,221.396 168.185,221.351 168.132,221.307 168.08,221.263 168.026,221.218 
		167.976,221.175 167.922,221.13 167.87,221.087 167.817,221.042 167.765,221 167.711,220.957 167.659,220.914 167.606,220.871 
		167.554,220.828 167.5,220.785 167.448,220.742 167.396,220.701 167.342,220.658 167.29,220.615 167.237,220.572 167.185,220.53 
		167.131,220.488 167.079,220.447 167.026,220.405 166.974,220.363 166.92,220.322 166.868,220.281 166.815,220.24 166.763,220.199 
		166.709,220.158 166.657,220.117 166.604,220.076 166.551,220.037 166.499,219.996 166.446,219.955 166.394,219.916 
		166.34,219.875 166.288,219.833 166.233,219.794 166.181,219.755 166.128,219.716 166.076,219.677 166.022,219.637 
		165.969,219.598 165.917,219.56 165.864,219.521 165.812,219.482 165.758,219.444 165.706,219.406 165.653,219.369 165.601,219.33 
		165.547,219.292 165.495,219.253 165.442,219.216 165.388,219.177 165.335,219.141 165.283,219.104 165.229,219.067 
		165.176,219.03 165.124,218.994 165.071,218.957 165.019,218.919 164.965,218.884 164.913,218.848 164.858,218.812 
		164.806,218.776 164.752,218.74 164.7,218.705 164.647,218.669 164.594,218.632 164.542,218.598 164.489,218.564 164.437,218.529 
		164.382,218.494 164.33,218.458 164.276,218.425 164.224,218.391 164.17,218.357 164.118,218.324 164.065,218.289 164.011,218.255 
		163.958,218.222 163.905,218.188 163.853,218.155 163.799,218.123 163.747,218.089 163.694,218.056 163.64,218.024 
		163.586,217.992 163.534,217.958 163.481,217.927 163.429,217.895 163.375,217.865 163.321,217.832 163.269,217.8 163.215,217.769 
		163.163,217.738 163.11,217.707 163.058,217.675 163.003,217.645 162.95,217.615 162.897,217.583 162.844,217.554 162.792,217.524 
		162.737,217.494 162.685,217.464 162.631,217.435 162.579,217.405 162.526,217.375 162.472,217.347 162.418,217.318 
		162.366,217.291 162.313,217.259 162.26,217.232 162.207,217.205 162.153,217.175 162.101,217.148 162.047,217.121 
		161.994,217.091 161.94,217.065 161.888,217.039 161.834,217.009 161.782,216.984 161.728,216.957 161.674,216.93 161.622,216.904 
		161.569,216.876 161.515,216.851 161.461,216.826 161.409,216.798 161.356,216.774 161.302,216.75 161.249,216.723 
		161.196,216.699 161.144,216.673 161.089,216.649 161.036,216.625 160.983,216.6 160.931,216.576 160.876,216.55 160.823,216.528 
		160.771,216.503 160.717,216.48 160.664,216.457 160.61,216.434 160.558,216.412 160.503,216.388 160.45,216.367 160.397,216.343 
		160.344,216.321 160.291,216.298 160.237,216.277 160.185,216.253 160.13,216.233 160.077,216.21 160.024,216.191 159.972,216.169 
		159.917,216.149 159.864,216.128 159.812,216.108 159.757,216.087 159.704,216.067 159.651,216.046 159.599,216.028 
		159.544,216.007 159.491,215.99 159.438,215.968 159.384,215.951 159.331,215.931 159.278,215.914 159.224,215.894 159.17,215.875 
		159.118,215.858 159.063,215.839 159.01,215.822 158.958,215.804 158.903,215.789 158.851,215.77 158.797,215.753 158.745,215.737 
		158.69,215.72 158.638,215.705 158.584,215.687 158.53,215.671 158.478,215.655 158.424,215.639 158.37,215.625 158.317,215.609 
		158.263,215.593 158.209,215.58 158.157,215.564 158.103,215.548 158.049,215.537 157.997,215.521 157.942,215.507 157.89,215.494 
		157.836,215.48 157.783,215.466 157.729,215.455 157.676,215.441 157.623,215.427 157.569,215.416 157.517,215.403 
		157.461,215.391 157.409,215.378 157.354,215.369 157.301,215.356 157.249,215.343 157.194,215.333 157.142,215.324 
		157.088,215.312 157.034,215.3 156.981,215.291 156.927,215.281 156.874,215.271 156.821,215.261 156.767,215.251 156.713,215.242 
		156.661,215.233 156.606,215.224 156.554,215.214 156.5,215.207 156.446,215.199 156.394,215.191 156.339,215.182 156.286,215.175 
		156.233,215.167 156.179,215.16 156.125,215.153 156.071,215.146 156.018,215.139 155.965,215.132 155.911,215.126 
		155.858,215.121 155.804,215.115 155.75,215.109 155.698,215.104 155.643,215.099 155.59,215.093 155.537,215.089 155.483,215.083 
		155.429,215.082 155.375,215.076 155.323,215.072 155.269,215.069 155.215,215.065 155.162,215.062 155.108,215.058 
		155.055,215.056 155,215.052 154.948,215.05 154.894,215.048 154.84,215.046 154.787,215.044 154.733,215.042 154.68,215.042 
		154.625,215.041 154.573,215.041 154.519,215.041 154.465,215.039 154.412,215.039 154.358,215.039 154.304,215.039 
		154.25,215.041 154.196,215.041 154.143,215.041 154.088,215.042 154.036,215.042 153.981,215.044 153.927,215.046 
		153.874,215.048 153.819,215.05 153.766,215.052 153.711,215.056 153.658,215.059 153.604,215.062 153.549,215.065 
		153.496,215.069 153.442,215.074 153.387,215.078 153.333,215.082 153.28,215.085 153.225,215.089 153.171,215.093 
		153.117,215.099 153.062,215.105 153.008,215.11 152.954,215.117 152.9,215.123 152.846,215.126 152.791,215.134 152.737,215.14 
		152.683,215.147 152.628,215.154 152.574,215.162 152.52,215.167 152.465,215.175 152.411,215.184 152.356,215.192 
		152.302,215.201 152.247,215.208 152.192,215.216 152.138,215.226 152.083,215.235 152.029,215.244 151.974,215.253 
		151.92,215.263 151.865,215.273 151.811,215.283 151.756,215.292 151.701,215.302 151.646,215.314 151.592,215.326 
		151.537,215.335 151.482,215.347 151.427,215.359 151.373,215.371 151.318,215.382 151.263,215.394 151.208,215.408 
		151.153,215.417 151.098,215.431 151.043,215.444 150.989,215.458 150.934,215.47 150.879,215.484 150.824,215.498 
		150.769,215.511 150.714,215.525 150.659,215.541 150.604,215.554 150.548,215.569 150.494,215.583 150.438,215.598 
		150.383,215.615 150.328,215.628 150.273,215.644 150.218,215.66 150.163,215.675 150.107,215.692 150.052,215.708 
		149.997,215.725 149.942,215.742 149.886,215.757 149.831,215.776 149.776,215.792 149.721,215.81 149.665,215.828 149.61,215.846 
		149.554,215.865 149.499,215.882 149.443,215.901 149.388,215.919 149.333,215.938 149.277,215.957 149.222,215.976 
		149.166,215.996 149.111,216.015 149.055,216.035 149,216.054 148.944,216.076 148.889,216.093 148.833,216.115 148.777,216.134 
		148.722,216.158 148.666,216.177 148.61,216.199 148.555,216.218 148.499,216.242 148.443,216.263 148.388,216.285 
		148.332,216.307 148.276,216.33 148.22,216.351 148.165,216.375 148.109,216.397 148.053,216.419 147.997,216.443 147.941,216.466 
		147.885,216.49 147.83,216.513 147.773,216.537 147.718,216.561 147.662,216.583 147.606,216.609 147.55,216.632 147.494,216.66 
		147.438,216.683 147.382,216.708 147.326,216.734 147.27,216.757 147.214,216.785 147.158,216.81 147.102,216.835 147.045,216.862 
		146.989,216.888 146.933,216.916 146.877,216.941 146.821,216.966 146.765,216.996 146.708,217.022 146.652,217.048 
		146.596,217.076 146.54,217.104 146.483,217.13 146.427,217.16 146.371,217.187 146.315,217.214 146.258,217.244 146.202,217.272 
		146.146,217.3 146.089,217.33 146.033,217.359 145.977,217.388 145.92,217.417 145.864,217.447 145.808,217.476 145.751,217.505 
		145.694,217.537 145.638,217.566 145.582,217.596 145.525,217.626 145.469,217.658 145.412,217.688 145.355,217.718 
		145.299,217.75 145.243,217.783 145.186,217.813 145.129,217.843 145.073,217.876 145.016,217.908 144.959,217.94 144.903,217.972 
		144.846,218.003 144.79,218.037 144.733,218.07 144.676,218.102 144.619,218.134 144.562,218.167 144.506,218.203 144.449,218.235 
		144.393,218.268 144.335,218.302 144.279,218.335 144.222,218.371 144.165,218.404 144.108,218.438 144.051,218.473 
		143.995,218.507 143.938,218.542 143.881,218.578 143.824,218.612 143.767,218.647 143.71,218.682 143.653,218.718 
		143.596,218.753 143.54,218.791 143.482,218.826 143.425,218.861 143.369,218.897 143.312,218.933 143.254,218.97 143.197,219.005 
		143.14,219.042 143.083,219.082 143.026,219.117 142.969,219.155 142.912,219.192 142.855,219.229 142.798,219.267 
		142.741,219.304 142.684,219.341 142.626,219.38 142.569,219.417 142.512,219.457 142.455,219.496 142.397,219.535 142.34,219.572 
		142.283,219.611 142.226,219.65 142.169,219.689 142.111,219.728 142.054,219.768 141.997,219.807 141.939,219.846 
		141.882,219.886 141.825,219.925 141.768,219.966 141.71,220.005 141.653,220.046 141.596,220.087 141.539,220.126 
		141.481,220.167 141.423,220.208 141.366,220.25 141.309,220.292 141.251,220.333 141.194,220.375 141.136,220.416 
		141.079,220.457 141.021,220.5 140.964,220.541 140.907,220.583 140.849,220.625 140.792,220.667 140.734,220.708 140.676,220.751 
		140.619,220.792 140.562,220.835 140.504,220.878 140.446,220.921 140.389,220.964 140.331,221.007 140.273,221.05 
		140.216,221.095 140.158,221.138 140.101,221.182 140.043,221.226 139.985,221.27 139.928,221.314 139.87,221.358 139.812,221.403 
		139.755,221.447 139.697,221.492 139.639,221.537 139.582,221.582 139.524,221.625 139.466,221.669 139.408,221.714 
		139.351,221.759 139.293,221.806 139.235,221.851 139.177,221.897 139.12,221.943 139.062,221.99 139.004,222.035 138.946,222.082 
		138.888,222.126 138.831,222.171 138.772,222.218 138.715,222.265 138.657,222.312 138.599,222.359 138.541,222.406 
		138.483,222.453 138.425,222.5 138.367,222.546 138.31,222.593 138.251,222.641 138.194,222.688 138.136,222.736 138.078,222.785 
		138.02,222.832 137.962,222.878 137.904,222.927 137.846,222.975 137.788,223.023 137.73,223.071 137.672,223.121 137.614,223.167 
		137.556,223.216 137.498,223.265 137.44,223.314 137.382,223.363 137.324,223.412 137.266,223.46 137.208,223.509 137.149,223.559 
		137.091,223.609 137.033,223.66 136.975,223.708 136.917,223.757 136.859,223.807 136.801,223.857 136.743,223.908 
		136.685,223.958 136.626,224.007 136.568,224.058 136.51,224.108 136.452,224.16 136.394,224.208 136.335,224.259 136.277,224.31 
		136.219,224.361 136.161,224.414 136.103,224.462 136.044,224.514 135.986,224.565 135.928,224.617 135.87,224.667 
		135.812,224.718 135.753,224.771 135.695,224.824 135.637,224.875 135.579,224.925 135.52,224.978 135.462,225.03 135.404,225.083 
		135.345,225.134 135.287,225.187 135.229,225.24 135.17,225.292 135.112,225.343 135.054,225.397 134.996,225.451 134.937,225.501 
		134.878,225.555 134.82,225.608 134.762,225.662 134.704,225.714 134.645,225.767 134.587,225.821 134.528,225.875 134.47,225.927 
		134.412,225.981 134.353,226.035 134.295,226.087 134.236,226.142 134.178,226.196 134.12,226.25 134.061,226.304 134.002,226.358 
		133.886,226.466 133.769,226.576 133.652,226.684 133.535,226.792 133.418,226.903 133.301,227.013 133.184,227.125 
		133.067,227.234 132.95,227.343 132.833,227.457 132.716,227.567 132.599,227.677 132.481,227.791 132.364,227.903 
		132.247,228.015 132.13,228.126 132.013,228.242 131.896,228.354 131.778,228.466 131.661,228.582 131.544,228.695 
		131.427,228.809 131.309,228.923 131.192,229.039 131.075,229.153 130.958,229.268 130.84,229.384 130.723,229.5 130.605,229.617 
		130.488,229.731 130.371,229.847 130.253,229.964 130.136,230.082 130.018,230.199 129.901,230.315 129.784,230.432 
		129.666,230.548 129.548,230.667 129.431,230.787 129.313,230.904 129.196,231.022 129.079,231.14 128.961,231.257 
		128.843,231.376 128.726,231.498 128.608,231.617 128.491,231.735 128.374,231.854 128.256,231.974 128.138,232.093 
		128.021,232.212 127.903,232.333 127.786,232.455 127.668,232.576 127.551,232.695 127.433,232.816 127.315,232.936 
		127.198,233.057 127.08,233.177 126.963,233.298 126.845,233.419 126.728,233.542 126.61,233.664 126.492,233.787 126.375,233.908 
		126.257,234.029 126.14,234.151 126.022,234.273 125.904,234.395 125.787,234.517 125.669,234.639 125.552,234.762 
		125.434,234.884 125.316,235.007 125.082,235.251 124.846,235.498 124.611,235.744 124.376,235.99 124.141,236.236 
		123.906,236.483 123.671,236.729 123.436,236.976 123.201,237.223 122.731,237.716 122.262,238.21 122.027,238.458 
		121.792,238.705 121.558,238.951 121.323,239.199 121.089,239.445 120.854,239.691 120.62,239.937 120.386,240.183 
		120.152,240.429 119.917,240.673 119.8,240.796 119.683,240.919 119.566,241.042 119.449,241.166 119.333,241.287 119.215,241.41 
		119.099,241.531 118.981,241.653 118.865,241.775 118.748,241.897 118.631,242.019 118.514,242.14 118.397,242.262 
		118.281,242.382 118.164,242.503 118.047,242.625 117.931,242.748 117.814,242.869 117.697,242.99 117.581,243.11 117.464,243.23 
		117.347,243.35 117.231,243.47 117.114,243.589 116.998,243.71 116.881,243.832 116.765,243.951 116.648,244.07 116.532,244.189 
		116.416,244.308 116.299,244.427 116.183,244.546 116.067,244.666 115.951,244.785 115.834,244.902 115.718,245.02 
		115.602,245.138 115.486,245.255 115.37,245.375 115.254,245.492 115.138,245.608 115.022,245.724 114.906,245.841 114.79,245.958 
		114.674,246.076 114.559,246.19 114.442,246.306 114.327,246.421 114.211,246.539 114.095,246.653 113.979,246.768 
		113.864,246.882 113.749,246.998 113.633,247.111 113.517,247.225 113.402,247.339 113.287,247.453 113.171,247.566 
		113.056,247.679 112.94,247.792 112.825,247.904 112.71,248.016 112.595,248.128 112.479,248.24 112.364,248.351 112.249,248.462 
		112.134,248.574 112.019,248.684 111.904,248.794 111.789,248.905 111.674,249.014 111.56,249.125 111.445,249.233 111.33,249.341 
		111.215,249.451 111.158,249.503 111.101,249.558 111.043,249.612 110.986,249.666 110.929,249.718 110.872,249.774 
		110.814,249.828 110.757,249.88 110.7,249.934 110.643,249.988 110.585,250.041 110.528,250.093 110.471,250.147 110.414,250.201 
		110.356,250.253 110.299,250.306 110.242,250.359 110.185,250.412 110.128,250.464 110.071,250.517 110.014,250.57 
		109.957,250.623 109.899,250.673 109.842,250.726 109.785,250.779 109.728,250.832 109.671,250.882 109.614,250.934 
		109.557,250.987 109.5,251.039 109.443,251.089 109.386,251.141 109.329,251.193 109.272,251.244 109.215,251.294 109.159,251.346 
		109.102,251.397 109.044,251.449 108.988,251.5 108.931,251.55 108.874,251.601 108.817,251.651 108.76,251.703 108.704,251.751 
		108.647,251.802 108.59,251.853 108.533,251.903 108.477,251.953 108.419,252.001 108.363,252.052 108.306,252.102 108.25,252.152 
		108.193,252.203 108.136,252.25 108.08,252.3 108.023,252.349 107.966,252.399 107.91,252.449 107.853,252.498 107.796,252.544 
		107.74,252.593 107.683,252.643 107.626,252.691 107.57,252.74 107.513,252.789 107.457,252.835 107.4,252.884 107.344,252.932 
		107.288,252.98 107.231,253.028 107.174,253.076 107.118,253.125 107.062,253.169 107.005,253.218 106.949,253.265 
		106.893,253.312 106.836,253.36 106.78,253.408 106.723,253.455 106.667,253.5 106.611,253.546 106.554,253.593 106.498,253.639 
		106.442,253.686 106.386,253.732 106.33,253.778 106.273,253.824 106.217,253.871 106.161,253.916 106.104,253.96 106.048,254.005 
		105.992,254.052 105.936,254.097 105.88,254.142 105.824,254.187 105.768,254.232 105.712,254.277 105.656,254.322 105.6,254.367 
		105.543,254.412 105.488,254.455 105.432,254.5 105.375,254.542 105.32,254.587 105.264,254.63 105.208,254.675 105.152,254.718 
		105.096,254.762 105.04,254.805 104.984,254.848 104.928,254.892 104.873,254.935 104.817,254.978 104.761,255.02 104.705,255.063 
		104.649,255.106 104.594,255.148 104.538,255.19 104.482,255.232 104.426,255.274 104.371,255.316 104.315,255.358 104.259,255.4 
		104.204,255.441 104.148,255.483 104.092,255.524 104.037,255.565 103.981,255.606 103.926,255.647 103.87,255.687 
		103.814,255.728 103.759,255.769 103.704,255.809 103.648,255.849 103.593,255.889 103.537,255.929 103.482,255.968 
		103.426,256.007 103.371,256.048 103.315,256.087 103.26,256.126 103.205,256.167 103.149,256.207 103.094,256.244 
		103.039,256.283 102.984,256.322 102.928,256.36 102.873,256.398 102.818,256.436 102.763,256.474 102.708,256.512 102.652,256.55 
		102.597,256.587 102.542,256.625 102.487,256.664 102.432,256.701 102.376,256.737 102.322,256.774 102.267,256.811 
		102.211,256.847 102.157,256.884 102.102,256.919 102.046,256.957 101.992,256.994 101.937,257.029 101.882,257.064 101.827,257.1 
		101.772,257.134 101.717,257.171 101.662,257.207 101.607,257.242 101.553,257.276 101.498,257.311 101.443,257.346 
		101.388,257.38 101.333,257.416 101.279,257.449 101.224,257.483 101.169,257.517 101.115,257.55 101.06,257.583 101.005,257.619 
		100.951,257.651 100.896,257.684 100.842,257.716 100.787,257.75 100.732,257.783 100.678,257.815 100.624,257.847 
		100.569,257.878 100.515,257.912 100.46,257.944 100.406,257.975 100.352,258.007 100.297,258.039 100.243,258.07 100.188,258.101 
		100.134,258.132 100.08,258.164 100.025,258.194 99.971,258.224 99.917,258.253 99.863,258.285 99.809,258.315 99.754,258.343 
		99.7,258.375 99.646,258.404 99.592,258.433 99.538,258.462 99.483,258.492 99.43,258.521 99.375,258.548 99.321,258.578 
		99.268,258.607 99.213,258.634 99.16,258.664 99.105,258.691 99.052,258.718 98.998,258.748 98.944,258.774 98.89,258.8 
		98.836,258.83 98.782,258.855 98.729,258.882 98.675,258.91 98.621,258.935 98.567,258.96 98.514,258.988 98.46,259.013 
		98.406,259.041 98.353,259.065 98.299,259.089 98.245,259.117 98.192,259.14 98.138,259.166 98.084,259.19 98.031,259.214 
		97.978,259.24 97.924,259.263 97.871,259.289 97.817,259.311 97.764,259.335 97.71,259.359 97.657,259.382 97.604,259.405 
		97.55,259.428 97.497,259.451 97.444,259.474 97.39,259.498 97.337,259.518 97.284,259.541 97.23,259.563 97.177,259.583 
		97.124,259.606 97.071,259.626 97.018,259.649 96.965,259.669 96.912,259.691 96.859,259.71 96.806,259.732 96.753,259.751 
		96.7,259.772 96.647,259.792 96.594,259.812 96.541,259.832 96.488,259.851 96.435,259.871 96.382,259.889 96.329,259.91 
		96.276,259.927 96.223,259.947 96.17,259.964 96.117,259.984 96.064,260.001 96.011,260.021 95.958,260.041 95.904,260.057 
		95.851,260.076 95.798,260.093 95.745,260.112 95.691,260.128 95.638,260.148 95.584,260.166 95.531,260.183 95.478,260.201 
		95.424,260.216 95.371,260.235 95.317,260.251 95.264,260.269 95.21,260.287 95.156,260.303 95.103,260.32 95.049,260.335 
		94.995,260.353 94.941,260.371 94.888,260.386 94.834,260.403 94.78,260.417 94.726,260.435 94.672,260.451 94.619,260.466 
		94.564,260.483 94.511,260.5 94.457,260.514 94.403,260.53 94.349,260.544 94.294,260.561 94.24,260.576 94.187,260.591 
		94.132,260.606 94.078,260.623 94.024,260.636 93.97,260.651 93.915,260.666 93.861,260.68 93.807,260.695 93.752,260.708 
		93.698,260.724 93.644,260.738 93.589,260.751 93.535,260.766 93.48,260.781 93.426,260.794 93.372,260.808 93.317,260.822 
		93.262,260.835 93.208,260.849 93.153,260.863 93.099,260.875 93.044,260.889 92.989,260.902 92.935,260.916 92.88,260.928 
		92.825,260.941 92.77,260.955 92.715,260.966 92.661,260.979 92.606,260.992 92.551,261.003 92.496,261.017 92.441,261.029 
		92.386,261.042 92.331,261.053 92.276,261.065 92.221,261.078 92.166,261.089 92.111,261.101 92.056,261.113 92.001,261.125 
		91.946,261.134 91.891,261.147 91.835,261.16 91.78,261.169 91.725,261.18 91.67,261.192 91.615,261.203 91.56,261.212 
		91.504,261.224 91.449,261.235 91.394,261.246 91.338,261.255 91.283,261.267 91.228,261.277 91.172,261.289 91.117,261.296 
		91.061,261.307 91.006,261.318 90.95,261.328 90.895,261.337 90.839,261.347 90.784,261.357 90.728,261.367 90.673,261.375 
		90.617,261.384 90.562,261.395 90.506,261.404 90.45,261.414 90.395,261.421 90.339,261.431 90.283,261.44 90.228,261.449 
		90.171,261.458 90.06,261.475 89.948,261.492 89.837,261.507 89.725,261.525 89.613,261.541 89.501,261.556 89.389,261.572 
		89.277,261.585 89.165,261.602 89.053,261.617 88.941,261.63 88.829,261.644 88.716,261.658 88.604,261.669 88.491,261.683 
		88.379,261.696 88.266,261.708 88.153,261.718 88.041,261.731 87.928,261.744 87.815,261.753 87.703,261.764 87.589,261.774 
		87.477,261.785 87.364,261.794 87.25,261.803 87.137,261.813 87.024,261.822 86.911,261.83 86.798,261.837 86.685,261.846 
		86.571,261.854 86.458,261.861 86.344,261.869 86.231,261.875 86.118,261.88 86.004,261.888 85.89,261.894 85.777,261.9 
		85.663,261.905 85.549,261.91 85.436,261.916 85.322,261.919 85.208,261.923 85.094,261.927 84.98,261.931 84.867,261.935 
		84.752,261.938 84.639,261.941 84.525,261.944 84.411,261.946 84.297,261.949 84.183,261.951 84.069,261.953 83.955,261.953 
		83.84,261.955 83.727,261.955 83.612,261.955 83.498,261.957 83.384,261.957 83.27,261.955 83.155,261.955 83.041,261.955 
		82.927,261.953 82.813,261.953 82.699,261.951 82.584,261.949 82.47,261.946 82.355,261.944 82.241,261.941 82.127,261.939 
		82.013,261.936 81.898,261.932 81.784,261.929 81.669,261.925 81.555,261.921 81.441,261.917 81.327,261.914 81.212,261.908 
		81.098,261.903 80.983,261.898 80.869,261.893 80.755,261.887 80.641,261.88 80.526,261.875 80.412,261.869 80.298,261.863 
		80.184,261.856 80.069,261.849 79.955,261.841 79.84,261.833 79.726,261.828 79.612,261.819 79.498,261.811 79.383,261.803 
		79.269,261.794 79.155,261.787 79.041,261.777 78.927,261.768 78.812,261.757 78.699,261.75 78.584,261.74 78.47,261.73 
		78.356,261.718 78.242,261.708 78.128,261.699 78.014,261.688 77.9,261.677 77.787,261.667 77.672,261.655 77.559,261.643 
		77.445,261.63 77.331,261.621 77.217,261.608 77.104,261.595 76.99,261.583 76.876,261.571 76.762,261.558 76.649,261.544 
		76.535,261.533 76.422,261.518 76.308,261.503 76.195,261.492 76.082,261.477 75.968,261.462 75.854,261.449 75.742,261.434 
		75.628,261.419 75.515,261.405 75.402,261.39 75.289,261.375 75.176,261.36 75.063,261.343 74.95,261.33 74.837,261.313 
		74.724,261.296 74.611,261.281 74.499,261.265 74.386,261.25 74.273,261.232 74.161,261.214 74.048,261.199 73.936,261.181 
		73.823,261.166 73.711,261.147 73.599,261.128 73.486,261.112 73.375,261.093 73.262,261.076 73.15,261.058 73.039,261.041 
		72.926,261.021 72.814,261.001 72.703,260.984 72.591,260.964 72.479,260.947 72.368,260.927 72.257,260.908 72.145,260.889 
		72.034,260.871 71.923,260.85 71.812,260.83 71.701,260.81 71.589,260.791 71.479,260.77 71.368,260.75 71.257,260.729 
		71.146,260.708 71.036,260.688 70.925,260.667 70.814,260.647 70.704,260.625 70.594,260.605 70.484,260.583 70.374,260.562 
		70.264,260.541 70.154,260.519 70.044,260.498 69.935,260.475 69.825,260.455 69.715,260.431 69.606,260.41 69.497,260.387 
		69.387,260.365 69.278,260.341 69.169,260.32 69.06,260.296 68.951,260.275 68.842,260.251 68.734,260.229 68.625,260.207 
		68.517,260.183 68.408,260.16 68.3,260.136 68.192,260.113 68.084,260.089 67.976,260.066 67.868,260.042 67.761,260.019 
		67.653,259.996 67.545,259.971 67.438,259.947 67.331,259.923 67.224,259.899 67.117,259.875 67.01,259.85 66.903,259.826 
		66.796,259.8 66.69,259.777 66.583,259.751 66.477,259.728 66.371,259.703 66.265,259.678 66.159,259.654 66.053,259.628 
		65.947,259.603 65.842,259.58 65.736,259.553 65.631,259.528 65.526,259.501 65.421,259.477 65.316,259.453 65.211,259.425 
		65.106,259.401 65.002,259.375 64.897,259.35 64.793,259.326 64.689,259.298 64.585,259.273 64.481,259.248 64.378,259.221 
		64.274,259.196 64.171,259.169 64.068,259.144 63.964,259.119 63.862,259.091 63.759,259.066 63.656,259.041 63.554,259.013 
		63.451,258.988 63.349,258.96 63.247,258.935 63.145,258.91 63.043,258.882 62.941,258.856 62.84,258.83 62.739,258.803 
		62.638,258.777 62.537,258.75 62.436,258.724 62.335,258.699 62.234,258.671 62.134,258.644 62.034,258.619 61.934,258.591 
		61.834,258.565 61.734,258.539 61.635,258.511 61.535,258.485 61.436,258.458 61.337,258.432 61.238,258.405 61.139,258.378 
		61.041,258.352 60.942,258.326 60.844,258.298 60.746,258.272 60.648,258.246 60.55,258.218 60.453,258.192 60.355,258.166 
		60.258,258.139 60.162,258.112 60.064,258.085 59.968,258.059 59.872,258.033 59.775,258.005 59.679,257.979 59.583,257.953 
		59.488,257.925 59.392,257.899 59.297,257.873 59.202,257.846 59.106,257.82 59.012,257.792 58.917,257.767 58.823,257.742 
		58.729,257.714 58.635,257.688 58.541,257.662 58.447,257.634 58.354,257.609 58.261,257.583 58.167,257.556 58.075,257.53 
		57.982,257.503 57.89,257.478 57.797,257.453 57.706,257.425 57.614,257.4 57.522,257.375 57.431,257.347 57.339,257.322 
		57.249,257.294 57.158,257.27 57.067,257.246 56.977,257.218 56.887,257.193 56.796,257.167 56.707,257.142 56.617,257.117 
		56.528,257.089 56.439,257.065 56.35,257.041 56.261,257.015 56.173,256.99 56.084,256.964 55.997,256.939 55.909,256.916 
		55.821,256.889 55.734,256.865 55.647,256.839 55.56,256.815 55.473,256.791 55.387,256.765 55.301,256.742 55.215,256.716 
		55.129,256.692 55.043,256.667 54.958,256.643 54.873,256.619 54.788,256.595 54.704,256.571 54.619,256.546 54.535,256.523 
		54.451,256.5 54.368,256.475 54.284,256.453 54.201,256.428 54.118,256.405 54.035,256.38 53.953,256.358 53.871,256.333 
		53.789,256.312 53.707,256.289 53.625,256.266 53.544,256.244 53.463,256.22 53.382,256.199 53.302,256.175 53.222,256.153 
		53.142,256.13 53.062,256.109 52.982,256.085 52.903,256.064 52.824,256.042 52.746,256.021 52.667,256 52.589,255.978 
		52.511,255.957 52.434,255.935 52.356,255.914 52.331,255.91 	"/>
	<polygon fill="#8DC63F" points="64.052,258.479 72.56,275.703 46.47,254.623 78.988,246.399 	"/>
	<polyline fill="none" stroke="#B5B6B6" stroke-width="6" stroke-linejoin="round" stroke-miterlimit="10" points="54.765,201.566 
		64.132,200.787 68.952,200.738 73.836,201.085 78.836,201.902 83.994,203.322 89.405,205.552 94.996,208.647 97.917,210.792 
		100.873,213.52 103.872,216.769 106.935,220.414 113.177,228.554 119.608,237.112 126.173,245.242 129.559,248.875 132.88,252.111 
		136.283,254.848 139.726,256.951 143.156,258.343 146.656,258.916 150.174,258.591 153.772,257.382 157.483,255.486 
		161.233,252.955 165.011,249.849 168.853,246.371 176.592,238.65 184.342,230.483 191.938,222.869 195.687,219.565 199.299,216.69 
		202.956,214.335 206.429,212.72 209.933,211.689 213.575,211 220.954,210.6 228.349,211.294 235.505,212.655 242.215,214.392 
		248.281,216.152 251.399,216.929 	"/>
	<polygon fill="#B5B6B6" points="231.742,196.568 257.222,218.38 224.483,225.677 	"/>
	<path fill="#010101" d="M165.358,263.512h1.674v14.94h-1.674V263.512z M125.406,264.701c0.51,0,1.014,0.135,1.512,0.405v1.647
		c-0.469-0.229-0.861-0.344-1.178-0.344c-0.434,0-0.806,0.106-1.116,0.32s-0.567,0.543-0.769,0.988
		c-0.202,0.443-0.352,1.008-0.448,1.689c-0.097,0.682-0.145,1.488-0.145,2.418c0,3.35,0.858,5.023,2.575,5.023
		c0.299,0,0.659-0.094,1.081-0.281v1.676c-0.439,0.246-0.932,0.369-1.477,0.369c-2.749,0-4.124-2.242-4.124-6.729
		c0-2.426,0.336-4.229,1.007-5.411C122.995,265.291,124.023,264.701,125.406,264.701z M172.731,265.509
		c0.304,0,0.565,0.111,0.787,0.334c0.223,0.222,0.334,0.486,0.334,0.797c0,0.314-0.111,0.584-0.334,0.806
		c-0.222,0.222-0.49,0.333-0.806,0.333s-0.584-0.111-0.806-0.333c-0.217-0.216-0.323-0.487-0.323-0.813
		c0-0.305,0.11-0.566,0.332-0.788C172.157,265.623,172.429,265.509,172.731,265.509z M199.106,266.807h1.674v2.556h0.914v1.332
		h-0.914v7.758h-1.674v-7.758h-0.922v-1.332h0.922V266.807z M133.864,269.201c0.492,0,0.917,0.094,1.277,0.281
		s0.657,0.479,0.891,0.871c0.234,0.395,0.408,0.889,0.522,1.486c0.114,0.599,0.171,1.312,0.171,2.139
		c0,3.079-0.951,4.618-2.853,4.618s-2.853-1.562-2.853-4.688C131.02,270.77,131.968,269.201,133.864,269.201z M144.816,269.201
		c0.837,0,1.406,0.426,1.705,1.274c0.445-0.851,1.078-1.274,1.897-1.274c0.639,0,1.126,0.17,1.463,0.506
		c0.336,0.338,0.505,0.834,0.505,1.49v7.256h-1.692v-5.996c0-0.688-0.064-1.147-0.192-1.383c-0.123-0.24-0.362-0.361-0.718-0.361
		c-0.403,0-0.677,0.125-0.823,0.371c-0.14,0.24-0.21,0.697-0.21,1.373v5.996h-1.746v-5.996c0-0.322-0.016-0.597-0.048-0.818
		c-0.032-0.223-0.086-0.402-0.162-0.537s-0.175-0.232-0.298-0.295s-0.275-0.094-0.456-0.094c-0.386,0-0.66,0.134-0.824,0.396
		c-0.164,0.266-0.246,0.713-0.246,1.348v5.996h-1.674v-9.09h1.674v1.125C143.433,269.628,144.048,269.201,144.816,269.201z
		 M158.627,269.201c0.75,0,1.302,0.389,1.649,1.166c0.349,0.776,0.522,1.992,0.522,3.646c0,1.619-0.179,2.783-0.538,3.492
		c-0.352,0.728-0.92,1.091-1.701,1.091c-0.375,0-0.685-0.085-0.926-0.255c-0.117-0.082-0.234-0.199-0.352-0.353
		c-0.118-0.151-0.236-0.337-0.354-0.553v4.741h-1.675v-12.815h1.681v1.179c0.235-0.498,0.477-0.847,0.723-1.045
		C157.905,269.298,158.228,269.201,158.627,269.201z M180.364,269.201c0.689,0,1.246,0.396,1.668,1.19v-1.028h1.674v9.09h-1.674
		v-1.168c-0.24,0.497-0.48,0.842-0.721,1.029s-0.556,0.282-0.947,0.282c-0.754,0-1.307-0.388-1.658-1.161s-0.525-1.988-0.525-3.643
		c0-1.578,0.174-2.737,0.525-3.479C179.058,269.572,179.61,269.201,180.364,269.201z M192.159,269.201
		c0.738,0,1.266,0.291,1.582,0.871c0.176,0.328,0.264,0.965,0.264,1.908v6.473h-1.674l-0.01-6.08c0-0.615-0.072-1.052-0.219-1.31
		c-0.147-0.258-0.399-0.388-0.758-0.388c-0.193,0-0.357,0.035-0.488,0.103c-0.133,0.067-0.239,0.177-0.322,0.325
		c-0.082,0.148-0.143,0.344-0.18,0.584c-0.039,0.24-0.059,0.536-0.059,0.889v5.877h-1.674v-9.09h1.674v1.047
		C190.776,269.603,191.397,269.201,192.159,269.201z M171.944,269.363h1.69v9.09h-1.69V269.363z M133.904,270.712
		c-0.396,0-0.679,0.234-0.848,0.705c-0.158,0.47-0.236,1.289-0.236,2.459c0,1.168,0.079,1.984,0.236,2.449
		c0.169,0.469,0.452,0.704,0.848,0.704s0.673-0.231,0.831-0.696c0.163-0.435,0.245-1.235,0.245-2.404
		c0-1.198-0.079-2.033-0.236-2.504C134.586,270.951,134.307,270.712,133.904,270.712z M157.952,270.712
		c-0.389,0-0.664,0.246-0.828,0.74c-0.165,0.459-0.247,1.274-0.247,2.449c0,1.176,0.082,1.992,0.247,2.45
		c0.17,0.487,0.447,0.731,0.828,0.731c0.4,0,0.686-0.234,0.855-0.705c0.164-0.436,0.246-1.246,0.246-2.434
		c0-1.238-0.082-2.08-0.246-2.521C158.649,270.951,158.364,270.712,157.952,270.712z M181.019,270.727
		c-0.396,0-0.681,0.233-0.849,0.703c-0.164,0.434-0.245,1.245-0.245,2.435c0,1.195,0.079,2.03,0.235,2.506
		c0.164,0.475,0.448,0.711,0.856,0.711c0.373,0,0.646-0.246,0.813-0.738c0.169-0.526,0.253-1.338,0.253-2.434
		c0-1.103-0.084-1.916-0.253-2.443C181.663,270.973,181.392,270.727,181.019,270.727z"/>
	<path fill="none" stroke="#010101" stroke-linejoin="round" stroke-miterlimit="10" d="M165.358,263.512h1.674v14.94h-1.674
		V263.512z M125.406,264.701c0.51,0,1.014,0.135,1.512,0.405v1.647c-0.469-0.229-0.861-0.344-1.178-0.344
		c-0.434,0-0.806,0.106-1.116,0.32s-0.567,0.543-0.769,0.988c-0.202,0.443-0.352,1.008-0.448,1.689
		c-0.097,0.682-0.145,1.488-0.145,2.418c0,3.35,0.858,5.023,2.575,5.023c0.299,0,0.659-0.094,1.081-0.281v1.676
		c-0.439,0.246-0.932,0.369-1.477,0.369c-2.749,0-4.124-2.242-4.124-6.729c0-2.426,0.336-4.229,1.007-5.411
		C122.995,265.291,124.023,264.701,125.406,264.701z M172.731,265.509c0.304,0,0.565,0.111,0.787,0.334
		c0.223,0.222,0.334,0.486,0.334,0.797c0,0.314-0.111,0.584-0.334,0.806c-0.222,0.222-0.49,0.333-0.806,0.333
		s-0.584-0.111-0.806-0.333c-0.217-0.216-0.323-0.487-0.323-0.813c0-0.305,0.11-0.566,0.332-0.788
		C172.157,265.623,172.429,265.509,172.731,265.509z M199.106,266.807h1.674v2.556h0.914v1.332h-0.914v7.758h-1.674v-7.758h-0.922
		v-1.332h0.922V266.807z M133.864,269.201c0.492,0,0.917,0.094,1.277,0.281s0.657,0.479,0.891,0.871
		c0.234,0.395,0.408,0.889,0.522,1.486c0.114,0.599,0.171,1.312,0.171,2.139c0,3.079-0.951,4.618-2.853,4.618
		s-2.853-1.562-2.853-4.688C131.02,270.77,131.968,269.201,133.864,269.201z M144.816,269.201c0.837,0,1.406,0.426,1.705,1.274
		c0.445-0.851,1.078-1.274,1.898-1.274c0.638,0,1.126,0.17,1.463,0.506c0.336,0.338,0.505,0.834,0.505,1.49v7.256h-1.692v-5.996
		c0-0.688-0.064-1.147-0.192-1.383c-0.123-0.24-0.362-0.361-0.718-0.361c-0.403,0-0.677,0.125-0.823,0.371
		c-0.14,0.24-0.21,0.697-0.21,1.373v5.996h-1.746v-5.996c0-0.322-0.016-0.597-0.048-0.818c-0.032-0.223-0.086-0.402-0.162-0.537
		s-0.175-0.232-0.298-0.295s-0.275-0.094-0.456-0.094c-0.386,0-0.661,0.134-0.824,0.396c-0.164,0.266-0.246,0.713-0.246,1.348v5.996
		h-1.674v-9.09h1.674v1.125C143.433,269.628,144.048,269.201,144.816,269.201z M158.627,269.201c0.75,0,1.302,0.389,1.649,1.166
		c0.349,0.776,0.522,1.992,0.522,3.646c0,1.619-0.179,2.783-0.538,3.492c-0.352,0.728-0.92,1.091-1.701,1.091
		c-0.375,0-0.685-0.085-0.926-0.255c-0.117-0.082-0.234-0.199-0.352-0.353c-0.118-0.151-0.236-0.337-0.354-0.554v4.742h-1.675
		v-12.815h1.681v1.179c0.235-0.498,0.477-0.847,0.723-1.045C157.905,269.298,158.228,269.201,158.627,269.201z M180.364,269.201
		c0.689,0,1.246,0.396,1.668,1.19v-1.028h1.674v9.09h-1.674v-1.168c-0.24,0.497-0.48,0.842-0.721,1.029s-0.556,0.282-0.947,0.282
		c-0.754,0-1.307-0.388-1.658-1.161s-0.525-1.988-0.525-3.643c0-1.578,0.174-2.737,0.525-3.479
		C179.058,269.572,179.61,269.201,180.364,269.201z M192.159,269.201c0.738,0,1.266,0.291,1.582,0.871
		c0.176,0.328,0.264,0.965,0.264,1.908v6.473h-1.674l-0.01-6.08c0-0.615-0.072-1.052-0.219-1.31
		c-0.147-0.258-0.399-0.388-0.758-0.388c-0.193,0-0.357,0.035-0.488,0.103c-0.133,0.067-0.239,0.177-0.322,0.325
		c-0.082,0.148-0.143,0.344-0.18,0.584c-0.039,0.24-0.059,0.536-0.059,0.889v5.877h-1.674v-9.09h1.674v1.047
		C190.776,269.603,191.397,269.201,192.159,269.201z M171.944,269.363h1.69v9.09h-1.69V269.363z M133.904,270.712
		c-0.396,0-0.679,0.234-0.848,0.705c-0.158,0.47-0.236,1.289-0.236,2.459c0,1.168,0.079,1.984,0.236,2.449
		c0.169,0.469,0.452,0.704,0.848,0.704s0.673-0.231,0.831-0.696c0.163-0.435,0.245-1.235,0.245-2.404
		c0-1.198-0.079-2.033-0.236-2.504C134.586,270.951,134.307,270.712,133.904,270.712z M157.952,270.712
		c-0.387,0-0.664,0.246-0.828,0.74c-0.165,0.459-0.247,1.274-0.247,2.449c0,1.176,0.082,1.992,0.247,2.45
		c0.17,0.487,0.445,0.731,0.828,0.731c0.4,0,0.686-0.234,0.855-0.705c0.164-0.436,0.246-1.246,0.246-2.434
		c0-1.238-0.082-2.08-0.246-2.521C158.649,270.951,158.364,270.712,157.952,270.712z M181.019,270.727
		c-0.396,0-0.681,0.233-0.849,0.703c-0.164,0.434-0.246,1.245-0.246,2.435c0,1.195,0.08,2.03,0.236,2.506
		c0.164,0.475,0.448,0.711,0.856,0.711c0.373,0,0.646-0.246,0.813-0.738c0.169-0.526,0.253-1.338,0.253-2.434
		c0-1.103-0.084-1.916-0.253-2.443C181.663,270.973,181.392,270.727,181.019,270.727z"/>
	<path fill="#010101" d="M202.948,231.966c0.865,0,1.693,0.209,2.484,0.623v2.383c-0.742-0.531-1.41-0.797-2.004-0.797
		c-0.643,0-1.166,0.227-1.572,0.68c-0.405,0.43-0.608,1.002-0.608,1.721c0,0.633,0.146,1.176,0.435,1.627
		c0.149,0.242,0.396,0.555,0.734,0.938c0.341,0.383,0.781,0.843,1.322,1.382c0.994,1.007,1.672,1.877,2.033,2.61
		c0.358,0.711,0.539,1.58,0.539,2.611c0,1.396-0.396,2.547-1.188,3.453c-0.792,0.883-1.806,1.322-3.04,1.322
		c-1.039,0-1.926-0.286-2.66-0.857v-2.418c0.867,0.633,1.656,0.948,2.367,0.948c0.664,0,1.184-0.221,1.559-0.662
		c0.375-0.44,0.562-1.038,0.562-1.797c0-0.655-0.146-1.243-0.436-1.769c-0.147-0.248-0.355-0.535-0.623-0.858
		c-0.266-0.323-0.6-0.687-0.998-1.083c-0.619-0.609-1.133-1.146-1.539-1.615c-0.407-0.469-0.709-0.879-0.904-1.229
		c-0.376-0.687-0.562-1.554-0.562-2.599c0-1.412,0.367-2.533,1.104-3.359C200.699,232.384,201.696,231.966,202.948,231.966z
		 M207.202,232.208h7.941v2.135h-2.729v15.961h-2.399v-15.961h-2.812L207.202,232.208L207.202,232.208z M218.728,232.208h1.897
		l3.879,18.096h-2.414l-0.68-3.527h-3.586l-0.691,3.527h-2.344L218.728,232.208z M225.931,232.208h2.276l2.433,7.219
		c0.705,2.039,1.325,4.215,1.864,6.527c-0.194-1.398-0.339-2.664-0.433-3.797c-0.094-1.134-0.141-2.199-0.141-3.199v-6.75h2.447
		v18.096h-2.289l-2.734-8.145c-0.252-0.759-0.487-1.535-0.711-2.332c-0.223-0.798-0.429-1.634-0.615-2.509
		c-0.016-0.108-0.043-0.241-0.076-0.397c-0.035-0.156-0.077-0.336-0.124-0.539c0.022,0.203,0.043,0.377,0.06,0.521
		c0.016,0.144,0.026,0.269,0.034,0.369l0.121,1.84l0.142,2.238c0.01,0.125,0.016,0.276,0.021,0.457
		c0.005,0.18,0.007,0.383,0.007,0.608l0.129,7.887h-2.408v-18.094H225.931z M237.158,232.208h2.997c0.914,0,1.684,0.102,2.308,0.305
		c0.577,0.195,1.093,0.543,1.546,1.043c0.68,0.75,1.163,1.727,1.452,2.931c0.288,1.163,0.433,2.832,0.433,5.005
		c0,1.991-0.16,3.617-0.479,4.875c-0.312,1.203-0.827,2.121-1.546,2.754c-0.884,0.789-2.464,1.185-4.742,1.185h-1.968
		L237.158,232.208L237.158,232.208z M250.767,232.208h1.897l3.879,18.096h-2.414l-0.68-3.527h-3.587l-0.69,3.527h-2.344
		L250.767,232.208z M257.97,232.208h3.215c1.33,0,2.319,0.315,2.969,0.949c0.822,0.819,1.232,2.073,1.232,3.762
		c0,1.297-0.217,2.338-0.65,3.123c-0.432,0.785-1.053,1.271-1.855,1.459l3.326,8.803h-2.473l-3.314-8.859v8.859h-2.447v-18.096
		H257.97z M268.083,232.208h2.997c0.914,0,1.685,0.102,2.308,0.305c0.577,0.195,1.094,0.543,1.547,1.043
		c0.678,0.75,1.162,1.727,1.451,2.931c0.288,1.163,0.434,2.832,0.434,5.005c0,1.991-0.16,3.617-0.479,4.875
		c-0.312,1.203-0.827,2.121-1.546,2.754c-0.883,0.789-2.463,1.185-4.743,1.185h-1.967L268.083,232.208L268.083,232.208z
		 M260.418,234.223v6.012c0.944,0,1.614-0.219,2.005-0.655c0.393-0.438,0.587-1.177,0.587-2.215c0-0.562-0.04-1.044-0.122-1.441
		c-0.082-0.398-0.212-0.723-0.388-0.973c-0.177-0.25-0.403-0.435-0.681-0.552c-0.278-0.116-0.608-0.176-0.991-0.176H260.418z
		 M239.606,234.248v13.92c1.48,0,2.473-0.449,2.972-1.349c0.515-0.899,0.772-2.646,0.772-5.241c0-2.791-0.246-4.711-0.738-5.759
		c-0.49-1.048-1.393-1.571-2.702-1.571H239.606z M270.532,234.248v13.92c1.48,0,2.473-0.449,2.972-1.349
		c0.515-0.899,0.772-2.646,0.772-5.241c0-2.791-0.246-4.711-0.738-5.759c-0.49-1.048-1.393-1.571-2.702-1.571H270.532z
		 M219.642,235.714c-0.109,1.086-0.25,2.187-0.422,3.3c-0.173,1.112-0.375,2.295-0.609,3.545l-0.445,2.319h2.895l-0.539-2.883
		C220.161,240.037,219.868,237.942,219.642,235.714z M251.681,235.714c-0.109,1.086-0.25,2.187-0.423,3.3
		c-0.172,1.112-0.375,2.295-0.61,3.545l-0.443,2.319h2.895l-0.539-2.883C252.2,240.037,251.907,237.942,251.681,235.714z"/>
	<path fill="none" stroke="#010101" stroke-linejoin="round" stroke-miterlimit="10" d="M202.948,231.966
		c0.865,0,1.693,0.209,2.484,0.623v2.383c-0.742-0.531-1.41-0.797-2.004-0.797c-0.643,0-1.166,0.227-1.572,0.68
		c-0.405,0.43-0.608,1.002-0.608,1.721c0,0.633,0.146,1.176,0.435,1.627c0.149,0.242,0.396,0.555,0.734,0.938
		c0.341,0.383,0.781,0.843,1.322,1.382c0.994,1.007,1.672,1.877,2.033,2.61c0.358,0.711,0.539,1.58,0.539,2.611
		c0,1.396-0.396,2.547-1.188,3.453c-0.792,0.883-1.806,1.322-3.04,1.322c-1.039,0-1.926-0.286-2.66-0.857v-2.418
		c0.867,0.633,1.656,0.948,2.367,0.948c0.664,0,1.184-0.221,1.559-0.662c0.375-0.44,0.562-1.038,0.562-1.797
		c0-0.655-0.146-1.243-0.436-1.769c-0.147-0.248-0.355-0.535-0.623-0.858c-0.266-0.323-0.6-0.687-0.998-1.083
		c-0.619-0.609-1.133-1.146-1.539-1.615c-0.407-0.469-0.709-0.879-0.904-1.229c-0.376-0.687-0.562-1.554-0.562-2.599
		c0-1.412,0.367-2.533,1.104-3.359C200.699,232.384,201.696,231.966,202.948,231.966z M207.202,232.208h7.941v2.135h-2.729v15.961
		h-2.399v-15.961h-2.812L207.202,232.208L207.202,232.208z M218.728,232.208h1.897l3.879,18.096h-2.414l-0.68-3.527h-3.586
		l-0.691,3.527h-2.344L218.728,232.208z M225.931,232.208h2.276l2.433,7.219c0.705,2.039,1.325,4.215,1.864,6.527
		c-0.194-1.398-0.339-2.664-0.433-3.797c-0.094-1.134-0.141-2.199-0.141-3.199v-6.75h2.447v18.096h-2.289l-2.734-8.145
		c-0.252-0.759-0.487-1.535-0.711-2.332c-0.223-0.798-0.429-1.634-0.615-2.509c-0.016-0.108-0.043-0.241-0.077-0.397
		s-0.076-0.336-0.123-0.539c0.022,0.203,0.043,0.377,0.06,0.521c0.016,0.144,0.026,0.269,0.034,0.369l0.121,1.84l0.142,2.238
		c0.01,0.125,0.016,0.276,0.021,0.457c0.005,0.18,0.007,0.383,0.007,0.608l0.129,7.887h-2.408v-18.094H225.931z M237.158,232.208
		h2.997c0.914,0,1.684,0.102,2.308,0.305c0.577,0.195,1.093,0.543,1.546,1.043c0.68,0.75,1.163,1.727,1.452,2.931
		c0.288,1.163,0.433,2.832,0.433,5.005c0,1.991-0.16,3.617-0.479,4.875c-0.312,1.203-0.827,2.121-1.546,2.754
		c-0.884,0.789-2.464,1.185-4.743,1.185h-1.967L237.158,232.208L237.158,232.208z M250.767,232.208h1.896l3.88,18.096h-2.414
		l-0.68-3.527h-3.587l-0.69,3.527h-2.344L250.767,232.208z M257.97,232.208h3.215c1.33,0,2.319,0.315,2.969,0.949
		c0.822,0.819,1.232,2.073,1.232,3.762c0,1.297-0.217,2.338-0.65,3.123c-0.432,0.785-1.053,1.271-1.855,1.459l3.326,8.803h-2.473
		l-3.314-8.859v8.859h-2.447v-18.096H257.97z M268.083,232.208h2.997c0.914,0,1.685,0.102,2.308,0.305
		c0.577,0.195,1.094,0.543,1.547,1.043c0.678,0.75,1.162,1.727,1.451,2.931c0.288,1.163,0.434,2.832,0.434,5.005
		c0,1.991-0.16,3.617-0.479,4.875c-0.312,1.203-0.827,2.121-1.546,2.754c-0.883,0.789-2.463,1.185-4.743,1.185h-1.967
		L268.083,232.208L268.083,232.208z M260.418,234.223v6.012c0.944,0,1.614-0.219,2.005-0.655c0.393-0.438,0.587-1.177,0.587-2.215
		c0-0.562-0.04-1.044-0.122-1.441c-0.082-0.398-0.212-0.723-0.388-0.973c-0.177-0.25-0.403-0.435-0.683-0.552
		c-0.276-0.116-0.606-0.176-0.989-0.176H260.418z M239.606,234.248v13.92c1.48,0,2.473-0.449,2.971-1.349
		c0.516-0.899,0.773-2.646,0.773-5.241c0-2.791-0.246-4.711-0.738-5.759c-0.49-1.048-1.393-1.571-2.702-1.571H239.606z
		 M270.532,234.248v13.92c1.48,0,2.473-0.449,2.971-1.349c0.516-0.899,0.773-2.646,0.773-5.241c0-2.791-0.246-4.711-0.738-5.759
		c-0.49-1.048-1.393-1.571-2.702-1.571H270.532z M219.642,235.714c-0.109,1.086-0.25,2.187-0.422,3.3
		c-0.173,1.112-0.375,2.295-0.609,3.545l-0.445,2.319h2.895l-0.539-2.883C220.161,240.037,219.868,237.942,219.642,235.714z
		 M251.679,235.714c-0.107,1.086-0.248,2.187-0.421,3.3c-0.172,1.112-0.375,2.295-0.61,3.545l-0.443,2.319h2.895l-0.539-2.883
		C252.2,240.037,251.907,237.942,251.679,235.714z"/>
	<path fill="#010101" d="M92.312,208.501c2.601,0,5.085,0.621,7.453,1.867v7.146c-2.227-1.594-4.231-2.391-6.012-2.391
		c-1.922,0-3.493,0.679-4.712,2.037c-1.219,1.287-1.828,3.008-1.828,5.162c0,1.896,0.435,3.523,1.304,4.883
		c0.447,0.726,1.181,1.662,2.203,2.81s2.344,2.528,3.965,4.146c2.984,3.021,5.018,5.631,6.099,7.832
		c1.081,2.131,1.621,4.741,1.621,7.832c0,4.191-1.188,7.646-3.565,10.361c-2.376,2.646-5.416,3.969-9.119,3.969
		c-3.117,0-5.777-0.857-7.981-2.574v-7.256c2.602,1.897,4.969,2.848,7.102,2.848c1.992,0,3.551-0.661,4.676-1.984
		c1.125-1.322,1.688-3.119,1.688-5.391c0-1.967-0.435-3.734-1.304-5.303c-0.447-0.75-1.07-1.608-1.869-2.58
		c-0.799-0.973-1.797-2.056-2.996-3.25c-1.856-1.826-3.396-3.44-4.618-4.846c-1.222-1.404-2.126-2.635-2.714-3.688
		c-1.128-2.061-1.692-4.657-1.692-7.795c0-4.237,1.106-7.598,3.317-10.08C85.565,209.753,88.559,208.501,92.312,208.501z
		 M108.528,209.221h9.937c7.775,0,11.663,4.815,11.663,14.45c0,3.681-0.504,6.41-1.511,8.192c-1.008,1.781-2.789,3.13-5.345,4.044
		c2.931,1.172,4.935,2.672,6.012,4.5c1.09,1.805,1.636,4.524,1.636,8.157c0,9.962-4.272,14.942-12.816,14.942h-9.576V209.221
		L108.528,209.221z M182.883,209.221h7.345v48.096h11.953v6.192h-19.298V209.221z M115.724,215.125c-0.19,0-0.309,0.012-0.356,0.035
		v18c2.864,0,4.852-0.656,5.964-1.97c1.112-1.383,1.668-3.81,1.668-7.276c0-5.859-2.13-8.789-6.39-8.789h-0.567H115.724z
		 M115.368,238.934v18.315c3.018,0,5.105-0.645,6.26-1.934c1.155-1.288,1.732-3.62,1.732-6.995c0-3.469-0.601-5.896-1.803-7.278
		C120.378,239.637,118.315,238.934,115.368,238.934z"/>
	<path fill="none" stroke="#010101" stroke-linejoin="round" stroke-miterlimit="10" d="M92.312,208.501
		c2.601,0,5.085,0.621,7.453,1.867v7.146c-2.227-1.594-4.231-2.391-6.012-2.391c-1.922,0-3.493,0.679-4.711,2.037
		c-1.219,1.287-1.828,3.008-1.828,5.162c0,1.896,0.435,3.523,1.304,4.883c0.447,0.726,1.181,1.662,2.203,2.81
		s2.344,2.528,3.965,4.146c2.984,3.021,5.018,5.631,6.099,7.832c1.081,2.131,1.621,4.741,1.621,7.832
		c0,4.191-1.188,7.646-3.565,10.361c-2.376,2.646-5.416,3.969-9.119,3.969c-3.117,0-5.777-0.857-7.981-2.574v-7.256
		c2.602,1.897,4.969,2.848,7.102,2.848c1.992,0,3.551-0.661,4.676-1.984c1.125-1.322,1.688-3.119,1.688-5.391
		c0-1.967-0.435-3.733-1.304-5.303c-0.447-0.75-1.07-1.608-1.869-2.58c-0.799-0.973-1.797-2.056-2.996-3.25
		c-1.856-1.826-3.396-3.44-4.618-4.846c-1.222-1.404-2.126-2.635-2.714-3.688c-1.128-2.061-1.692-4.657-1.692-7.795
		c0-4.237,1.105-7.598,3.317-10.08C85.565,209.753,88.559,208.501,92.312,208.501z M108.528,209.221h9.937
		c7.775,0,11.663,4.815,11.663,14.45c0,3.681-0.504,6.41-1.511,8.192c-1.008,1.781-2.79,3.13-5.345,4.044
		c2.93,1.172,4.935,2.672,6.012,4.5c1.09,1.805,1.636,4.524,1.636,8.157c0,9.962-4.272,14.942-12.816,14.942h-9.576V209.221
		L108.528,209.221z M182.883,209.221h7.345v48.096h11.953v6.192h-19.298V209.221z M115.724,215.125c-0.19,0-0.309,0.012-0.356,0.035
		v18c2.864,0,4.852-0.656,5.964-1.97c1.112-1.383,1.668-3.81,1.668-7.276c0-5.859-2.13-8.789-6.39-8.789h-0.567H115.724z
		 M115.368,238.935v18.314c3.018,0,5.105-0.645,6.26-1.933c1.155-1.289,1.732-3.621,1.732-6.996c0-3.469-0.601-5.896-1.803-7.276
		C120.378,239.638,118.315,238.935,115.368,238.935z"/>
</g>
<g>
	<defs>
		
			<rect id="SVGID_1_" x="146.966" y="238.872" transform="matrix(-0.8976 0.4408 -0.4408 -0.8976 393.2973 393.4565)" width="7.967" height="7.074"/>
	</defs>
	<clipPath id="SVGID_2_">
		<use xlink:href="#SVGID_1_"  overflow="visible"/>
	</clipPath>
	<g clip-path="url(#SVGID_2_)">
		<defs>
			
				<rect id="SVGID_3_" x="146.966" y="238.872" transform="matrix(-0.8976 0.4408 -0.4408 -0.8976 393.2973 393.4565)" width="7.967" height="7.074"/>
		</defs>
		<clipPath id="SVGID_4_">
			<use xlink:href="#SVGID_3_"  overflow="visible"/>
		</clipPath>
		<g clip-path="url(#SVGID_4_)">
			<defs>
				<rect id="SVGID_5_" x="5.548" y="170.512" width="291.071" height="132.8"/>
			</defs>
			<clipPath id="SVGID_6_">
				<use xlink:href="#SVGID_5_"  overflow="visible"/>
			</clipPath>
			
				<polygon clip-path="url(#SVGID_6_)" fill="none" stroke="#000000" stroke-width="0.7298" stroke-linejoin="round" stroke-miterlimit="10" points="
				149.133,247.135 152.777,245.344 154.363,240.886 149.867,239.419 146.223,241.208 			"/>
		</g>
	</g>
</g>
<g>
	<defs>
		
			<rect id="SVGID_7_" x="139.972" y="236.117" transform="matrix(-0.3698 0.9291 -0.9291 -0.3698 418.6756 195.4169)" width="6.185" height="7.16"/>
	</defs>
	<clipPath id="SVGID_8_">
		<use xlink:href="#SVGID_7_"  overflow="visible"/>
	</clipPath>
	<g clip-path="url(#SVGID_8_)">
		<defs>
			
				<rect id="SVGID_9_" x="139.972" y="236.117" transform="matrix(-0.3698 0.9291 -0.9291 -0.3698 418.6756 195.4169)" width="6.185" height="7.16"/>
		</defs>
		<clipPath id="SVGID_10_">
			<use xlink:href="#SVGID_9_"  overflow="visible"/>
		</clipPath>
		<g clip-path="url(#SVGID_10_)">
			<defs>
				<rect id="SVGID_11_" x="5.548" y="170.512" width="291.071" height="132.8"/>
			</defs>
			<clipPath id="SVGID_12_">
				<use xlink:href="#SVGID_11_"  overflow="visible"/>
			</clipPath>
			
				<polyline clip-path="url(#SVGID_12_)" fill="none" stroke="#000000" stroke-width="0.6395" stroke-linejoin="round" stroke-miterlimit="10" points="
				140.558,237.242 142.516,236.259 143.221,238.302 			"/>
			
				<polyline clip-path="url(#SVGID_12_)" fill="none" stroke="#000000" stroke-width="0.6395" stroke-linejoin="round" stroke-miterlimit="10" points="
				145.26,243.564 140.381,241.623 142.444,236.44 			"/>
		</g>
	</g>
</g>
<g>
	<defs>
		<rect id="SVGID_13_" x="156.134" y="238.068" width="6.19" height="5.996"/>
	</defs>
	<clipPath id="SVGID_14_">
		<use xlink:href="#SVGID_13_"  overflow="visible"/>
	</clipPath>
	
		<rect x="157.791" y="239.69" clip-path="url(#SVGID_14_)" fill="none" stroke="#000000" stroke-width="0.6226" stroke-linejoin="round" stroke-miterlimit="10" width="3.081" height="2.983"/>
	
		<rect x="156.445" y="238.386" clip-path="url(#SVGID_14_)" fill="none" stroke="#000000" stroke-width="0.6226" stroke-linejoin="round" stroke-miterlimit="10" width="5.777" height="5.596"/>
</g>
<g>
	<defs>
		
			<rect id="SVGID_15_" x="142.701" y="231.865" transform="matrix(-0.8936 -0.4489 0.4489 -0.8936 172.4238 509.5315)" width="7.81" height="4.927"/>
	</defs>
	<clipPath id="SVGID_16_">
		<use xlink:href="#SVGID_15_"  overflow="visible"/>
	</clipPath>
	<g clip-path="url(#SVGID_16_)">
		<defs>
			
				<rect id="SVGID_17_" x="142.701" y="231.865" transform="matrix(-0.8936 -0.4489 0.4489 -0.8936 172.4238 509.5315)" width="7.81" height="4.927"/>
		</defs>
		<clipPath id="SVGID_18_">
			<use xlink:href="#SVGID_17_"  overflow="visible"/>
		</clipPath>
		<g clip-path="url(#SVGID_18_)">
			<defs>
				<rect id="SVGID_19_" x="5.548" y="170.512" width="291.071" height="132.8"/>
			</defs>
			<clipPath id="SVGID_20_">
				<use xlink:href="#SVGID_19_"  overflow="visible"/>
			</clipPath>
			
				<rect x="142.947" y="232.194" transform="matrix(-0.8936 -0.4489 0.4489 -0.8936 172.4678 509.7921)" clip-path="url(#SVGID_20_)" fill="none" stroke="#000000" stroke-width="0.6027" stroke-linejoin="round" stroke-miterlimit="10" width="7.419" height="4.52"/>
			
				<line clip-path="url(#SVGID_20_)" fill="none" stroke="#000000" stroke-width="0.6027" stroke-linejoin="round" stroke-miterlimit="10" x1="144.613" y1="232.316" x2="145.463" y2="234.765"/>
			
				<line clip-path="url(#SVGID_20_)" fill="none" stroke="#000000" stroke-width="0.6027" stroke-linejoin="round" stroke-miterlimit="10" x1="143.802" y1="233.931" x2="146.274" y2="233.152"/>
			
				<line clip-path="url(#SVGID_20_)" fill="none" stroke="#000000" stroke-width="0.6027" stroke-linejoin="round" stroke-miterlimit="10" x1="145.962" y1="235.421" x2="148.613" y2="236.753"/>
		</g>
	</g>
</g>
<g>
	<defs>
		<rect id="SVGID_21_" x="152.657" y="232.075" width="3.477" height="6.935"/>
	</defs>
	<clipPath id="SVGID_22_">
		<use xlink:href="#SVGID_21_"  overflow="visible"/>
	</clipPath>
	
		<line clip-path="url(#SVGID_22_)" fill="none" stroke="#000000" stroke-width="0.7057" stroke-linejoin="round" stroke-miterlimit="10" x1="154.51" y1="238.892" x2="154.51" y2="235.627"/>
	
		<polygon clip-path="url(#SVGID_22_)" fill="none" stroke="#000000" stroke-width="0.7057" stroke-linejoin="round" stroke-miterlimit="10" points="
		154.51,232.368 154.51,232.368 154.835,232.416 155.11,232.469 155.379,232.623 155.594,232.773 155.759,232.976 155.924,233.232 
		155.979,233.491 156.029,233.792 155.979,234.1 155.924,234.354 155.759,234.607 155.594,234.812 155.379,234.969 155.11,235.12 
		154.835,235.167 154.51,235.223 154.186,235.167 153.916,235.12 153.641,234.969 153.426,234.812 153.261,234.607 153.097,234.354 
		153.046,234.1 152.992,233.792 153.046,233.491 153.097,233.232 153.261,232.976 153.426,232.773 153.641,232.623 153.916,232.469 
		154.186,232.416 	"/>
</g>
<g>
	<defs>
		
			<rect id="SVGID_23_" x="140.263" y="244.977" transform="matrix(-0.9867 0.1623 -0.1623 -0.9867 325.7321 465.6772)" width="7.159" height="2.336"/>
	</defs>
	<clipPath id="SVGID_24_">
		<use xlink:href="#SVGID_23_"  overflow="visible"/>
	</clipPath>
	<g clip-path="url(#SVGID_24_)">
		<defs>
			
				<rect id="SVGID_25_" x="140.263" y="244.977" transform="matrix(-0.9867 0.1623 -0.1623 -0.9867 325.7321 465.6772)" width="7.159" height="2.336"/>
		</defs>
		<clipPath id="SVGID_26_">
			<use xlink:href="#SVGID_25_"  overflow="visible"/>
		</clipPath>
		<g clip-path="url(#SVGID_26_)">
			<defs>
				<rect id="SVGID_27_" x="5.548" y="170.512" width="291.071" height="132.8"/>
			</defs>
			<clipPath id="SVGID_28_">
				<use xlink:href="#SVGID_27_"  overflow="visible"/>
			</clipPath>
			
				<line clip-path="url(#SVGID_28_)" fill="none" stroke="#000000" stroke-width="0.7119" stroke-linejoin="round" stroke-miterlimit="10" x1="140.5" y1="245.843" x2="143.087" y2="245.419"/>
			
				<line clip-path="url(#SVGID_28_)" fill="none" stroke="#000000" stroke-width="0.7119" stroke-linejoin="round" stroke-miterlimit="10" x1="140.781" y1="247.556" x2="143.369" y2="247.129"/>
			
				<line clip-path="url(#SVGID_28_)" fill="none" stroke="#000000" stroke-width="0.7119" stroke-linejoin="round" stroke-miterlimit="10" x1="144.382" y1="245.206" x2="146.969" y2="244.78"/>
			
				<line clip-path="url(#SVGID_28_)" fill="none" stroke="#000000" stroke-width="0.7119" stroke-linejoin="round" stroke-miterlimit="10" x1="144.664" y1="246.917" x2="147.25" y2="246.492"/>
		</g>
	</g>
</g>
<g>
	<defs>
		
			<rect id="SVGID_29_" x="156.668" y="231.165" transform="matrix(-0.336 -0.9418 0.9418 -0.336 -6.9768 462.317)" width="5.6" height="4.906"/>
	</defs>
	<clipPath id="SVGID_30_">
		<use xlink:href="#SVGID_29_"  overflow="visible"/>
	</clipPath>
	<g clip-path="url(#SVGID_30_)">
		<defs>
			
				<rect id="SVGID_31_" x="156.668" y="231.165" transform="matrix(-0.336 -0.9418 0.9418 -0.336 -6.9768 462.317)" width="5.6" height="4.906"/>
		</defs>
		<clipPath id="SVGID_32_">
			<use xlink:href="#SVGID_31_"  overflow="visible"/>
		</clipPath>
		<g clip-path="url(#SVGID_32_)">
			<defs>
				<rect id="SVGID_33_" x="5.548" y="170.512" width="291.071" height="132.8"/>
			</defs>
			<clipPath id="SVGID_34_">
				<use xlink:href="#SVGID_33_"  overflow="visible"/>
			</clipPath>
			
				<line clip-path="url(#SVGID_34_)" fill="none" stroke="#000000" stroke-width="0.5816" stroke-linejoin="round" stroke-miterlimit="10" x1="157.288" y1="234.493" x2="161.364" y2="233.04"/>
			
				<line clip-path="url(#SVGID_34_)" fill="none" stroke="#000000" stroke-width="0.5816" stroke-linejoin="round" stroke-miterlimit="10" x1="160.655" y1="230.52" x2="162.41" y2="235.441"/>
		</g>
	</g>
</g>
<path fill="none" stroke="#000000" stroke-width="2.25" stroke-linejoin="round" stroke-miterlimit="10" d="M164.019,248.395
	c0,0-4.977,2.319-13.069,2.515s-13.025-2.515-13.025-2.515V226.48c0,0,7.443,1.268,13.276,1.365
	c5.832,0.097,12.817-1.365,12.817-1.365V248.395z"/>
<path fill="none" stroke="#000000" stroke-width="2.25" stroke-linejoin="round" stroke-miterlimit="10" d="M137.925,227.208
	c0,0,4.311-3.316,13.708-3.316c9.399,0,12.385,3.316,12.385,3.316"/>
<ellipse fill="#FFFFFF" stroke="#000000" stroke-width="2.25" stroke-linejoin="round" stroke-miterlimit="10" cx="150.972" cy="226.333" rx="13.047" ry="3.098"/>
</svg>
