<?xml version="1.0" encoding="utf-8"?>
<!-- Generator: Adobe Illustrator 16.0.0, SVG Export Plug-In . SVG Version: 6.00 Build 0)  -->
<!DOCTYPE svg PUBLIC "-//W3C//DTD SVG 1.1//EN" "http://www.w3.org/Graphics/SVG/1.1/DTD/svg11.dtd">
<svg version="1.1" id="Layer_1" xmlns="http://www.w3.org/2000/svg" xmlns:xlink="http://www.w3.org/1999/xlink" x="0px" y="0px"
	 width="311.045px" height="339.304px" viewBox="0 0 311.045 339.304" enable-background="new 0 0 311.045 339.304"
	 xml:space="preserve">
<g>
	<g>
		<g>
			<defs>
				<rect id="SVGID_1_" x="-7.746" y="23.151" width="320" height="288"/>
			</defs>
			<clipPath id="SVGID_2_">
				<use xlink:href="#SVGID_1_"  overflow="visible"/>
			</clipPath>
		</g>
	</g>
</g>
<g>
	<g>
		<g>
			<defs>
				<rect id="SVGID_3_" x="-7.746" y="23.151" width="320" height="288"/>
			</defs>
			<clipPath id="SVGID_4_">
				<use xlink:href="#SVGID_3_"  overflow="visible"/>
			</clipPath>
		</g>
	</g>
</g>
<g>
	<g>
		<g>
			<defs>
				<rect id="SVGID_5_" x="-7.746" y="23.151" width="320" height="288"/>
			</defs>
			<clipPath id="SVGID_6_">
				<use xlink:href="#SVGID_5_"  overflow="visible"/>
			</clipPath>
		</g>
	</g>
</g>
<g>
	<g>
		<g>
			<defs>
				<rect id="SVGID_7_" x="-7.746" y="23.151" width="320" height="288"/>
			</defs>
			<clipPath id="SVGID_8_">
				<use xlink:href="#SVGID_7_"  overflow="visible"/>
			</clipPath>
		</g>
	</g>
</g>
<g>
	<g>
		<g>
			<defs>
				<rect id="SVGID_9_" x="-7.746" y="23.151" width="320" height="288"/>
			</defs>
			<clipPath id="SVGID_10_">
				<use xlink:href="#SVGID_9_"  overflow="visible"/>
			</clipPath>
		</g>
	</g>
</g>
<g>
	<path fill="none" stroke="#8DC63F" stroke-width="6" stroke-linejoin="round" stroke-miterlimit="10" d="M66.345,43.349
		c11.125-1.615,22.25-3.231,36.191,5.197c13.942,8.429,30.8,45.411,47.46,45.373s36.146-38.582,52.501-45.602
		c16.354-7.02,32.779-1.358,40.272,2.421"/>
	<path fill="none" stroke="#B5B6B6" stroke-width="6" stroke-linejoin="round" stroke-miterlimit="10" d="M232.932,104.286
		c-11.219,1.157-22.438,2.314-36.044-6.753c-13.606-9.066-28.897-46.983-45.595-47.646s-37.895,37.295-54.589,43.669
		c-16.694,6.373-36.708,1.719-45.578-5.427"/>
	<path fill="#010101" d="M88.389,44.525c2.601,0,5.085,0.622,7.453,1.867v7.147c-2.227-1.594-4.23-2.391-6.012-2.391
		c-1.922,0-3.493,0.679-4.711,2.037c-1.219,1.288-1.828,3.009-1.828,5.162c0,1.897,0.435,3.524,1.304,4.883
		c0.447,0.727,1.182,1.663,2.203,2.81c1.022,1.147,2.344,2.529,3.965,4.146c2.984,3.02,5.017,5.631,6.099,7.832
		c1.081,2.131,1.621,4.741,1.621,7.832c0,4.191-1.188,7.645-3.565,10.361c-2.376,2.646-5.416,3.969-9.12,3.969
		c-3.117,0-5.777-0.858-7.98-2.575v-7.256c2.602,1.898,4.969,2.848,7.102,2.848c1.992,0,3.55-0.661,4.675-1.984
		c1.125-1.322,1.688-3.119,1.688-5.391c0-1.966-0.435-3.734-1.304-5.303c-0.447-0.749-1.07-1.608-1.869-2.58
		s-1.797-2.055-2.996-3.249c-1.856-1.826-3.396-3.441-4.618-4.846c-1.222-1.405-2.127-2.635-2.714-3.688
		c-1.128-2.06-1.692-4.657-1.692-7.795c0-4.237,1.106-7.597,3.318-10.079C81.644,45.777,84.637,44.525,88.389,44.525z
		 M104.606,45.245h9.937c7.775,0,11.663,4.816,11.663,14.45c0,3.681-0.504,6.411-1.512,8.193c-1.008,1.781-2.789,3.13-5.344,4.044
		c2.93,1.171,4.934,2.671,6.012,4.5c1.091,1.805,1.636,4.524,1.636,8.157c0,9.962-4.272,14.943-12.816,14.943h-9.576V45.245z
		 M178.961,45.245h7.344V93.34h11.953v6.192h-19.297V45.245z M111.802,51.149c-0.19,0-0.308,0.012-0.355,0.034v18
		c2.863,0,4.852-0.656,5.963-1.969c1.112-1.383,1.668-3.809,1.668-7.277c0-5.859-2.13-8.788-6.39-8.788h-0.567H111.802z
		 M111.446,74.958v18.315c3.018,0,5.104-0.645,6.259-1.933c1.155-1.289,1.733-3.621,1.733-6.996c0-3.469-0.601-5.895-1.804-7.278
		C116.456,75.662,114.393,74.958,111.446,74.958z"/>
	<path fill="none" stroke="#010101" stroke-linejoin="round" stroke-miterlimit="10" d="M88.389,44.525
		c2.601,0,5.085,0.622,7.453,1.867v7.147c-2.227-1.594-4.23-2.391-6.012-2.391c-1.922,0-3.493,0.679-4.711,2.037
		c-1.219,1.288-1.828,3.009-1.828,5.162c0,1.897,0.435,3.524,1.304,4.883c0.447,0.727,1.182,1.663,2.203,2.81
		c1.022,1.147,2.344,2.529,3.965,4.146c2.984,3.021,5.017,5.631,6.099,7.832c1.081,2.131,1.621,4.741,1.621,7.832
		c0,4.191-1.188,7.645-3.565,10.361c-2.376,2.646-5.416,3.969-9.12,3.969c-3.117,0-5.777-0.858-7.98-2.574v-7.257
		c2.602,1.898,4.969,2.848,7.102,2.848c1.992,0,3.55-0.661,4.675-1.984c1.125-1.322,1.688-3.119,1.688-5.391
		c0-1.966-0.435-3.733-1.304-5.303c-0.447-0.749-1.07-1.608-1.869-2.58s-1.797-2.055-2.996-3.249
		c-1.856-1.826-3.396-3.441-4.618-4.846c-1.222-1.405-2.127-2.635-2.714-3.688c-1.128-2.06-1.692-4.657-1.692-7.795
		c0-4.237,1.106-7.597,3.318-10.079C81.644,45.777,84.637,44.525,88.389,44.525z M104.606,45.245h9.937
		c7.775,0,11.663,4.816,11.663,14.45c0,3.681-0.503,6.411-1.511,8.193c-1.008,1.781-2.789,3.13-5.344,4.044
		c2.93,1.171,4.934,2.671,6.012,4.5c1.091,1.805,1.636,4.524,1.636,8.157c0,9.962-4.272,14.943-12.816,14.943h-9.576V45.245z
		 M178.961,45.245h7.344V93.34h11.953v6.192h-19.297V45.245z M111.802,51.149c-0.19,0-0.308,0.012-0.355,0.034v18
		c2.863,0,4.852-0.656,5.963-1.969c1.112-1.383,1.668-3.809,1.668-7.277c0-5.859-2.13-8.788-6.39-8.788h-0.567H111.802z
		 M111.446,74.958v18.315c3.018,0,5.104-0.645,6.259-1.933c1.155-1.289,1.733-3.621,1.733-6.996c0-3.469-0.602-5.895-1.804-7.277
		C116.456,75.662,114.393,74.958,111.446,74.958z"/>
</g>
<g>
	<defs>
		
			<rect id="SVGID_11_" x="137.902" y="69.479" transform="matrix(-0.0815 0.9967 -0.9967 -0.0815 224.5916 -62.3196)" width="6.22" height="5.701"/>
	</defs>
	<clipPath id="SVGID_12_">
		<use xlink:href="#SVGID_11_"  overflow="visible"/>
	</clipPath>
	<g clip-path="url(#SVGID_12_)">
		<defs>
			
				<rect id="SVGID_13_" x="137.902" y="69.479" transform="matrix(-0.0815 0.9967 -0.9967 -0.0815 224.5916 -62.3196)" width="6.22" height="5.701"/>
		</defs>
		<clipPath id="SVGID_14_">
			<use xlink:href="#SVGID_13_"  overflow="visible"/>
		</clipPath>
		<g clip-path="url(#SVGID_14_)">
			<defs>
				<rect id="SVGID_15_" x="-7.746" y="23.151" width="320" height="288"/>
			</defs>
			<clipPath id="SVGID_16_">
				<use xlink:href="#SVGID_15_"  overflow="visible"/>
			</clipPath>
			
				<polygon clip-path="url(#SVGID_16_)" fill="none" stroke="#000000" stroke-width="0.5266" stroke-linejoin="round" stroke-miterlimit="10" points="
				143.54,75.446 143.798,72.286 141.36,69.431 138.495,71.852 138.237,75.011 			"/>
		</g>
	</g>
</g>
<g>
	<defs>
		
			<rect id="SVGID_17_" x="155.503" y="65.405" transform="matrix(-0.37 0.929 -0.929 -0.37 282.9187 -52.5671)" width="7.559" height="8.474"/>
	</defs>
	<clipPath id="SVGID_18_">
		<use xlink:href="#SVGID_17_"  overflow="visible"/>
	</clipPath>
	<g clip-path="url(#SVGID_18_)">
		<defs>
			
				<rect id="SVGID_19_" x="155.503" y="65.405" transform="matrix(-0.37 0.929 -0.929 -0.37 282.9187 -52.5671)" width="7.559" height="8.474"/>
		</defs>
		<clipPath id="SVGID_20_">
			<use xlink:href="#SVGID_19_"  overflow="visible"/>
		</clipPath>
		<g clip-path="url(#SVGID_20_)">
			<defs>
				<rect id="SVGID_21_" x="-7.746" y="23.151" width="320" height="288"/>
			</defs>
			<clipPath id="SVGID_22_">
				<use xlink:href="#SVGID_21_"  overflow="visible"/>
			</clipPath>
			
				<polyline clip-path="url(#SVGID_22_)" fill="none" stroke="#000000" stroke-width="0.6997" stroke-linejoin="round" stroke-miterlimit="10" points="
				156.334,66.687 158.676,65.467 159.488,67.943 			"/>
			
				<polyline clip-path="url(#SVGID_22_)" fill="none" stroke="#000000" stroke-width="0.6997" stroke-linejoin="round" stroke-miterlimit="10" points="
				161.842,74.321 156.067,72.022 158.588,65.689 			"/>
		</g>
	</g>
</g>
<g>
	<defs>
		<rect id="SVGID_23_" x="145.266" y="67.257" width="9.206" height="9.207"/>
	</defs>
	<clipPath id="SVGID_24_">
		<use xlink:href="#SVGID_23_"  overflow="visible"/>
	</clipPath>
	
		<rect x="147.729" y="69.75" clip-path="url(#SVGID_24_)" fill="none" stroke="#000000" stroke-width="0.8558" stroke-linejoin="round" stroke-miterlimit="10" width="4.583" height="4.582"/>
	
		<rect x="145.728" y="67.748" clip-path="url(#SVGID_24_)" fill="none" stroke="#000000" stroke-width="0.8558" stroke-linejoin="round" stroke-miterlimit="10" width="8.592" height="8.593"/>
</g>
<g>
	<defs>
		
			<rect id="SVGID_25_" x="143.344" y="78.469" transform="matrix(-0.8936 -0.4489 0.4489 -0.8936 243.6067 220.7118)" width="9.245" height="6.019"/>
	</defs>
	<clipPath id="SVGID_26_">
		<use xlink:href="#SVGID_25_"  overflow="visible"/>
	</clipPath>
	<g clip-path="url(#SVGID_26_)">
		<defs>
			
				<rect id="SVGID_27_" x="143.344" y="78.469" transform="matrix(-0.8936 -0.4489 0.4489 -0.8936 243.6067 220.7118)" width="9.245" height="6.019"/>
		</defs>
		<clipPath id="SVGID_28_">
			<use xlink:href="#SVGID_27_"  overflow="visible"/>
		</clipPath>
		<g clip-path="url(#SVGID_28_)">
			<defs>
				<rect id="SVGID_29_" x="-7.746" y="23.151" width="320" height="288"/>
			</defs>
			<clipPath id="SVGID_30_">
				<use xlink:href="#SVGID_29_"  overflow="visible"/>
			</clipPath>
			
				<rect x="143.633" y="78.867" transform="matrix(-0.8936 -0.4489 0.4489 -0.8936 243.6587 221.0165)" clip-path="url(#SVGID_30_)" fill="none" stroke="#000000" stroke-width="0.6595" stroke-linejoin="round" stroke-miterlimit="10" width="8.783" height="5.525"/>
			
				<line clip-path="url(#SVGID_30_)" fill="none" stroke="#000000" stroke-width="0.6595" stroke-linejoin="round" stroke-miterlimit="10" x1="145.623" y1="79.066" x2="146.597" y2="82.027"/>
			
				<line clip-path="url(#SVGID_30_)" fill="none" stroke="#000000" stroke-width="0.6595" stroke-linejoin="round" stroke-miterlimit="10" x1="144.631" y1="81.04" x2="147.588" y2="80.053"/>
			
				<line clip-path="url(#SVGID_30_)" fill="none" stroke="#000000" stroke-width="0.6595" stroke-linejoin="round" stroke-miterlimit="10" x1="147.182" y1="82.816" x2="150.32" y2="84.392"/>
		</g>
	</g>
</g>
<g>
	<defs>
		<rect id="SVGID_31_" x="155.17" y="75.979" width="4.117" height="8.475"/>
	</defs>
	<clipPath id="SVGID_32_">
		<use xlink:href="#SVGID_31_"  overflow="visible"/>
	</clipPath>
	
		<line clip-path="url(#SVGID_32_)" fill="none" stroke="#000000" stroke-width="0.7721" stroke-linejoin="round" stroke-miterlimit="10" x1="157.365" y1="84.31" x2="157.365" y2="80.321"/>
	
		<polygon clip-path="url(#SVGID_32_)" fill="none" stroke="#000000" stroke-width="0.7721" stroke-linejoin="round" stroke-miterlimit="10" points="
		157.365,76.336 157.365,76.336 157.749,76.396 158.075,76.461 158.393,76.647 158.649,76.832 158.843,77.083 159.039,77.392 
		159.104,77.708 159.163,78.078 159.104,78.454 159.039,78.764 158.843,79.074 158.649,79.325 158.393,79.515 158.075,79.701 
		157.749,79.76 157.365,79.826 156.981,79.76 156.661,79.701 156.335,79.515 156.082,79.325 155.886,79.074 155.691,78.764 
		155.631,78.454 155.567,78.078 155.631,77.708 155.691,77.392 155.886,77.083 156.082,76.832 156.335,76.647 156.661,76.461 
		156.981,76.396 	"/>
</g>
<g>
	<defs>
		
			<rect id="SVGID_33_" x="143.164" y="62.13" transform="matrix(-0.9867 0.1624 -0.1624 -0.9867 305.425 102.8979)" width="10.687" height="3.6"/>
	</defs>
	<clipPath id="SVGID_34_">
		<use xlink:href="#SVGID_33_"  overflow="visible"/>
	</clipPath>
	<g clip-path="url(#SVGID_34_)">
		<defs>
			
				<rect id="SVGID_35_" x="143.164" y="62.13" transform="matrix(-0.9867 0.1624 -0.1624 -0.9867 305.425 102.8979)" width="10.687" height="3.6"/>
		</defs>
		<clipPath id="SVGID_36_">
			<use xlink:href="#SVGID_35_"  overflow="visible"/>
		</clipPath>
		<g clip-path="url(#SVGID_36_)">
			<defs>
				<rect id="SVGID_37_" x="-7.746" y="23.151" width="320" height="288"/>
			</defs>
			<clipPath id="SVGID_38_">
				<use xlink:href="#SVGID_37_"  overflow="visible"/>
			</clipPath>
			
				<line clip-path="url(#SVGID_38_)" fill="none" stroke="#000000" stroke-width="0.9823" stroke-linejoin="round" stroke-miterlimit="10" x1="143.509" y1="63.441" x2="147.372" y2="62.805"/>
			
				<line clip-path="url(#SVGID_38_)" fill="none" stroke="#000000" stroke-width="0.9823" stroke-linejoin="round" stroke-miterlimit="10" x1="143.943" y1="66.08" x2="147.806" y2="65.444"/>
			
				<line clip-path="url(#SVGID_38_)" fill="none" stroke="#000000" stroke-width="0.9823" stroke-linejoin="round" stroke-miterlimit="10" x1="149.305" y1="62.487" x2="153.167" y2="61.851"/>
			
				<line clip-path="url(#SVGID_38_)" fill="none" stroke="#000000" stroke-width="0.9823" stroke-linejoin="round" stroke-miterlimit="10" x1="149.74" y1="65.125" x2="153.602" y2="64.49"/>
		</g>
	</g>
</g>
<g>
	
		<circle fill="none" stroke="#010101" stroke-width="2.25" stroke-linejoin="round" stroke-miterlimit="10" cx="150.372" cy="72.481" r="14.4"/>
</g>
</svg>
