<svg xmlns="http://www.w3.org/2000/svg" viewBox="0 0 777.81312 287.77133"><defs><style>.cls-1{fill:#232323;}.cls-2{fill:#98c255;}.cls-3{fill:none;}.cls-4{fill:#fff;}</style></defs><g id="Layer_2" data-name="Layer 2"><g id="Layer_1-2" data-name="Layer 1"><path class="cls-1" d="M12.61612,141.87485a21.19676,21.19676,0,0,1,26.74969,10.40291c4.459,9.21594,14.56407,19.321,32.99143,19.321,17.53827,0,29.72389-8.32232,30.02176-21.69942.29787-9.21143-3.8633-17.2404-24.66911-23.18427l-24.66911-6.83749C7.85922,105.90922.13263,80.04863.13263,61.62127.13263,25.0599,31.34135.39079,70.57453.39079c29.426,0,51.42331,12.78136,62.422,34.18292,5.05026,9.80717.8891,19.321-6.53961,24.07337-10.70078,6.83748-20.21459,3.8678-27.34543-5.05027A36.1836,36.1836,0,0,0,69.9833,39.33061c-15.15981,0-26.45633,8.91356-26.45633,21.10369,0,5.34813,2.08058,15.1553,21.9973,20.80582L89.89551,88.371c49.6406,14.27071,56.77144,42.20737,56.18021,61.82622-.59574,40.72253-37.455,60.0435-73.71848,60.0435-36.259,0-62.41744-17.53826-71.33551-43.99008C-2.24582,155.84318,2.51108,145.73814,12.61612,141.87485Z"/><path class="cls-1" d="M194.30252,207.56436c-10.99413,0-17.23588-8.6202-17.23588-18.42736V21.19661c.29336-10.105,6.24175-18.42736,17.23588-18.42736h64.80042c36.85472,0,60.63473,21.99278,60.63473,57.06931,0,13.3771-6.83749,30.31962-27.94117,38.34408,27.05207,6.83748,38.642,30.02175,38.642,46.6664,0,33.88505-24.66911,62.71532-65.39164,62.71532ZM254.94177,84.50767c11.292,0,19.02311-9.5093,19.02311-21.69943,0-12.77685-6.53962-21.69492-19.321-21.69492h-33.885V84.50767Zm-34.18291,34.48078v50.23183h41.9095c14.56407,0,21.9973-13.3771,21.9973-25.56272,0-11.58988-7.43323-24.66911-22.8864-24.66911Z"/><path class="cls-1" d="M700.83161,169.51815H759.9815c9.80717,0,17.83162,8.6202,17.83162,19.02311,0,9.80716-8.32232,18.72523-17.83162,19.0231H674.67314c-10.99864,0-17.24039-8.32233-17.24039-18.42736V21.49448c.29787-10.70078,10.40291-20.21007,21.69943-20.21007,11.88775,0,21.69943,9.21142,21.69943,20.21007Z"/><path class="cls-1" d="M0,276.3603,1.16535,274.071a13.81239,13.81239,0,0,0,9.2805,3.41522c5.26287,0,7.55315-2.2104,7.55315-4.9828,0-7.71386-17.31577-2.97352-17.31577-13.379,0-4.137,3.21411-7.71386,10.366-7.71386a15.883,15.883,0,0,1,8.71756,2.49046l-1.0037,2.37205a14.47717,14.47717,0,0,0-7.71386-2.3307c-5.14257,0-7.43286,2.28935-7.43286,5.10122,0,7.71386,17.31577,3.05435,17.31577,13.3,0,4.137-3.29493,7.67251-10.48626,7.67251C6.228,280.01612,2.08917,278.52936,0,276.3603Z"/><path class="cls-1" d="M47.15716,258.64324,36.591,282.30734c-1.7687,4.137-4.01858,5.464-7.03157,5.464a7.2328,7.2328,0,0,1-5.14257-1.92847l1.32606-2.12958a5.28111,5.28111,0,0,0,3.85692,1.60705c1.88806,0,3.1737-.8834,4.37946-3.53551l.92382-2.04876-9.4412-21.09282h2.97258l7.95538,17.95765,7.95445-17.95765Z"/><path class="cls-1" d="M73.62374,267.52245v12.25308H70.77146v-11.973c0-4.4584-2.3307-6.74963-6.3474-6.74963-4.54016,0-7.39244,2.81376-7.39244,7.633v11.08961H54.17839V258.64324h2.732v3.8964c1.52717-2.57128,4.37946-4.058,8.03527-4.058C70.08822,258.4816,73.62374,261.45512,73.62374,267.52245Z"/><path class="cls-1" d="M95.50881,278.48989a6.79582,6.79582,0,0,1-4.45934,1.48676c-3.97816,0-6.18763-2.24988-6.18763-6.14816V261.05288H81.08573v-2.40964h3.77611v-4.62h2.85229v4.62h6.42821v2.40964H87.71413v12.61584c0,2.49047,1.28564,3.85693,3.65675,3.85693a4.71792,4.71792,0,0,0,3.13328-1.08452Z"/><path class="cls-1" d="M123.14262,267.52245v12.25308h-2.85229v-11.973c0-4.4584-2.32976-6.74963-6.34833-6.74963-4.53922,0-7.39245,2.81376-7.39245,7.633v11.08961h-2.85229V249.96515h2.85229v12.37338c1.56758-2.451,4.34-3.85693,7.915-3.85693C119.6071,258.4816,123.14262,261.45512,123.14262,267.52245Z"/><path class="cls-1" d="M152.37972,270.09373H134.70213c.32141,4.41893,3.69622,7.3511,8.31626,7.3511a8.326,8.326,0,0,0,6.46863-2.7724l1.607,1.84952a10.40305,10.40305,0,0,1-8.15556,3.4547c-6.58986,0-11.08961-4.49975-11.08961-10.7682,0-6.26657,4.37946-10.72685,10.32556-10.72685s10.24473,4.37945,10.24473,10.72685C152.41919,269.45091,152.37972,269.77232,152.37972,270.09373Zm-17.67759-2.12958h14.986a7.50814,7.50814,0,0,0-14.986,0Z"/><path class="cls-1" d="M172.37767,278.48989a6.79755,6.79755,0,0,1-4.45934,1.48676c-3.97722,0-6.18763-2.24988-6.18763-6.14816V261.05288h-3.7761v-2.40964h3.7761v-4.62h2.85323v4.62h6.42821v2.40964h-6.42821v12.61584c0,2.49047,1.28564,3.85693,3.65581,3.85693a4.71623,4.71623,0,0,0,3.13329-1.08452Z"/><path class="cls-1" d="M179.92331,251.97256a2.0584,2.0584,0,0,1,2.08917-2.00741,2.0255,2.0255,0,0,1,2.08917,1.96794,2.08935,2.08935,0,0,1-4.17834.03947Zm.64282,6.67068h2.85322v21.13229h-2.85322Z"/><path class="cls-1" d="M192.25157,269.20845c0-6.30793,4.58057-10.72685,10.88849-10.72685,3.575,0,6.58893,1.40593,8.27586,4.17834l-2.12958,1.44728a7.18225,7.18225,0,0,0-6.14628-3.13516c-4.62,0-7.99579,3.29493-7.99579,8.23639,0,4.9828,3.37575,8.23638,7.99579,8.23638a7.145,7.145,0,0,0,6.14628-3.09381l2.12958,1.44729c-1.68693,2.731-4.70087,4.17834-8.27586,4.17834C196.83214,279.97665,192.25157,275.51637,192.25157,269.20845Z"/><path class="cls-1" d="M257.64362,272.26279c0,4.77981-3.53551,7.51274-10.56614,7.51274H234.14023V251.653H246.274c6.26751,0,9.88385,2.65023,9.88385,7.2308a6.53193,6.53193,0,0,1-4.29957,6.38874C255.47457,266.07516,257.64362,268.44533,257.64362,272.26279Zm-20.52987-18.16065v10.2062h8.95909c4.49975,0,7.11145-1.72735,7.11145-5.1031s-2.6117-5.1031-7.11145-5.1031ZM254.671,272.0222c0-3.65581-2.69158-5.26475-7.634-5.26475h-9.92332v10.56709h9.92332C251.97946,277.32454,254.671,275.71748,254.671,272.0222Z"/><path class="cls-1" d="M266.1892,251.97256a2.0584,2.0584,0,0,1,2.08917-2.00741,2.02549,2.02549,0,0,1,2.08917,1.96794,2.08935,2.08935,0,0,1-4.17834.03947Zm.64283,6.67068h2.85322v21.13229H266.832Z"/><path class="cls-1" d="M278.51747,269.20845a10.74754,10.74754,0,1,1,10.7682,10.7682A10.39544,10.39544,0,0,1,278.51747,269.20845Zm18.60235,0c0-4.94146-3.3344-8.23639-7.83415-8.23639s-7.8755,3.29493-7.8755,8.23639c0,4.94333,3.37575,8.23638,7.8755,8.23638S297.11982,274.15178,297.11982,269.20845Z"/><path class="cls-1" d="M308.841,249.96515h2.85322v29.81038H308.841Z"/><path class="cls-1" d="M320.52642,269.20845a10.74754,10.74754,0,1,1,10.7682,10.7682A10.39544,10.39544,0,0,1,320.52642,269.20845Zm18.60235,0c0-4.94146-3.3344-8.23639-7.83415-8.23639s-7.8755,3.29493-7.8755,8.23639c0,4.94333,3.37575,8.23638,7.8755,8.23638S339.12877,274.15178,339.12877,269.20845Z"/><path class="cls-1" d="M370.41651,258.64324v18.561c0,7.27216-3.57593,10.56709-10.56708,10.56709-3.85693,0-7.633-1.16535-9.84344-3.25546l1.44729-2.16905a12.57479,12.57479,0,0,0,8.31627,2.89269c5.34275,0,7.79374-2.451,7.79374-7.67438v-2.69158a9.51008,9.51008,0,0,1-8.23639,4.09751c-6.026,0-10.60655-4.21781-10.60655-10.28514,0-6.06546,4.58057-10.20432,10.60655-10.20432a9.53628,9.53628,0,0,1,8.35668,4.21969v-4.058Zm-2.7724,10.04268c0-4.5787-3.37481-7.71386-8.03527-7.71386s-7.9958,3.13516-7.9958,7.71386c0,4.58057,3.33535,7.75521,7.9958,7.75521S367.64411,273.26649,367.64411,268.68592Z"/><path class="cls-1" d="M399.17056,258.64324l-10.5652,23.6641c-1.7687,4.137-4.01858,5.464-7.03157,5.464a7.23278,7.23278,0,0,1-5.14257-1.92847l1.32605-2.12958a5.28115,5.28115,0,0,0,3.85693,1.60705c1.88806,0,3.1737-.8834,4.37946-3.53551l.92382-2.04876-9.44121-21.09282h2.97258l7.95539,17.95765,7.95445-17.95765Z"/><path class="cls-1" d="M417.83682,265.71428c0-8.19692,6.26845-14.30372,14.78489-14.30372,8.43751,0,14.74543,6.06733,14.74543,14.30372s-6.30792,14.30184-14.74543,14.30184C424.10527,280.01612,417.83682,273.90931,417.83682,265.71428Zm26.5568,0a11.81247,11.81247,0,1,0-11.77191,11.65161A11.39177,11.39177,0,0,0,444.39362,265.71428Z"/><path class="cls-1" d="M477.84665,269.20845c0,6.42821-4.49975,10.7682-10.52573,10.7682a9.22984,9.22984,0,0,1-8.03527-4.17834v11.7719h-2.85322v-28.927h2.73293v4.17834a9.20519,9.20519,0,0,1,8.15556-4.34C473.3469,258.4816,477.84665,262.82158,477.84665,269.20845Zm-2.85322,0c0-4.90011-3.41523-8.23639-7.87363-8.23639-4.49975,0-7.8755,3.33628-7.8755,8.23639,0,4.94333,3.37575,8.23638,7.8755,8.23638C471.5782,277.44483,474.99343,274.15178,474.99343,269.20845Z"/><path class="cls-1" d="M505.07635,270.09373H487.39876c.32141,4.41893,3.69528,7.3511,8.3172,7.3511a8.32407,8.32407,0,0,0,6.46769-2.7724l1.60706,1.84952a10.40309,10.40309,0,0,1-8.15557,3.4547c-6.58986,0-11.08961-4.49975-11.08961-10.7682,0-6.26657,4.37946-10.72685,10.3265-10.72685,5.94516,0,10.24379,4.37945,10.24379,10.72685C505.11582,269.45091,505.07635,269.77232,505.07635,270.09373Zm-17.67759-2.12958h14.986a7.50814,7.50814,0,0,0-14.986,0Z"/><path class="cls-1" d="M533.39245,267.52245v12.25308h-2.85323v-11.973c0-4.4584-2.33069-6.74963-6.34739-6.74963-4.5411,0-7.39245,2.81376-7.39245,7.633v11.08961h-2.85322V258.64324h2.73293v3.8964c1.52623-2.57128,4.37758-4.058,8.03527-4.058C529.85693,258.4816,533.39245,261.45512,533.39245,267.52245Z"/><path class="cls-1" d="M558.28393,251.653h2.97352v25.55121H577.0047v2.57129H558.28393Z"/><path class="cls-1" d="M600.37746,266.67851v13.097h-2.73105V276.4806c-1.28564,2.17093-3.778,3.49605-7.27215,3.49605-4.78169,0-7.71386-2.49047-7.71386-6.14816,0-3.25358,2.08823-5.98463,8.15556-5.98463h6.70828v-1.28564c0-3.61634-2.04876-5.58616-5.98651-5.58616a10.76687,10.76687,0,0,0-7.02969,2.49234l-1.28564-2.12958a13.41677,13.41677,0,0,1,8.59726-2.85322C597.28365,258.4816,600.37746,261.21453,600.37746,266.67851Zm-2.85322,6.74963v-3.45658H590.8949c-4.09751,0-5.42263,1.60893-5.42263,3.778,0,2.451,1.96794,3.97722,5.34369,3.97722A6.75816,6.75816,0,0,0,597.52424,273.42814Z"/><path class="cls-1" d="M630.58255,267.52245v12.25308h-2.85322v-11.973c0-4.4584-2.3307-6.74963-6.34739-6.74963-4.54111,0-7.39245,2.81376-7.39245,7.633v11.08961h-2.85323V258.64324h2.73293v3.8964c1.52624-2.57128,4.37758-4.058,8.03527-4.058C627.047,258.4816,630.58255,261.45512,630.58255,267.52245Z"/><path class="cls-1" d="M660.98313,258.64324v18.561c0,7.27216-3.57687,10.56709-10.56709,10.56709-3.85693,0-7.633-1.16535-9.84344-3.25546l1.44729-2.16905a12.57223,12.57223,0,0,0,8.31533,2.89269c5.34369,0,7.79468-2.451,7.79468-7.67438v-2.69158a9.50781,9.50781,0,0,1-8.23638,4.09751c-6.026,0-10.60656-4.21781-10.60656-10.28514,0-6.06546,4.58057-10.20432,10.60656-10.20432a9.53629,9.53629,0,0,1,8.35668,4.21969v-4.058Zm-2.77241,10.04268c0-4.5787-3.37575-7.71386-8.03527-7.71386-4.66139,0-7.99579,3.13516-7.99579,7.71386,0,4.58057,3.3344,7.75521,7.99579,7.75521C654.835,276.44113,658.21072,273.26649,658.21072,268.68592Z"/><path class="cls-1" d="M691.0247,258.64324v21.13229h-2.73294V275.9186a8.40384,8.40384,0,0,1-7.59356,4.058c-5.38316,0-8.91868-3.013-8.91868-9.08033V258.64324h2.85323v11.97114c0,4.49975,2.33069,6.791,6.34739,6.791,4.41893,0,7.19133-2.85323,7.19133-7.67439V258.64324Z"/><path class="cls-1" d="M717.97057,266.67851v13.097h-2.73293V276.4806c-1.28564,2.17093-3.77611,3.49605-7.27027,3.49605-4.78169,0-7.71386-2.49047-7.71386-6.14816,0-3.25358,2.08823-5.98463,8.15556-5.98463h6.70828v-1.28564c0-3.61634-2.04876-5.58616-5.98463-5.58616a10.7683,10.7683,0,0,0-7.03157,2.49234l-1.28564-2.12958a13.41678,13.41678,0,0,1,8.59727-2.85322C714.87676,258.4816,717.97057,261.21453,717.97057,266.67851Zm-2.85322,6.74963v-3.45658h-6.62746c-4.09939,0-5.42451,1.60893-5.42451,3.778,0,2.451,1.96794,3.97722,5.34369,3.97722A6.75816,6.75816,0,0,0,715.11735,273.42814Z"/><path class="cls-1" d="M748.3749,258.64324v18.561c0,7.27216-3.57687,10.56709-10.56708,10.56709-3.85693,0-7.633-1.16535-9.84344-3.25546l1.44729-2.16905a12.57581,12.57581,0,0,0,8.31533,2.89269c5.34369,0,7.79468-2.451,7.79468-7.67438v-2.69158a9.51008,9.51008,0,0,1-8.23639,4.09751c-6.026,0-10.60655-4.21781-10.60655-10.28514,0-6.06546,4.58057-10.20432,10.60655-10.20432a9.53628,9.53628,0,0,1,8.35668,4.21969v-4.058Zm-2.7724,10.04268c0-4.5787-3.37575-7.71386-8.03527-7.71386-4.6614,0-7.9958,3.13516-7.9958,7.71386,0,4.58057,3.3344,7.75521,7.9958,7.75521C742.22675,276.44113,745.6025,273.26649,745.6025,268.68592Z"/><path class="cls-1" d="M777.77365,270.09373H760.09606c.32141,4.41893,3.69528,7.3511,8.31533,7.3511a8.328,8.328,0,0,0,6.46956-2.7724L776.488,276.522a10.40307,10.40307,0,0,1-8.15557,3.4547c-6.58986,0-11.08961-4.49975-11.08961-10.7682,0-6.26657,4.37946-10.72685,10.3265-10.72685,5.94516,0,10.24379,4.37945,10.24379,10.72685C777.81312,269.45091,777.77365,269.77232,777.77365,270.09373Zm-17.67759-2.12958h14.986a7.50814,7.50814,0,0,0-14.986,0Z"/><path class="cls-2" d="M623.13036,156.5546a60.16138,60.16138,0,0,1-22.55044-23.11593,115.40414,115.40414,0,0,1-22.29707,44.01285A104.12424,104.12424,0,0,0,600.834,195.08557a22.25851,22.25851,0,1,0,22.29639-38.531Z"/><polygon class="cls-3" points="593.104 104.54 593.104 104.546 593.104 104.551 593.104 104.545 593.104 104.54"/><path class="cls-2" d="M376.286,14.00782a22.25848,22.25848,0,0,0-22.29646,38.53087A60.15762,60.15762,0,0,1,376.53489,75.653a115.40819,115.40819,0,0,1,22.29844-44.01362A104.11619,104.11619,0,0,0,376.286,14.00782Z"/><polygon class="cls-4" points="548.587 104.549 548.587 104.545 548.587 104.541 548.587 104.546 548.587 104.549"/><path class="cls-2" d="M488.55865,0a104.66427,104.66427,0,0,0-104.548,104.54514A60.45273,60.45273,0,0,1,353.98954,156.553,22.25849,22.25849,0,1,0,376.286,195.08386a104.12058,104.12058,0,0,0,22.54768-17.63177,100.29846,100.29846,0,0,0,7.53488-8.41606,103.96716,103.96716,0,0,0,22.159-64.34205A60.01775,60.01775,0,0,1,541.15744,75.65391a115.3643,115.3643,0,0,1,22.25663-43.98637A104.21863,104.21863,0,0,0,488.55865,0Z"/><path class="cls-2" d="M593.104,104.53955a60.45308,60.45308,0,0,1,30.02351-52.00179A22.25853,22.25853,0,0,0,600.8313,14.00665a105.14257,105.14257,0,0,0-29.98507,26.16849l.01607.02143a103.90409,103.90409,0,0,0-22.2748,64.343H548.587v.00559a60.016,60.016,0,0,1-112.57686,28.9844A115.35465,115.35465,0,0,1,413.8381,177.552,104.46663,104.46663,0,0,0,593.104,104.54514"/><path class="cls-2" d="M487.5072,152.58662a7.92813,7.92813,0,0,1-7.92714-7.92713V65.9714a7.92714,7.92714,0,0,1,15.85427,0v78.68809A7.92813,7.92813,0,0,1,487.5072,152.58662Z"/><path class="cls-2" d="M458.987,131.79979a7.92814,7.92814,0,0,1-7.92714-7.92713V86.75824a7.92714,7.92714,0,1,1,15.85427,0v37.11442A7.92813,7.92813,0,0,1,458.987,131.79979Z"/><path class="cls-2" d="M518.12934,131.79979a7.92813,7.92813,0,0,1-7.92713-7.92713V86.75824a7.92713,7.92713,0,1,1,15.85426,0v37.11442A7.92813,7.92813,0,0,1,518.12934,131.79979Z"/></g></g></svg>