<svg xmlns="http://www.w3.org/2000/svg" viewBox="0 0 575.47251 412.97154"><defs><style>.cls-1{fill:#98c255;}.cls-2{fill:none;}.cls-3{fill:#fff;}</style></defs><g id="Layer_2" data-name="Layer 2"><g id="Layer_1-2" data-name="Layer 1"><path class="cls-1" d="M553.52194,309.20692a118.82313,118.82313,0,0,1-44.53879-45.65568,227.93162,227.93162,0,0,1-44.03837,86.92865,205.65361,205.65361,0,0,0,44.54013,34.82854,43.9622,43.9622,0,1,0,44.037-76.10151Z"/><path class="cls-2" d="M494.21738,206.47342v.02281l.00068-.01174Z"/><path class="cls-1" d="M65.98606,27.66648A43.96215,43.96215,0,0,0,21.9489,103.76781a118.81565,118.81565,0,0,1,44.52873,45.65243,227.94006,227.94006,0,0,1,44.04108-86.93017A205.638,205.638,0,0,0,65.98606,27.66648Z"/><polygon class="cls-3" points="406.294 206.493 406.294 206.484 406.294 206.477 406.294 206.485 406.294 206.493"/><path class="cls-1" d="M287.73286,0C173.873,0,81.24272,92.62706,81.24272,206.48439a118.43749,118.43749,0,0,1-14.7644,57.066A118.81665,118.81665,0,0,1,21.9489,309.20373a43.96216,43.96216,0,1,0,44.03716,76.10133,205.64646,205.64646,0,0,0,44.53334-34.824,198.09516,198.09516,0,0,0,14.88194-16.62234c27.22275-34.27244,43.76573-79.28953,43.76573-127.0803,0-65.37326,53.18633-118.85494,118.56579-118.85494a118.64518,118.64518,0,0,1,103.8865,61.49865,227.85288,227.85288,0,0,1,43.9585-86.87634A205.83954,205.83954,0,0,0,287.73286,0Z"/><path class="cls-1" d="M494.21771,206.47335A119.39922,119.39922,0,0,1,553.51636,103.766a43.96224,43.96224,0,0,0-44.03671-76.10179,207.66434,207.66434,0,0,0-59.22274,51.6847c.011.0138.0207.02852.03174.04232a205.21825,205.21825,0,0,0-43.99437,127.08215h-.00092v.011a118.53613,118.53613,0,0,1-222.34764,57.24633,227.83372,227.83372,0,0,1-43.79149,86.94765,205.76765,205.76765,0,0,0,147.57863,62.29317c113.85411,0,206.48485-92.62982,206.48485-206.48715"/><path class="cls-1" d="M285.65616,301.36987a15.65866,15.65866,0,0,1-15.65668-15.65668V130.29841a15.65667,15.65667,0,1,1,31.31335,0V285.71319A15.65865,15.65865,0,0,1,285.65616,301.36987Z"/><path class="cls-1" d="M229.32672,260.31434A15.65866,15.65866,0,0,1,213.67,244.65766V171.35394a15.65667,15.65667,0,1,1,31.31335,0v73.30372A15.65865,15.65865,0,0,1,229.32672,260.31434Z"/><path class="cls-1" d="M346.13716,260.31434a15.65866,15.65866,0,0,1-15.65668-15.65668V171.35394a15.65668,15.65668,0,1,1,31.31335,0v73.30372A15.65865,15.65865,0,0,1,346.13716,260.31434Z"/></g></g></svg>